<svg width="162.5" height="78.8" viewBox="0 0 162.5 78.8" xmlns="http://www.w3.org/2000/svg"><g id="svgGroup" stroke-linecap="round" fill-rule="evenodd" font-size="9pt" stroke="#ffffff" stroke-width="0.25mm" fill="#ffffff" style="stroke:#ffffff;stroke-width:0.25mm;fill:#ffffff"><path d="M 72.2 77.6 L 62.9 77.6 L 62.9 1.6 L 72.2 0 L 72.2 26.6 A 30.97 30.97 0 0 1 76.837 25.233 A 34.845 34.845 0 0 1 77.75 25.05 Q 80.7 24.5 83.6 24.5 A 36.259 36.259 0 0 1 87.949 24.745 Q 91.335 25.155 93.9 26.25 A 17.536 17.536 0 0 1 97.941 28.622 A 14.88 14.88 0 0 1 100.45 31.15 A 17.963 17.963 0 0 1 103.223 36.324 A 22.227 22.227 0 0 1 103.9 38.7 A 39.412 39.412 0 0 1 104.709 43.935 A 50.295 50.295 0 0 1 104.9 48.4 L 104.9 77.6 L 95.6 77.6 L 95.6 50.4 A 59.914 59.914 0 0 0 95.509 46.997 Q 95.413 45.327 95.219 43.871 A 30.15 30.15 0 0 0 94.95 42.2 Q 94.3 38.8 92.8 36.7 Q 91.3 34.6 88.8 33.65 A 13.28 13.28 0 0 0 86.43 33.009 Q 85.248 32.797 83.881 32.73 A 26.414 26.414 0 0 0 82.6 32.7 A 24.616 24.616 0 0 0 79.948 32.848 A 27.5 27.5 0 0 0 79.5 32.9 Q 77.9 33.1 76.45 33.35 Q 75 33.6 73.85 33.9 A 33.843 33.843 0 0 0 73.316 34.044 Q 72.818 34.182 72.485 34.296 A 5.867 5.867 0 0 0 72.2 34.4 L 72.2 77.6 Z M 0 8.3 L 53.3 8.3 L 53.3 16.7 L 31.5 16.7 L 31.5 77.6 L 21.8 77.6 L 21.8 16.7 L 0 16.7 L 0 8.3 Z M 162.4 54.1 L 126.8 54.1 A 28.087 28.087 0 0 0 127.571 58.996 Q 128.745 63.578 131.5 66.4 Q 135.6 70.6 144.3 70.6 Q 148.052 70.6 150.895 70.102 A 22.597 22.597 0 0 0 152.55 69.75 Q 155.311 69.049 156.951 68.383 A 13.193 13.193 0 0 0 157.6 68.1 L 158.9 75.9 A 10.196 10.196 0 0 1 157.891 76.356 Q 156.713 76.822 154.887 77.314 A 62.819 62.819 0 0 1 152.95 77.8 Q 148.766 78.784 143.468 78.8 A 57.968 57.968 0 0 1 143.3 78.8 A 37.942 37.942 0 0 1 137.798 78.422 Q 134.373 77.919 131.55 76.75 Q 126.6 74.7 123.4 71.1 A 22.733 22.733 0 0 1 119.009 63.617 A 26.545 26.545 0 0 1 118.65 62.55 A 33.925 33.925 0 0 1 117.267 55.47 A 41.586 41.586 0 0 1 117.1 51.7 A 40.41 40.41 0 0 1 117.483 45.997 Q 117.929 42.87 118.895 40.198 A 24.764 24.764 0 0 1 119.1 39.65 A 28.388 28.388 0 0 1 121.508 34.804 A 22.452 22.452 0 0 1 124.4 31.1 Q 127.7 27.7 132 26 Q 136.3 24.3 140.8 24.3 A 26.866 26.866 0 0 1 147.371 25.056 A 17.964 17.964 0 0 1 156.9 30.85 A 20.38 20.38 0 0 1 160.577 37.449 Q 161.629 40.456 162.105 44.167 A 52.206 52.206 0 0 1 162.5 50.8 L 162.5 52.35 Q 162.5 53.3 162.4 54.1 Z M 127 46.6 L 152.8 46.6 Q 152.9 40.3 149.65 36.25 A 10.583 10.583 0 0 0 141.918 32.248 A 14.979 14.979 0 0 0 140.7 32.2 Q 137.5 32.2 135.05 33.45 Q 132.6 34.7 130.9 36.7 A 14.947 14.947 0 0 0 128.265 41.259 A 16.844 16.844 0 0 0 128.25 41.3 Q 127.3 43.9 127 46.6 Z"/></g></svg>