<?xml version="1.0" encoding="UTF-8" standalone="no"?>
<!-- Created with Inkscape (http://www.inkscape.org/) -->

<svg
   width="740.66455"
   height="172.03697"
   viewBox="0 0 740.66456 172.03697"
   version="1.1"
   id="svg1"
   xml:space="preserve"
   inkscape:version="1.3.2 (091e20e, 2023-11-25, custom)"
   sodipodi:docname="lemongrass_sign.svg"
   inkscape:export-filename="lemongrass_sign_nobg.png"
   inkscape:export-xdpi="96"
   inkscape:export-ydpi="96"
   xmlns:inkscape="http://www.inkscape.org/namespaces/inkscape"
   xmlns:sodipodi="http://sodipodi.sourceforge.net/DTD/sodipodi-0.dtd"
   xmlns:xlink="http://www.w3.org/1999/xlink"
   xmlns="http://www.w3.org/2000/svg"
   xmlns:svg="http://www.w3.org/2000/svg"><sodipodi:namedview
     id="namedview1"
     pagecolor="#9a9a9a"
     bordercolor="#eeeeee"
     borderopacity="1"
     inkscape:showpageshadow="0"
     inkscape:pageopacity="0"
     inkscape:pagecheckerboard="false"
     inkscape:deskcolor="#505050"
     inkscape:document-units="px"
     inkscape:zoom="0.94634147"
     inkscape:cx="347.12629"
     inkscape:cy="148.46649"
     inkscape:window-width="1366"
     inkscape:window-height="705"
     inkscape:window-x="-8"
     inkscape:window-y="-8"
     inkscape:window-maximized="1"
     inkscape:current-layer="layer1" /><defs
     id="defs1"><linearGradient
       id="linearGradient1"
       inkscape:collect="always"><stop
         style="stop-color:#fefefe;stop-opacity:0.31779662;"
         offset="0"
         id="stop1" /><stop
         style="stop-color:#fefefe;stop-opacity:0;"
         offset="1"
         id="stop2" /></linearGradient><radialGradient
       inkscape:collect="always"
       xlink:href="#linearGradient1"
       id="radialGradient2"
       cx="19428.8"
       cy="19428.8"
       fx="19428.8"
       fy="19428.8"
       r="19428.8"
       gradientUnits="userSpaceOnUse" /></defs><g
     inkscape:label="Layer 1"
     inkscape:groupmode="layer"
     id="layer1"
     transform="translate(57.333335,-131.24449)"><rect
       style="fill:#000000;fill-opacity:0;stroke:#000000;stroke-width:1.88976;stroke-opacity:0"
       id="rect2"
       width="740.66455"
       height="172.0368"
       x="-57.333336"
       y="131.24466" /><g
       id="g12"
       transform="matrix(0.00425569,0,0,-0.00425569,-57.333335,296.61056)"><path
         d="M 38857.6,0 H 0 V 38857.6 H 38857.6 V 0"
         style="fill:url(#radialGradient2);fill-opacity:0;fill-rule:evenodd;stroke:none"
         id="path14" /><path
         d="m 27644.6,22505.3 c 853.1,-1405.6 1344.1,-3062.7 1344.1,-4830.4 0,-5161.8 -4185.9,-9347.72 -9353.8,-9347.72 -5161.8,0 -9347.7,4185.92 -9347.7,9347.72 0,1976.3 607.6,3799.2 1651,5309.1 1307.3,-1025 2510.3,-2375.3 3602.8,-4038.6 -1331.8,2706.7 -2626.9,4431.4 -3885.1,5174.1 -1424,-1761.5 -2277.11,-4001.8 -2277.11,-6444.6 0,-5659 4591.01,-10256.1 10256.11,-10256.1 5665.1,0 10262.2,4597.1 10262.2,10256.1 0,2301.6 -761.1,4425.3 -2037.7,6137.7 -1043.4,-1061.8 -1945.7,-2584 -2706.7,-4560.3 1086.3,1669.4 1914.9,2755.8 2491.9,3253 v 0"
         style="fill:#1f5e2d;fill-opacity:1;fill-rule:evenodd;stroke:none"
         id="path16" /><path
         d="m 20040,11119.8 c -110.5,-853.1 -24.6,-1663.28 239.3,-2418.22 -270,-18.41 -540.1,-30.69 -810.1,-24.55 -98.2,761.08 -30.7,1693.97 208.6,2792.67 -239.3,-675.2 -398.9,-1528.3 -478.7,-2553.3 -159.6,920.66 -30.7,2258.7 380.5,4014.1 -576.9,-1644.9 -804,-3056.62 -693.5,-4228.92 -282.4,18.42 -570.8,49.1 -853.2,98.21 24.6,1350.31 435.8,2847.91 1233.7,4480.51 491,1166.2 748.8,2264.8 779.5,3302.1 178,-2068.4 171.9,-3891.3 -6.1,-5462.6 v 0"
         style="fill:#1f5e2d;fill-opacity:1;fill-rule:evenodd;stroke:none"
         id="path18" /><path
         d="m 22126.8,10180.8 c -491,2013.1 -613.8,3731.7 -374.4,5161.8 -1123.2,-2627 -1626.5,-4406.9 -1522.2,-5333.7 61.4,-454.18 165.8,-883.81 319.2,-1288.9 171.9,18.41 337.6,36.82 503.3,61.38 -239.4,1018.85 -196.4,2283.22 135,3780.82 -165.7,-1638.8 -110.5,-2860.17 178,-3670.35 -61.4,932.93 -24.5,1724.65 116.6,2363.05 -73.6,-939.1 -30.7,-1730.86 135.1,-2375.32 257.7,49.1 515.5,110.47 767.2,184.13 -61.4,355.99 -147.3,724.25 -257.8,1117.09 v 0"
         style="fill:#1f5e2d;fill-opacity:1;fill-rule:evenodd;stroke:none"
         id="path20" /><path
         d="m 20340.7,12108 c 435.8,1657.2 908.4,2829.5 1424,3523 1123.2,3277.6 2541,6690.1 4799.6,9587.1 -73.6,116.6 -190.2,221 -355.9,325.3 -1700.2,-2019.3 -3412.6,-5658.9 -4210.5,-8052.6 963.6,2915.4 2172.7,5806.2 4118.4,8384.1 1601.9,-939.1 3314.3,-3645.8 5149.5,-8107.9 -1546.7,4732.1 -3295.9,7678.2 -5253.9,8850.5 C 22838.8,23616.2 20942.2,15925.7 20340.7,12108 Z m 7076.8,14294.7 c 1546.7,-1534.4 2719,-3866.7 3523,-7009.2 -1135.5,3222.2 -2504.2,5530 -4106.1,6923.3 251.6,79.8 441.9,110.5 583.1,85.9 v 0"
         style="fill:#2b9d41;fill-opacity:1;fill-rule:evenodd;stroke:none"
         id="path22" /><path
         d="m 19315.7,13875.7 c 325.3,920.6 527.9,1939.5 601.5,3056.5 -276.2,4707.7 -2534.9,15074.2 -9458.2,15823 4388.5,-1454.6 7801,-7549.3 8371.8,-11416.1 -675.1,2890.9 -3001.3,6923.3 -5315.2,9010.1 -1436.2,-374.4 -2553.3,-1098.6 -3345,-2185 847,871.6 1902.6,1460.8 3173.1,1767.7 4394.6,-5290.7 6094.8,-9636.2 5972,-16056.2 v 0"
         style="fill:#2b9d41;fill-opacity:1;fill-rule:evenodd;stroke:none"
         id="path24" /><path
         d="m 19131.6,14655.2 c 12.3,1700.1 -61.4,2927.6 -214.8,3682.6 -834.8,2792.6 -2160.5,5665.1 -4406.9,7917.6 -2651.5,-988.2 -4683.06,-2406 -6088.6,-4247.3 2387.6,1933.4 4363.9,3160.9 5929,3676.5 1730.9,-2246.4 3455.5,-4904 4204.3,-7500.3 -914.5,2418.3 -2731.2,5088.2 -4431.4,7193.4 -171.8,-73.6 -356,-147.3 -546.2,-214.8 2676,-3498.5 4394.6,-6432.3 5554.6,-10507.7 z M 7206.04,21062.9 c 1798.35,2418.3 3946.56,4106.1 6444.56,5063.6 -92,128.9 -220.9,251.7 -398.9,374.4 -2982.9,-1288.9 -4996.11,-3099.5 -6045.66,-5438 v 0"
         style="fill:#2b9d41;fill-opacity:1;fill-rule:evenodd;stroke:none"
         id="path26" /><path
         d="m 21181.6,16840.2 c -196.4,-460.4 -472.6,-1718.6 -828.6,-3780.8 43,1810.6 -43,3068.8 -263.9,3780.8 1172.3,6567.3 3173.2,12551.6 10084.2,16670 -4848.8,-3854.5 -7960.6,-8623.5 -9040.8,-14098.3 969.7,3418.7 2823.3,7647.5 5622.1,10286.8 1430.1,-595.4 2909.3,-1859.8 4437.6,-3793.1 -1491.5,1503.7 -2927.7,2547.1 -4314.8,3130.2 -2903.2,-2989.1 -5204.8,-8402.5 -5695.8,-12195.6 v 0"
         style="fill:#2b9d41;fill-opacity:1;fill-rule:evenodd;stroke:none"
         id="path28" /><path
         d="m 20819.5,21093.6 c -128.9,-441.9 -356,-1497.6 -681.3,-3154.8 147.3,5376.6 -1117.1,10348.2 -5585.3,14515.7 3701,-2105.3 5566.9,-6377.1 5818.5,-10041.3 165.7,3203.9 -141.2,6389.3 30.7,8942.6 1215.3,-178 3375.7,-638.3 4155.2,-1338 -945.2,423.5 -2890.8,681.3 -3504.6,761.1 116.6,-2927.7 43,-6297.3 -233.2,-9685.3 z M 17370.1,28778 c 932.9,-2111.4 1503.7,-4081.6 1724.7,-5922.9 398.9,-1338 681.2,-2847.9 859.2,-4529.6 86,1356.4 -42.9,3001.3 -380.5,4947 -515.6,2277.1 -1245.9,4112.2 -2203.4,5505.5 z m 3909.7,-3866.8 c 1196.8,2418.3 2596.2,4186 4179.8,5290.7 -2025.5,-2050 -3467.8,-4701.4 -4321,-7954.4 110.5,1288.9 159.6,2178.9 141.2,2663.7 v 0"
         style="fill:#2b9d41;fill-opacity:1;fill-rule:evenodd;stroke:none"
         id="path30" /><path
         d="m 18744.9,12813.8 c 190.3,399 282.4,601.5 282.4,601.5 -865.5,3799.3 -2209.6,6727 -4026.4,8770.8 1718.6,-2798.8 2829.5,-6278.9 3332.8,-10427.9 178,509.4 263.9,767.2 263.9,767.2 -472.6,2633 -982,4597.1 -1534.4,5898.3 761.1,-1675.6 1319.6,-3547.6 1681.7,-5609.9 v 0"
         style="fill:#2b9d41;fill-opacity:1;fill-rule:evenodd;stroke:none"
         id="path32" /><path
         d="m 21862.9,15084.8 c 859.2,3001.3 2056.1,5364.3 3596.7,7101.3 -1675.6,-2737.4 -2774.3,-6119.3 -3296,-10139.5 -79.8,374.4 -141.2,742.7 -184.1,1098.7 441.9,2326.2 914.5,4081.5 1417.8,5278.4 -638.3,-1411.7 -1135.5,-2952.2 -1491.5,-4640.1 -36.8,454.2 -55.2,890 -42.9,1301.2 v 0"
         style="fill:#2b9d41;fill-opacity:1;fill-rule:evenodd;stroke:none"
         id="path34" /></g><text
       xml:space="preserve"
       style="font-size:88.916px;fill:#000000;fill-opacity:1;stroke:#000000;stroke-width:2.10037;stroke-opacity:0"
       x="98.636566"
       y="246.19257"
       id="text1"><tspan
         sodipodi:role="line"
         id="tspan1"
         x="98.636566"
         y="246.19257"
         style="font-style:normal;font-variant:normal;font-weight:normal;font-stretch:normal;font-size:88.916px;font-family:Sofia;-inkscape-font-specification:Sofia;fill:#000000;fill-opacity:1;stroke:#000000;stroke-width:2.10037;stroke-opacity:0">lemongrassgoa  </tspan></text></g></svg>
