<svg width="1000" height="1000" viewBox="0 0 1000 1000" fill="none" xmlns="http://www.w3.org/2000/svg">
<g clip-path="url(#clip0_2_3)">
<path fill-rule="evenodd" clip-rule="evenodd" d="M562.643 611.792C584.755 534.552 615.558 473.739 655.204 429.04C612.081 499.485 583.807 586.518 570.381 689.979C568.327 680.344 566.751 670.867 565.642 661.706C577.017 601.841 589.177 556.664 602.132 525.866C585.704 562.195 572.909 601.841 563.749 645.278C562.8 633.59 562.326 622.375 562.643 611.792Z" fill="#2B9D41"/>
<path fill-rule="evenodd" clip-rule="evenodd" d="M523.466 688.4C534.682 645.752 546.845 615.583 560.114 597.734C589.021 513.387 625.506 425.566 683.637 351.012C681.741 348.01 678.74 345.325 674.475 342.64C630.719 394.605 586.652 488.272 566.117 549.874C590.917 474.845 622.031 400.449 672.105 334.11C713.329 358.278 757.401 427.935 804.627 542.767C764.82 420.985 719.805 345.167 669.42 314.996C587.758 392.235 538.947 590.153 523.466 688.4ZM705.589 320.525C745.395 360.016 775.562 420.037 796.255 500.909C767.032 417.983 731.811 358.594 690.582 322.736C697.059 320.683 701.955 319.893 705.589 320.525Z" fill="#2B9D41"/>
<path fill-rule="evenodd" clip-rule="evenodd" d="M545.107 566.618C540.054 578.464 532.949 610.845 523.785 663.917C524.89 617.321 522.679 584.94 516.993 566.618C547.159 397.605 598.654 243.604 776.512 137.615C651.725 236.81 571.645 359.539 543.847 500.435C568.804 412.456 616.505 303.627 688.532 235.704C725.335 251.026 763.401 283.564 802.732 333.318C764.348 294.622 727.387 267.771 691.691 252.762C616.976 329.689 557.746 469.003 545.107 566.618Z" fill="#2B9D41"/>
<path fill-rule="evenodd" clip-rule="evenodd" d="M535.788 457.156C532.473 468.531 526.626 495.697 518.254 538.345C522.045 399.977 489.508 272.035 374.518 164.785C469.764 218.961 517.782 328.897 524.259 423.194C528.522 340.743 520.626 258.769 525.048 193.059C556.32 197.64 611.921 209.487 631.981 227.492C607.658 216.594 557.586 209.958 541.788 207.908C544.791 283.252 542.895 369.966 535.788 457.156ZM447.019 259.4C471.027 313.735 485.717 364.437 491.403 411.824C501.67 446.257 508.936 485.113 513.519 528.394C515.728 493.486 512.412 451.156 503.724 401.084C490.456 342.48 471.659 295.252 447.019 259.4ZM547.635 358.908C578.435 296.677 614.447 251.186 655.203 222.753C603.077 275.51 565.958 343.746 544.002 427.462C546.846 394.29 548.106 371.39 547.635 358.908Z" fill="#2B9D41"/>
<path fill-rule="evenodd" clip-rule="evenodd" d="M497.089 642.91C505.461 619.217 510.673 592.997 512.569 564.249C505.461 443.097 447.334 176.314 269.163 157.045C382.1 194.482 469.921 351.328 484.611 450.838C467.236 376.441 407.372 272.67 347.823 218.964C310.862 228.598 282.115 247.236 261.739 275.193C283.536 252.765 310.704 237.602 343.401 229.705C456.496 365.86 500.249 477.689 497.089 642.91Z" fill="#2B9D41"/>
<path fill-rule="evenodd" clip-rule="evenodd" d="M492.35 622.85C492.668 579.097 490.772 547.508 486.823 528.077C465.342 456.208 431.225 382.288 373.412 324.318C305.176 349.749 252.894 386.238 216.722 433.622C278.166 383.865 329.027 352.276 369.305 339.008C413.848 396.819 458.233 465.212 477.505 532.027C453.969 469.793 407.214 401.083 363.461 346.903C359.038 348.803 354.299 350.698 349.403 352.435C418.271 442.467 462.496 517.968 492.35 622.85ZM185.447 457.948C231.728 395.714 287.011 352.276 351.298 327.636C348.929 324.318 345.612 321.159 341.031 318C264.266 351.171 212.457 397.765 185.447 457.948Z" fill="#2B9D41"/>
<path fill-rule="evenodd" clip-rule="evenodd" d="M482.401 670.236C487.298 659.969 489.666 654.756 489.666 654.756C467.395 556.985 432.801 481.639 386.049 429.041C430.276 501.069 458.866 590.626 471.816 697.404C476.397 684.294 478.611 677.66 478.611 677.66C466.446 609.898 453.338 559.353 439.12 525.866C458.708 568.989 473.08 617.163 482.401 670.236Z" fill="#2B9D41"/>
<path fill-rule="evenodd" clip-rule="evenodd" d="M569.435 737.997C556.797 686.188 553.641 641.961 559.801 605.156C530.895 672.762 517.942 718.569 520.628 742.42C522.208 754.108 524.89 765.165 528.842 775.59C533.263 775.116 537.529 774.642 541.794 774.011C535.631 747.79 536.737 715.252 545.268 676.711C541.003 718.885 542.423 750.318 549.849 771.167C548.269 747.159 549.216 726.782 552.849 710.355C550.955 734.522 552.061 754.898 556.323 771.483C562.957 770.22 569.594 768.64 576.069 766.745C574.489 757.583 572.276 748.106 569.435 737.997Z" fill="#1F5E2D"/>
<path fill-rule="evenodd" clip-rule="evenodd" d="M515.728 713.831C512.885 735.787 515.098 756.637 521.889 776.065C514.937 776.539 507.99 776.855 501.039 776.697C498.512 757.111 500.248 733.102 506.408 704.828C500.248 722.203 496.143 744.158 494.088 770.537C489.983 746.844 493.3 712.409 503.882 667.234C489.035 709.567 483.189 745.896 486.032 776.065C478.767 775.591 471.342 774.801 464.077 773.538C464.708 738.788 475.293 700.247 495.826 658.23C508.463 628.22 515.098 599.945 515.885 573.252C520.467 626.482 520.31 673.394 515.728 713.831Z" fill="#1F5E2D"/>
<path fill-rule="evenodd" clip-rule="evenodd" d="M711.434 420.828C733.387 457 746.024 499.647 746.024 545.136C746.024 677.975 638.302 785.7 505.304 785.7C372.465 785.7 264.74 677.975 264.74 545.136C264.74 494.276 280.378 447.361 307.23 408.504C340.874 434.885 371.833 469.636 399.949 512.439C365.673 442.782 332.345 398.398 299.964 379.285C263.319 424.619 241.363 482.272 241.363 545.136C241.363 690.769 359.513 809.077 505.304 809.077C651.094 809.077 769.403 690.769 769.403 545.136C769.403 485.902 749.819 431.251 716.961 387.182C690.112 414.508 666.893 453.681 647.304 504.542C675.262 461.578 696.588 433.62 711.434 420.828Z" fill="#1F5E2D"/>
</g>
<defs>
<clipPath id="clip0_2_3">
<rect width="1000" height="1000" fill="white"/>
</clipPath>
</defs>
</svg>
