  0
SECTION
  2
HEADER
  9
$ACADVER
  1
AC1009
  9
$FILLMODE
 70
 0
  9
$SPLFRAME
 70
 1
  9
$EXTMIN
 10
0
 20
0
 30
0.0
  9
$EXTMAX
 10
41.6667
 20
41.6667
 30
0.0
  0
ENDSEC
  0
SECTION
  2
TABLES
  0
TABLE
  2
LAYER
 70
1
  0
LAYER
  2
0
 70
     0
 62
     7
  6
CONTINUOUS
  0
ENDTAB
  0
ENDSEC
  0
SECTION
  2
ENTITIES
  0
POLYLINE
  8
0
 62
     7
 66
     1
 10
0
 20
0
 30
0.0
 70
     1
 40
0
 41
0
  0
VERTEX
  8
0
 10
54.7622
 20
-54.7622
 30
0.0
 40
0
 41
0
  0
VERTEX
  8
0
 10
0.793349
 20
-54.7622
 30
0.0
 40
0
 41
0
  0
VERTEX
  8
0
 10
0.793349
 20
-0.793349
 30
0.0
 40
0
 41
0
  0
VERTEX
  8
0
 10
54.7622
 20
-0.793349
 30
0.0
 40
0
 41
0
  0
VERTEX
  8
0
 10
54.7622
 20
-54.7622
 30
0.0
 40
0
 41
0
  0
SEQEND
 8
0
  0
POLYLINE
  8
0
 62
     86
 66
     1
 10
0
 20
0
 30
0.0
 70
     1
 40
0
 41
0
  0
VERTEX
  8
0
 10
39.1886
 20
-23.505
 30
0.0
 40
0
 41
0
  0
VERTEX
  8
0
 10
39.2999
 20
-23.6882
 30
0.0
 40
0
 41
0
  0
VERTEX
  8
0
 10
39.609
 20
-24.2529
 30
0.0
 40
0
 41
0
  0
VERTEX
  8
0
 10
39.9801
 20
-25.0315
 30
0.0
 40
0
 41
0
  0
VERTEX
  8
0
 10
40.3
 20
-25.8382
 30
0.0
 40
0
 41
0
  0
VERTEX
  8
0
 10
40.5664
 20
-26.6707
 30
0.0
 40
0
 41
0
  0
VERTEX
  8
0
 10
40.7772
 20
-27.5268
 30
0.0
 40
0
 41
0
  0
VERTEX
  8
0
 10
40.9303
 20
-28.4043
 30
0.0
 40
0
 41
0
  0
VERTEX
  8
0
 10
41.0237
 20
-29.3007
 30
0.0
 40
0
 41
0
  0
VERTEX
  8
0
 10
41.0554
 20
-29.9854
 30
0.0
 40
0
 41
0
  0
VERTEX
  8
0
 10
41.0554
 20
-30.2137
 30
0.0
 40
0
 41
0
  0
VERTEX
  8
0
 10
41.0554
 20
-30.3807
 30
0.0
 40
0
 41
0
  0
VERTEX
  8
0
 10
41.0385
 20
-30.8817
 30
0.0
 40
0
 41
0
  0
VERTEX
  8
0
 10
40.9883
 20
-31.541
 30
0.0
 40
0
 41
0
  0
VERTEX
  8
0
 10
40.9058
 20
-32.1907
 30
0.0
 40
0
 41
0
  0
VERTEX
  8
0
 10
40.7917
 20
-32.8299
 30
0.0
 40
0
 41
0
  0
VERTEX
  8
0
 10
40.6465
 20
-33.4581
 30
0.0
 40
0
 41
0
  0
VERTEX
  8
0
 10
40.4715
 20
-34.074
 30
0.0
 40
0
 41
0
  0
VERTEX
  8
0
 10
40.2674
 20
-34.6772
 30
0.0
 40
0
 41
0
  0
VERTEX
  8
0
 10
40.0349
 20
-35.2668
 30
0.0
 40
0
 41
0
  0
VERTEX
  8
0
 10
39.7749
 20
-35.8419
 30
0.0
 40
0
 41
0
  0
VERTEX
  8
0
 10
39.4879
 20
-36.4017
 30
0.0
 40
0
 41
0
  0
VERTEX
  8
0
 10
39.1753
 20
-36.9454
 30
0.0
 40
0
 41
0
  0
VERTEX
  8
0
 10
38.8374
 20
-37.4721
 30
0.0
 40
0
 41
0
  0
VERTEX
  8
0
 10
38.4753
 20
-37.9811
 30
0.0
 40
0
 41
0
  0
VERTEX
  8
0
 10
38.0897
 20
-38.4717
 30
0.0
 40
0
 41
0
  0
VERTEX
  8
0
 10
37.6814
 20
-38.9428
 30
0.0
 40
0
 41
0
  0
VERTEX
  8
0
 10
37.2514
 20
-39.3936
 30
0.0
 40
0
 41
0
  0
VERTEX
  8
0
 10
36.8001
 20
-39.8236
 30
0.0
 40
0
 41
0
  0
VERTEX
  8
0
 10
36.3289
 20
-40.2317
 30
0.0
 40
0
 41
0
  0
VERTEX
  8
0
 10
35.8382
 20
-40.6171
 30
0.0
 40
0
 41
0
  0
VERTEX
  8
0
 10
35.3289
 20
-40.9792
 30
0.0
 40
0
 41
0
  0
VERTEX
  8
0
 10
34.8017
 20
-41.3168
 30
0.0
 40
0
 41
0
  0
VERTEX
  8
0
 10
34.2576
 20
-41.6294
 30
0.0
 40
0
 41
0
  0
VERTEX
  8
0
 10
33.6975
 20
-41.9162
 30
0.0
 40
0
 41
0
  0
VERTEX
  8
0
 10
33.1219
 20
-42.1762
 30
0.0
 40
0
 41
0
  0
VERTEX
  8
0
 10
32.5319
 20
-42.4087
 30
0.0
 40
0
 41
0
  0
VERTEX
  8
0
 10
31.9283
 20
-42.6129
 30
0.0
 40
0
 41
0
  0
VERTEX
  8
0
 10
31.3117
 20
-42.7879
 30
0.0
 40
0
 41
0
  0
VERTEX
  8
0
 10
30.6831
 20
-42.9329
 30
0.0
 40
0
 41
0
  0
VERTEX
  8
0
 10
30.0431
 20
-43.0471
 30
0.0
 40
0
 41
0
  0
VERTEX
  8
0
 10
29.3928
 20
-43.1297
 30
0.0
 40
0
 41
0
  0
VERTEX
  8
0
 10
28.7328
 20
-43.1799
 30
0.0
 40
0
 41
0
  0
VERTEX
  8
0
 10
28.2311
 20
-43.1967
 30
0.0
 40
0
 41
0
  0
VERTEX
  8
0
 10
28.064
 20
-43.1967
 30
0.0
 40
0
 41
0
  0
VERTEX
  8
0
 10
27.8969
 20
-43.1967
 30
0.0
 40
0
 41
0
  0
VERTEX
  8
0
 10
27.396
 20
-43.1799
 30
0.0
 40
0
 41
0
  0
VERTEX
  8
0
 10
26.7368
 20
-43.1297
 30
0.0
 40
0
 41
0
  0
VERTEX
  8
0
 10
26.0871
 20
-43.0471
 30
0.0
 40
0
 41
0
  0
VERTEX
  8
0
 10
25.4478
 20
-42.9329
 30
0.0
 40
0
 41
0
  0
VERTEX
  8
0
 10
24.8197
 20
-42.7879
 30
0.0
 40
0
 41
0
  0
VERTEX
  8
0
 10
24.2036
 20
-42.6129
 30
0.0
 40
0
 41
0
  0
VERTEX
  8
0
 10
23.6004
 20
-42.4087
 30
0.0
 40
0
 41
0
  0
VERTEX
  8
0
 10
23.011
 20
-42.1762
 30
0.0
 40
0
 41
0
  0
VERTEX
  8
0
 10
22.4358
 20
-41.9162
 30
0.0
 40
0
 41
0
  0
VERTEX
  8
0
 10
21.876
 20
-41.6294
 30
0.0
 40
0
 41
0
  0
VERTEX
  8
0
 10
21.3324
 20
-41.3168
 30
0.0
 40
0
 41
0
  0
VERTEX
  8
0
 10
20.8056
 20
-40.9792
 30
0.0
 40
0
 41
0
  0
VERTEX
  8
0
 10
20.2965
 20
-40.6171
 30
0.0
 40
0
 41
0
  0
VERTEX
  8
0
 10
19.8061
 20
-40.2317
 30
0.0
 40
0
 41
0
  0
VERTEX
  8
0
 10
19.335
 20
-39.8236
 30
0.0
 40
0
 41
0
  0
VERTEX
  8
0
 10
18.884
 20
-39.3936
 30
0.0
 40
0
 41
0
  0
VERTEX
  8
0
 10
18.4542
 20
-38.9428
 30
0.0
 40
0
 41
0
  0
VERTEX
  8
0
 10
18.0461
 20
-38.4717
 30
0.0
 40
0
 41
0
  0
VERTEX
  8
0
 10
17.6606
 20
-37.9811
 30
0.0
 40
0
 41
0
  0
VERTEX
  8
0
 10
17.2986
 20
-37.4721
 30
0.0
 40
0
 41
0
  0
VERTEX
  8
0
 10
16.9608
 20
-36.9454
 30
0.0
 40
0
 41
0
  0
VERTEX
  8
0
 10
16.6482
 20
-36.4017
 30
0.0
 40
0
 41
0
  0
VERTEX
  8
0
 10
16.3615
 20
-35.8419
 30
0.0
 40
0
 41
0
  0
VERTEX
  8
0
 10
16.1014
 20
-35.2668
 30
0.0
 40
0
 41
0
  0
VERTEX
  8
0
 10
15.869
 20
-34.6772
 30
0.0
 40
0
 41
0
  0
VERTEX
  8
0
 10
15.6649
 20
-34.074
 30
0.0
 40
0
 41
0
  0
VERTEX
  8
0
 10
15.4899
 20
-33.4581
 30
0.0
 40
0
 41
0
  0
VERTEX
  8
0
 10
15.3449
 20
-32.8299
 30
0.0
 40
0
 41
0
  0
VERTEX
  8
0
 10
15.2307
 20
-32.1907
 30
0.0
 40
0
 41
0
  0
VERTEX
  8
0
 10
15.1481
 20
-31.541
 30
0.0
 40
0
 41
0
  0
VERTEX
  8
0
 10
15.0979
 20
-30.8817
 30
0.0
 40
0
 41
0
  0
VERTEX
  8
0
 10
15.0811
 20
-30.3807
 30
0.0
 40
0
 41
0
  0
VERTEX
  8
0
 10
15.0811
 20
-30.2137
 30
0.0
 40
0
 41
0
  0
VERTEX
  8
0
 10
15.0811
 20
-30.0857
 30
0.0
 40
0
 41
0
  0
VERTEX
  8
0
 10
15.0908
 20
-29.7017
 30
0.0
 40
0
 41
0
  0
VERTEX
  8
0
 10
15.1201
 20
-29.1949
 30
0.0
 40
0
 41
0
  0
VERTEX
  8
0
 10
15.1685
 20
-28.6937
 30
0.0
 40
0
 41
0
  0
VERTEX
  8
0
 10
15.2356
 20
-28.1985
 30
0.0
 40
0
 41
0
  0
VERTEX
  8
0
 10
15.321
 20
-27.7096
 30
0.0
 40
0
 41
0
  0
VERTEX
  8
0
 10
15.4244
 20
-27.2274
 30
0.0
 40
0
 41
0
  0
VERTEX
  8
0
 10
15.5457
 20
-26.7519
 30
0.0
 40
0
 41
0
  0
VERTEX
  8
0
 10
15.6842
 20
-26.2839
 30
0.0
 40
0
 41
0
  0
VERTEX
  8
0
 10
15.8396
 20
-25.8235
 30
0.0
 40
0
 41
0
  0
VERTEX
  8
0
 10
16.0117
 20
-25.3708
 30
0.0
 40
0
 41
0
  0
VERTEX
  8
0
 10
16.2001
 20
-24.9265
 30
0.0
 40
0
 41
0
  0
VERTEX
  8
0
 10
16.4044
 20
-24.4908
 30
0.0
 40
0
 41
0
  0
VERTEX
  8
0
 10
16.6244
 20
-24.064
 30
0.0
 40
0
 41
0
  0
VERTEX
  8
0
 10
16.8596
 20
-23.6464
 30
0.0
 40
0
 41
0
  0
VERTEX
  8
0
 10
17.1096
 20
-23.2382
 30
0.0
 40
0
 41
0
  0
VERTEX
  8
0
 10
17.3063
 20
-22.9383
 30
0.0
 40
0
 41
0
  0
VERTEX
  8
0
 10
17.3742
 20
-22.84
 30
0.0
 40
0
 41
0
  0
VERTEX
  8
0
 10
17.5458
 20
-22.9746
 30
0.0
 40
0
 41
0
  0
VERTEX
  8
0
 10
18.0482
 20
-23.395
 30
0.0
 40
0
 41
0
  0
VERTEX
  8
0
 10
18.7086
 20
-23.9921
 30
0.0
 40
0
 41
0
  0
VERTEX
  8
0
 10
19.3553
 20
-24.6312
 30
0.0
 40
0
 41
0
  0
VERTEX
  8
0
 10
19.9881
 20
-25.3121
 30
0.0
 40
0
 41
0
  0
VERTEX
  8
0
 10
20.6067
 20
-26.0344
 30
0.0
 40
0
 41
0
  0
VERTEX
  8
0
 10
21.2114
 20
-26.7983
 30
0.0
 40
0
 41
0
  0
VERTEX
  8
0
 10
21.8018
 20
-27.6032
 30
0.0
 40
0
 41
0
  0
VERTEX
  8
0
 10
22.2376
 20
-28.2353
 30
0.0
 40
0
 41
0
  0
VERTEX
  8
0
 10
22.3781
 20
-28.4492
 30
0.0
 40
0
 41
0
  0
VERTEX
  8
0
 10
22.2929
 20
-28.2763
 30
0.0
 40
0
 41
0
  0
VERTEX
  8
0
 10
22.0318
 20
-27.7603
 30
0.0
 40
0
 41
0
  0
VERTEX
  8
0
 10
21.6868
 20
-27.1033
 30
0.0
 40
0
 41
0
  0
VERTEX
  8
0
 10
21.3429
 20
-26.4783
 30
0.0
 40
0
 41
0
  0
VERTEX
  8
0
 10
21.0003
 20
-25.8854
 30
0.0
 40
0
 41
0
  0
VERTEX
  8
0
 10
20.6589
 20
-25.3243
 30
0.0
 40
0
 41
0
  0
VERTEX
  8
0
 10
20.3186
 20
-24.7953
 30
0.0
 40
0
 41
0
  0
VERTEX
  8
0
 10
19.9796
 20
-24.2982
 30
0.0
 40
0
 41
0
  0
VERTEX
  8
0
 10
19.6417
 20
-23.8331
 30
0.0
 40
0
 41
0
  0
VERTEX
  8
0
 10
19.305
 20
-23.4
 30
0.0
 40
0
 41
0
  0
VERTEX
  8
0
 10
18.9696
 20
-22.9988
 30
0.0
 40
0
 41
0
  0
VERTEX
  8
0
 10
18.6353
 20
-22.6294
 30
0.0
 40
0
 41
0
  0
VERTEX
  8
0
 10
18.3022
 20
-22.2922
 30
0.0
 40
0
 41
0
  0
VERTEX
  8
0
 10
17.9704
 20
-21.9869
 30
0.0
 40
0
 41
0
  0
VERTEX
  8
0
 10
17.6397
 20
-21.7136
 30
0.0
 40
0
 41
0
  0
VERTEX
  8
0
 10
17.3103
 20
-21.4724
 30
0.0
 40
0
 41
0
  0
VERTEX
  8
0
 10
17.0658
 20
-21.3124
 30
0.0
 40
0
 41
0
  0
VERTEX
  8
0
 10
16.9821
 20
-21.2629
 30
0.0
 40
0
 41
0
  0
VERTEX
  8
0
 10
16.8893
 20
-21.3776
 30
0.0
 40
0
 41
0
  0
VERTEX
  8
0
 10
16.6206
 20
-21.7294
 30
0.0
 40
0
 41
0
  0
VERTEX
  8
0
 10
16.2783
 20
-22.2108
 30
0.0
 40
0
 41
0
  0
VERTEX
  8
0
 10
15.9558
 20
-22.7067
 30
0.0
 40
0
 41
0
  0
VERTEX
  8
0
 10
15.6535
 20
-23.2165
 30
0.0
 40
0
 41
0
  0
VERTEX
  8
0
 10
15.3722
 20
-23.7397
 30
0.0
 40
0
 41
0
  0
VERTEX
  8
0
 10
15.1122
 20
-24.2756
 30
0.0
 40
0
 41
0
  0
VERTEX
  8
0
 10
14.8743
 20
-24.8238
 30
0.0
 40
0
 41
0
  0
VERTEX
  8
0
 10
14.659
 20
-25.3835
 30
0.0
 40
0
 41
0
  0
VERTEX
  8
0
 10
14.4669
 20
-25.9543
 30
0.0
 40
0
 41
0
  0
VERTEX
  8
0
 10
14.2986
 20
-26.5357
 30
0.0
 40
0
 41
0
  0
VERTEX
  8
0
 10
14.1546
 20
-27.1271
 30
0.0
 40
0
 41
0
  0
VERTEX
  8
0
 10
14.0354
 20
-27.7279
 30
0.0
 40
0
 41
0
  0
VERTEX
  8
0
 10
13.9418
 20
-28.3375
 30
0.0
 40
0
 41
0
  0
VERTEX
  8
0
 10
13.8742
 20
-28.9554
 30
0.0
 40
0
 41
0
  0
VERTEX
  8
0
 10
13.8332
 20
-29.581
 30
0.0
 40
0
 41
0
  0
VERTEX
  8
0
 10
13.8194
 20
-30.0556
 30
0.0
 40
0
 41
0
  0
VERTEX
  8
0
 10
13.8194
 20
-30.2137
 30
0.0
 40
0
 41
0
  0
VERTEX
  8
0
 10
13.8194
 20
-30.3968
 30
0.0
 40
0
 41
0
  0
VERTEX
  8
0
 10
13.8379
 20
-30.9461
 30
0.0
 40
0
 41
0
  0
VERTEX
  8
0
 10
13.8929
 20
-31.6689
 30
0.0
 40
0
 41
0
  0
VERTEX
  8
0
 10
13.9835
 20
-32.3814
 30
0.0
 40
0
 41
0
  0
VERTEX
  8
0
 10
14.1088
 20
-33.0824
 30
0.0
 40
0
 41
0
  0
VERTEX
  8
0
 10
14.2678
 20
-33.7713
 30
0.0
 40
0
 41
0
  0
VERTEX
  8
0
 10
14.4597
 20
-34.4469
 30
0.0
 40
0
 41
0
  0
VERTEX
  8
0
 10
14.6836
 20
-35.1085
 30
0.0
 40
0
 41
0
  0
VERTEX
  8
0
 10
14.9386
 20
-35.7553
 30
0.0
 40
0
 41
0
  0
VERTEX
  8
0
 10
15.2239
 20
-36.3861
 30
0.0
 40
0
 41
0
  0
VERTEX
  8
0
 10
15.5385
 20
-37.0003
 30
0.0
 40
0
 41
0
  0
VERTEX
  8
0
 10
15.8814
 20
-37.5968
 30
0.0
 40
0
 41
0
  0
VERTEX
  8
0
 10
16.2518
 20
-38.1747
 30
0.0
 40
0
 41
0
  0
VERTEX
  8
0
 10
16.649
 20
-38.7333
 30
0.0
 40
0
 41
0
  0
VERTEX
  8
0
 10
17.0718
 20
-39.2715
 30
0.0
 40
0
 41
0
  0
VERTEX
  8
0
 10
17.5194
 20
-39.7885
 30
0.0
 40
0
 41
0
  0
VERTEX
  8
0
 10
17.9911
 20
-40.2833
 30
0.0
 40
0
 41
0
  0
VERTEX
  8
0
 10
18.4858
 20
-40.7553
 30
0.0
 40
0
 41
0
  0
VERTEX
  8
0
 10
19.0026
 20
-41.2032
 30
0.0
 40
0
 41
0
  0
VERTEX
  8
0
 10
19.5407
 20
-41.6263
 30
0.0
 40
0
 41
0
  0
VERTEX
  8
0
 10
20.0992
 20
-42.0236
 30
0.0
 40
0
 41
0
  0
VERTEX
  8
0
 10
20.6771
 20
-42.3943
 30
0.0
 40
0
 41
0
  0
VERTEX
  8
0
 10
21.2736
 20
-42.7376
 30
0.0
 40
0
 41
0
  0
VERTEX
  8
0
 10
21.8879
 20
-43.0524
 30
0.0
 40
0
 41
0
  0
VERTEX
  8
0
 10
22.5189
 20
-43.3378
 30
0.0
 40
0
 41
0
  0
VERTEX
  8
0
 10
23.1657
 20
-43.5931
 30
0.0
 40
0
 41
0
  0
VERTEX
  8
0
 10
23.8276
 20
-43.8172
 30
0.0
 40
0
 41
0
  0
VERTEX
  8
0
 10
24.5038
 20
-44.0094
 30
0.0
 40
0
 41
0
  0
VERTEX
  8
0
 10
25.1929
 20
-44.1686
 30
0.0
 40
0
 41
0
  0
VERTEX
  8
0
 10
25.8944
 20
-44.294
 30
0.0
 40
0
 41
0
  0
VERTEX
  8
0
 10
26.6074
 20
-44.3847
 30
0.0
 40
0
 41
0
  0
VERTEX
  8
0
 10
27.3308
 20
-44.4397
 30
0.0
 40
0
 41
0
  0
VERTEX
  8
0
 10
27.8807
 20
-44.4583
 30
0.0
 40
0
 41
0
  0
VERTEX
  8
0
 10
28.064
 20
-44.4583
 30
0.0
 40
0
 41
0
  0
VERTEX
  8
0
 10
28.2472
 20
-44.4583
 30
0.0
 40
0
 41
0
  0
VERTEX
  8
0
 10
28.7971
 20
-44.4397
 30
0.0
 40
0
 41
0
  0
VERTEX
  8
0
 10
29.5207
 20
-44.3847
 30
0.0
 40
0
 41
0
  0
VERTEX
  8
0
 10
30.2338
 20
-44.294
 30
0.0
 40
0
 41
0
  0
VERTEX
  8
0
 10
30.9354
 20
-44.1686
 30
0.0
 40
0
 41
0
  0
VERTEX
  8
0
 10
31.6249
 20
-44.0094
 30
0.0
 40
0
 41
0
  0
VERTEX
  8
0
 10
32.3011
 20
-43.8172
 30
0.0
 40
0
 41
0
  0
VERTEX
  8
0
 10
32.9632
 20
-43.5931
 30
0.0
 40
0
 41
0
  0
VERTEX
  8
0
 10
33.6104
 20
-43.3378
 30
0.0
 40
0
 41
0
  0
VERTEX
  8
0
 10
34.2418
 20
-43.0524
 30
0.0
 40
0
 41
0
  0
VERTEX
  8
0
 10
34.8562
 20
-42.7376
 30
0.0
 40
0
 41
0
  0
VERTEX
  8
0
 10
35.4532
 20
-42.3943
 30
0.0
 40
0
 41
0
  0
VERTEX
  8
0
 10
36.0315
 20
-42.0236
 30
0.0
 40
0
 41
0
  0
VERTEX
  8
0
 10
36.5903
 20
-41.6263
 30
0.0
 40
0
 41
0
  0
VERTEX
  8
0
 10
37.1288
 20
-41.2032
 30
0.0
 40
0
 41
0
  0
VERTEX
  8
0
 10
37.646
 20
-40.7553
 30
0.0
 40
0
 41
0
  0
VERTEX
  8
0
 10
38.1411
 20
-40.2833
 30
0.0
 40
0
 41
0
  0
VERTEX
  8
0
 10
38.6131
 20
-39.7885
 30
0.0
 40
0
 41
0
  0
VERTEX
  8
0
 10
39.0612
 20
-39.2715
 30
0.0
 40
0
 41
0
  0
VERTEX
  8
0
 10
39.4844
 20
-38.7333
 30
0.0
 40
0
 41
0
  0
VERTEX
  8
0
 10
39.8819
 20
-38.1747
 30
0.0
 40
0
 41
0
  0
VERTEX
  8
0
 10
40.2528
 20
-37.5968
 30
0.0
 40
0
 41
0
  0
VERTEX
  8
0
 10
40.5961
 20
-37.0003
 30
0.0
 40
0
 41
0
  0
VERTEX
  8
0
 10
40.911
 20
-36.3861
 30
0.0
 40
0
 41
0
  0
VERTEX
  8
0
 10
41.1965
 20
-35.7553
 30
0.0
 40
0
 41
0
  0
VERTEX
  8
0
 10
41.4518
 20
-35.1085
 30
0.0
 40
0
 41
0
  0
VERTEX
  8
0
 10
41.676
 20
-34.4469
 30
0.0
 40
0
 41
0
  0
VERTEX
  8
0
 10
41.8681
 20
-33.7713
 30
0.0
 40
0
 41
0
  0
VERTEX
  8
0
 10
42.0274
 20
-33.0824
 30
0.0
 40
0
 41
0
  0
VERTEX
  8
0
 10
42.1528
 20
-32.3814
 30
0.0
 40
0
 41
0
  0
VERTEX
  8
0
 10
42.2435
 20
-31.6689
 30
0.0
 40
0
 41
0
  0
VERTEX
  8
0
 10
42.2985
 20
-30.9461
 30
0.0
 40
0
 41
0
  0
VERTEX
  8
0
 10
42.3171
 20
-30.3968
 30
0.0
 40
0
 41
0
  0
VERTEX
  8
0
 10
42.3171
 20
-30.2137
 30
0.0
 40
0
 41
0
  0
VERTEX
  8
0
 10
42.3171
 20
-30.0646
 30
0.0
 40
0
 41
0
  0
VERTEX
  8
0
 10
42.3049
 20
-29.6174
 30
0.0
 40
0
 41
0
  0
VERTEX
  8
0
 10
42.2682
 20
-29.0272
 30
0.0
 40
0
 41
0
  0
VERTEX
  8
0
 10
42.2078
 20
-28.4437
 30
0.0
 40
0
 41
0
  0
VERTEX
  8
0
 10
42.1242
 20
-27.8676
 30
0.0
 40
0
 41
0
  0
VERTEX
  8
0
 10
42.0178
 20
-27.2992
 30
0.0
 40
0
 41
0
  0
VERTEX
  8
0
 10
41.8892
 20
-26.7389
 30
0.0
 40
0
 41
0
  0
VERTEX
  8
0
 10
41.7386
 20
-26.1871
 30
0.0
 40
0
 41
0
  0
VERTEX
  8
0
 10
41.5669
 20
-25.6446
 30
0.0
 40
0
 41
0
  0
VERTEX
  8
0
 10
41.3744
 20
-25.1117
 30
0.0
 40
0
 41
0
  0
VERTEX
  8
0
 10
41.1615
 20
-24.5888
 30
0.0
 40
0
 41
0
  0
VERTEX
  8
0
 10
40.929
 20
-24.0764
 30
0.0
 40
0
 41
0
  0
VERTEX
  8
0
 10
40.6771
 20
-23.575
 30
0.0
 40
0
 41
0
  0
VERTEX
  8
0
 10
40.4065
 20
-23.0851
 30
0.0
 40
0
 41
0
  0
VERTEX
  8
0
 10
40.1175
 20
-22.6072
 30
0.0
 40
0
 41
0
  0
VERTEX
  8
0
 10
39.8108
 20
-22.1417
 30
0.0
 40
0
 41
0
  0
VERTEX
  8
0
 10
39.57
 20
-21.8007
 30
0.0
 40
0
 41
0
  0
VERTEX
  8
0
 10
39.4869
 20
-21.6892
 30
0.0
 40
0
 41
0
  0
VERTEX
  8
0
 10
39.3485
 20
-21.8301
 30
0.0
 40
0
 41
0
  0
VERTEX
  8
0
 10
38.9526
 20
-22.2721
 30
0.0
 40
0
 41
0
  0
VERTEX
  8
0
 10
38.4368
 20
-22.915
 30
0.0
 40
0
 41
0
  0
VERTEX
  8
0
 10
37.9393
 20
-23.6175
 30
0.0
 40
0
 41
0
  0
VERTEX
  8
0
 10
37.4601
 20
-24.3797
 30
0.0
 40
0
 41
0
  0
VERTEX
  8
0
 10
36.9994
 20
-25.2015
 30
0.0
 40
0
 41
0
  0
VERTEX
  8
0
 10
36.5571
 20
-26.0826
 30
0.0
 40
0
 41
0
  0
VERTEX
  8
0
 10
36.1332
 20
-27.0232
 30
0.0
 40
0
 41
0
  0
VERTEX
  8
0
 10
35.8244
 20
-27.7713
 30
0.0
 40
0
 41
0
  0
VERTEX
  8
0
 10
35.7276
 20
-28.0229
 30
0.0
 40
0
 41
0
  0
VERTEX
  8
0
 10
35.8635
 20
-27.8142
 30
0.0
 40
0
 41
0
  0
VERTEX
  8
0
 10
36.2767
 20
-27.1914
 30
0.0
 40
0
 41
0
  0
VERTEX
  8
0
 10
36.7922
 20
-26.4358
 30
0.0
 40
0
 41
0
  0
VERTEX
  8
0
 10
37.2744
 20
-25.7565
 30
0.0
 40
0
 41
0
  0
VERTEX
  8
0
 10
37.7233
 20
-25.1533
 30
0.0
 40
0
 41
0
  0
VERTEX
  8
0
 10
38.1392
 20
-24.6265
 30
0.0
 40
0
 41
0
  0
VERTEX
  8
0
 10
38.5219
 20
-24.1761
 30
0.0
 40
0
 41
0
  0
VERTEX
  8
0
 10
38.8717
 20
-23.8022
 30
0.0
 40
0
 41
0
  0
VERTEX
  8
0
 10
39.1064
 20
-23.5757
 30
0.0
 40
0
 41
0
  0
VERTEX
  8
0
 10
39.1886
 20
-23.505
 30
0.0
 40
0
 41
0
  0
VERTEX
  8
0
 10
39.1886
 20
-23.505
 30
0.0
 40
0
 41
0
  0
SEQEND
 8
0
  0
POLYLINE
  8
0
 62
     86
 66
     1
 10
0
 20
0
 30
0.0
 70
     1
 40
0
 41
0
  0
VERTEX
  8
0
 10
28.6267
 20
-39.3181
 30
0.0
 40
0
 41
0
  0
VERTEX
  8
0
 10
28.6124
 20
-39.4281
 30
0.0
 40
0
 41
0
  0
VERTEX
  8
0
 10
28.5818
 20
-39.7594
 30
0.0
 40
0
 41
0
  0
VERTEX
  8
0
 10
28.5622
 20
-40.1953
 30
0.0
 40
0
 41
0
  0
VERTEX
  8
0
 10
28.5678
 20
-40.625
 30
0.0
 40
0
 41
0
  0
VERTEX
  8
0
 10
28.5978
 20
-41.0485
 30
0.0
 40
0
 41
0
  0
VERTEX
  8
0
 10
28.6524
 20
-41.4656
 30
0.0
 40
0
 41
0
  0
VERTEX
  8
0
 10
28.731
 20
-41.8763
 30
0.0
 40
0
 41
0
  0
VERTEX
  8
0
 10
28.8332
 20
-42.28
 30
0.0
 40
0
 41
0
  0
VERTEX
  8
0
 10
28.9247
 20
-42.5785
 30
0.0
 40
0
 41
0
  0
VERTEX
  8
0
 10
28.959
 20
-42.6767
 30
0.0
 40
0
 41
0
  0
VERTEX
  8
0
 10
28.8653
 20
-42.6831
 30
0.0
 40
0
 41
0
  0
VERTEX
  8
0
 10
28.3964
 20
-42.7065
 30
0.0
 40
0
 41
0
  0
VERTEX
  8
0
 10
27.9276
 20
-42.7129
 30
0.0
 40
0
 41
0
  0
VERTEX
  8
0
 10
27.8339
 20
-42.7108
 30
0.0
 40
0
 41
0
  0
VERTEX
  8
0
 10
27.8207
 20
-42.6093
 30
0.0
 40
0
 41
0
  0
VERTEX
  8
0
 10
27.7935
 20
-42.3032
 30
0.0
 40
0
 41
0
  0
VERTEX
  8
0
 10
27.7749
 20
-41.8733
 30
0.0
 40
0
 41
0
  0
VERTEX
  8
0
 10
27.7779
 20
-41.4214
 30
0.0
 40
0
 41
0
  0
VERTEX
  8
0
 10
27.8029
 20
-40.9472
 30
0.0
 40
0
 41
0
  0
VERTEX
  8
0
 10
27.8499
 20
-40.4511
 30
0.0
 40
0
 41
0
  0
VERTEX
  8
0
 10
27.9189
 20
-39.9332
 30
0.0
 40
0
 41
0
  0
VERTEX
  8
0
 10
28.0101
 20
-39.3935
 30
0.0
 40
0
 41
0
  0
VERTEX
  8
0
 10
28.0932
 20
-38.9719
 30
0.0
 40
0
 41
0
  0
VERTEX
  8
0
 10
28.1236
 20
-38.8321
 30
0.0
 40
0
 41
0
  0
VERTEX
  8
0
 10
28.0917
 20
-38.9222
 30
0.0
 40
0
 41
0
  0
VERTEX
  8
0
 10
28.0042
 20
-39.1953
 30
0.0
 40
0
 41
0
  0
VERTEX
  8
0
 10
27.8951
 20
-39.5817
 30
0.0
 40
0
 41
0
  0
VERTEX
  8
0
 10
27.7964
 20
-39.9908
 30
0.0
 40
0
 41
0
  0
VERTEX
  8
0
 10
27.7081
 20
-40.4231
 30
0.0
 40
0
 41
0
  0
VERTEX
  8
0
 10
27.6301
 20
-40.8779
 30
0.0
 40
0
 41
0
  0
VERTEX
  8
0
 10
27.5626
 20
-41.3556
 30
0.0
 40
0
 41
0
  0
VERTEX
  8
0
 10
27.5054
 20
-41.8557
 30
0.0
 40
0
 41
0
  0
VERTEX
  8
0
 10
27.4689
 20
-42.2475
 30
0.0
 40
0
 41
0
  0
VERTEX
  8
0
 10
27.4588
 20
-42.3783
 30
0.0
 40
0
 41
0
  0
VERTEX
  8
0
 10
27.4369
 20
-42.2526
 30
0.0
 40
0
 41
0
  0
VERTEX
  8
0
 10
27.3943
 20
-41.8717
 30
0.0
 40
0
 41
0
  0
VERTEX
  8
0
 10
27.3675
 20
-41.3106
 30
0.0
 40
0
 41
0
  0
VERTEX
  8
0
 10
27.3779
 20
-40.6953
 30
0.0
 40
0
 41
0
  0
VERTEX
  8
0
 10
27.4257
 20
-40.0256
 30
0.0
 40
0
 41
0
  0
VERTEX
  8
0
 10
27.5106
 20
-39.3015
 30
0.0
 40
0
 41
0
  0
VERTEX
  8
0
 10
27.6325
 20
-38.5231
 30
0.0
 40
0
 41
0
  0
VERTEX
  8
0
 10
27.7914
 20
-37.6903
 30
0.0
 40
0
 41
0
  0
VERTEX
  8
0
 10
27.9354
 20
-37.0243
 30
0.0
 40
0
 41
0
  0
VERTEX
  8
0
 10
27.9872
 20
-36.8033
 30
0.0
 40
0
 41
0
  0
VERTEX
  8
0
 10
27.9139
 20
-37.0122
 30
0.0
 40
0
 41
0
  0
VERTEX
  8
0
 10
27.7094
 20
-37.6447
 30
0.0
 40
0
 41
0
  0
VERTEX
  8
0
 10
27.4771
 20
-38.4558
 30
0.0
 40
0
 41
0
  0
VERTEX
  8
0
 10
27.2899
 20
-39.2363
 30
0.0
 40
0
 41
0
  0
VERTEX
  8
0
 10
27.1476
 20
-39.9861
 30
0.0
 40
0
 41
0
  0
VERTEX
  8
0
 10
27.05
 20
-40.7051
 30
0.0
 40
0
 41
0
  0
VERTEX
  8
0
 10
26.9971
 20
-41.3933
 30
0.0
 40
0
 41
0
  0
VERTEX
  8
0
 10
26.9885
 20
-42.0506
 30
0.0
 40
0
 41
0
  0
VERTEX
  8
0
 10
27.0093
 20
-42.5207
 30
0.0
 40
0
 41
0
  0
VERTEX
  8
0
 10
27.024
 20
-42.6767
 30
0.0
 40
0
 41
0
  0
VERTEX
  8
0
 10
26.926
 20
-42.6703
 30
0.0
 40
0
 41
0
  0
VERTEX
  8
0
 10
26.4315
 20
-42.6244
 30
0.0
 40
0
 41
0
  0
VERTEX
  8
0
 10
25.9371
 20
-42.5574
 30
0.0
 40
0
 41
0
  0
VERTEX
  8
0
 10
25.839
 20
-42.5403
 30
0.0
 40
0
 41
0
  0
VERTEX
  8
0
 10
25.8422
 20
-42.3619
 30
0.0
 40
0
 41
0
  0
VERTEX
  8
0
 10
25.8769
 20
-41.8274
 30
0.0
 40
0
 41
0
  0
VERTEX
  8
0
 10
25.9653
 20
-41.0957
 30
0.0
 40
0
 41
0
  0
VERTEX
  8
0
 10
26.1039
 20
-40.345
 30
0.0
 40
0
 41
0
  0
VERTEX
  8
0
 10
26.2929
 20
-39.5758
 30
0.0
 40
0
 41
0
  0
VERTEX
  8
0
 10
26.5324
 20
-38.7883
 30
0.0
 40
0
 41
0
  0
VERTEX
  8
0
 10
26.8221
 20
-37.9826
 30
0.0
 40
0
 41
0
  0
VERTEX
  8
0
 10
27.1621
 20
-37.1589
 30
0.0
 40
0
 41
0
  0
VERTEX
  8
0
 10
27.4507
 20
-36.5257
 30
0.0
 40
0
 41
0
  0
VERTEX
  8
0
 10
27.5525
 20
-36.3174
 30
0.0
 40
0
 41
0
  0
VERTEX
  8
0
 10
27.6154
 20
-36.1678
 30
0.0
 40
0
 41
0
  0
VERTEX
  8
0
 10
27.7931
 20
-35.7143
 30
0.0
 40
0
 41
0
  0
VERTEX
  8
0
 10
28.0033
 20
-35.12
 30
0.0
 40
0
 41
0
  0
VERTEX
  8
0
 10
28.1835
 20
-34.5343
 30
0.0
 40
0
 41
0
  0
VERTEX
  8
0
 10
28.3336
 20
-33.9571
 30
0.0
 40
0
 41
0
  0
VERTEX
  8
0
 10
28.4536
 20
-33.3882
 30
0.0
 40
0
 41
0
  0
VERTEX
  8
0
 10
28.5439
 20
-32.8276
 30
0.0
 40
0
 41
0
  0
VERTEX
  8
0
 10
28.6043
 20
-32.2753
 30
0.0
 40
0
 41
0
  0
VERTEX
  8
0
 10
28.6311
 20
-31.8672
 30
0.0
 40
0
 41
0
  0
VERTEX
  8
0
 10
28.6351
 20
-31.7311
 30
0.0
 40
0
 41
0
  0
VERTEX
  8
0
 10
28.6579
 20
-31.9962
 30
0.0
 40
0
 41
0
  0
VERTEX
  8
0
 10
28.7158
 20
-32.7924
 30
0.0
 40
0
 41
0
  0
VERTEX
  8
0
 10
28.7728
 20
-33.8217
 30
0.0
 40
0
 41
0
  0
VERTEX
  8
0
 10
28.8063
 20
-34.8187
 30
0.0
 40
0
 41
0
  0
VERTEX
  8
0
 10
28.8163
 20
-35.7835
 30
0.0
 40
0
 41
0
  0
VERTEX
  8
0
 10
28.8031
 20
-36.716
 30
0.0
 40
0
 41
0
  0
VERTEX
  8
0
 10
28.7669
 20
-37.6158
 30
0.0
 40
0
 41
0
  0
VERTEX
  8
0
 10
28.7081
 20
-38.4833
 30
0.0
 40
0
 41
0
  0
VERTEX
  8
0
 10
28.6501
 20
-39.1097
 30
0.0
 40
0
 41
0
  0
VERTEX
  8
0
 10
28.6267
 20
-39.3181
 30
0.0
 40
0
 41
0
  0
VERTEX
  8
0
 10
28.6267
 20
-39.3181
 30
0.0
 40
0
 41
0
  0
SEQEND
 8
0
  0
POLYLINE
  8
0
 62
     86
 66
     1
 10
0
 20
0
 30
0.0
 70
     1
 40
0
 41
0
  0
VERTEX
  8
0
 10
31.525
 20
-40.6222
 30
0.0
 40
0
 41
0
  0
VERTEX
  8
0
 10
31.4625
 20
-40.3661
 30
0.0
 40
0
 41
0
  0
VERTEX
  8
0
 10
31.2932
 20
-39.5929
 30
0.0
 40
0
 41
0
  0
VERTEX
  8
0
 10
31.1092
 20
-38.6018
 30
0.0
 40
0
 41
0
  0
VERTEX
  8
0
 10
30.9731
 20
-37.6489
 30
0.0
 40
0
 41
0
  0
VERTEX
  8
0
 10
30.8846
 20
-36.734
 30
0.0
 40
0
 41
0
  0
VERTEX
  8
0
 10
30.8436
 20
-35.8571
 30
0.0
 40
0
 41
0
  0
VERTEX
  8
0
 10
30.85
 20
-35.0181
 30
0.0
 40
0
 41
0
  0
VERTEX
  8
0
 10
30.9039
 20
-34.2168
 30
0.0
 40
0
 41
0
  0
VERTEX
  8
0
 10
30.9732
 20
-33.6429
 30
0.0
 40
0
 41
0
  0
VERTEX
  8
0
 10
31.005
 20
-33.4532
 30
0.0
 40
0
 41
0
  0
VERTEX
  8
0
 10
30.9335
 20
-33.6203
 30
0.0
 40
0
 41
0
  0
VERTEX
  8
0
 10
30.7225
 20
-34.1235
 30
0.0
 40
0
 41
0
  0
VERTEX
  8
0
 10
30.4603
 20
-34.7661
 30
0.0
 40
0
 41
0
  0
VERTEX
  8
0
 10
30.2182
 20
-35.3812
 30
0.0
 40
0
 41
0
  0
VERTEX
  8
0
 10
29.9961
 20
-35.9688
 30
0.0
 40
0
 41
0
  0
VERTEX
  8
0
 10
29.7942
 20
-36.5286
 30
0.0
 40
0
 41
0
  0
VERTEX
  8
0
 10
29.6124
 20
-37.061
 30
0.0
 40
0
 41
0
  0
VERTEX
  8
0
 10
29.4504
 20
-37.5656
 30
0.0
 40
0
 41
0
  0
VERTEX
  8
0
 10
29.3086
 20
-38.0425
 30
0.0
 40
0
 41
0
  0
VERTEX
  8
0
 10
29.1867
 20
-38.4918
 30
0.0
 40
0
 41
0
  0
VERTEX
  8
0
 10
29.0849
 20
-38.9133
 30
0.0
 40
0
 41
0
  0
VERTEX
  8
0
 10
29.0028
 20
-39.3074
 30
0.0
 40
0
 41
0
  0
VERTEX
  8
0
 10
28.9407
 20
-39.6735
 30
0.0
 40
0
 41
0
  0
VERTEX
  8
0
 10
28.8985
 20
-40.0119
 30
0.0
 40
0
 41
0
  0
VERTEX
  8
0
 10
28.8761
 20
-40.3226
 30
0.0
 40
0
 41
0
  0
VERTEX
  8
0
 10
28.8736
 20
-40.6057
 30
0.0
 40
0
 41
0
  0
VERTEX
  8
0
 10
28.8837
 20
-40.7974
 30
0.0
 40
0
 41
0
  0
VERTEX
  8
0
 10
28.8908
 20
-40.861
 30
0.0
 40
0
 41
0
  0
VERTEX
  8
0
 10
28.9067
 20
-40.9779
 30
0.0
 40
0
 41
0
  0
VERTEX
  8
0
 10
28.9661
 20
-41.3276
 30
0.0
 40
0
 41
0
  0
VERTEX
  8
0
 10
29.0646
 20
-41.7815
 30
0.0
 40
0
 41
0
  0
VERTEX
  8
0
 10
29.1869
 20
-42.2228
 30
0.0
 40
0
 41
0
  0
VERTEX
  8
0
 10
29.294
 20
-42.5453
 30
0.0
 40
0
 41
0
  0
VERTEX
  8
0
 10
29.3342
 20
-42.6511
 30
0.0
 40
0
 41
0
  0
VERTEX
  8
0
 10
29.3939
 20
-42.6447
 30
0.0
 40
0
 41
0
  0
VERTEX
  8
0
 10
29.9756
 20
-42.5744
 30
0.0
 40
0
 41
0
  0
VERTEX
  8
0
 10
30.0332
 20
-42.5658
 30
0.0
 40
0
 41
0
  0
VERTEX
  8
0
 10
30.0013
 20
-42.4304
 30
0.0
 40
0
 41
0
  0
VERTEX
  8
0
 10
29.9268
 20
-42.0193
 30
0.0
 40
0
 41
0
  0
VERTEX
  8
0
 10
29.8575
 20
-41.4408
 30
0.0
 40
0
 41
0
  0
VERTEX
  8
0
 10
29.825
 20
-40.831
 30
0.0
 40
0
 41
0
  0
VERTEX
  8
0
 10
29.8296
 20
-40.1896
 30
0.0
 40
0
 41
0
  0
VERTEX
  8
0
 10
29.8714
 20
-39.5171
 30
0.0
 40
0
 41
0
  0
VERTEX
  8
0
 10
29.9504
 20
-38.8138
 30
0.0
 40
0
 41
0
  0
VERTEX
  8
0
 10
30.0668
 20
-38.0794
 30
0.0
 40
0
 41
0
  0
VERTEX
  8
0
 10
30.1786
 20
-37.5051
 30
0.0
 40
0
 41
0
  0
VERTEX
  8
0
 10
30.2207
 20
-37.3147
 30
0.0
 40
0
 41
0
  0
VERTEX
  8
0
 10
30.1999
 20
-37.521
 30
0.0
 40
0
 41
0
  0
VERTEX
  8
0
 10
30.1487
 20
-38.1411
 30
0.0
 40
0
 41
0
  0
VERTEX
  8
0
 10
30.1058
 20
-38.9132
 30
0.0
 40
0
 41
0
  0
VERTEX
  8
0
 10
30.0921
 20
-39.6312
 30
0.0
 40
0
 41
0
  0
VERTEX
  8
0
 10
30.1078
 20
-40.2951
 30
0.0
 40
0
 41
0
  0
VERTEX
  8
0
 10
30.1529
 20
-40.9051
 30
0.0
 40
0
 41
0
  0
VERTEX
  8
0
 10
30.2279
 20
-41.4612
 30
0.0
 40
0
 41
0
  0
VERTEX
  8
0
 10
30.3328
 20
-41.9636
 30
0.0
 40
0
 41
0
  0
VERTEX
  8
0
 10
30.4286
 20
-42.3022
 30
0.0
 40
0
 41
0
  0
VERTEX
  8
0
 10
30.4679
 20
-42.4125
 30
0.0
 40
0
 41
0
  0
VERTEX
  8
0
 10
30.4601
 20
-42.2933
 30
0.0
 40
0
 41
0
  0
VERTEX
  8
0
 10
30.4424
 20
-41.9357
 30
0.0
 40
0
 41
0
  0
VERTEX
  8
0
 10
30.4297
 20
-41.4776
 30
0.0
 40
0
 41
0
  0
VERTEX
  8
0
 10
30.43
 20
-41.0383
 30
0.0
 40
0
 41
0
  0
VERTEX
  8
0
 10
30.4435
 20
-40.6181
 30
0.0
 40
0
 41
0
  0
VERTEX
  8
0
 10
30.47
 20
-40.2168
 30
0.0
 40
0
 41
0
  0
VERTEX
  8
0
 10
30.5099
 20
-39.8351
 30
0.0
 40
0
 41
0
  0
VERTEX
  8
0
 10
30.5631
 20
-39.4729
 30
0.0
 40
0
 41
0
  0
VERTEX
  8
0
 10
30.6111
 20
-39.2156
 30
0.0
 40
0
 41
0
  0
VERTEX
  8
0
 10
30.6299
 20
-39.1304
 30
0.0
 40
0
 41
0
  0
VERTEX
  8
0
 10
30.6206
 20
-39.2503
 30
0.0
 40
0
 41
0
  0
VERTEX
  8
0
 10
30.5992
 20
-39.61
 30
0.0
 40
0
 41
0
  0
VERTEX
  8
0
 10
30.5836
 20
-40.0703
 30
0.0
 40
0
 41
0
  0
VERTEX
  8
0
 10
30.5836
 20
-40.5114
 30
0.0
 40
0
 41
0
  0
VERTEX
  8
0
 10
30.599
 20
-40.9333
 30
0.0
 40
0
 41
0
  0
VERTEX
  8
0
 10
30.63
 20
-41.3361
 30
0.0
 40
0
 41
0
  0
VERTEX
  8
0
 10
30.6767
 20
-41.7197
 30
0.0
 40
0
 41
0
  0
VERTEX
  8
0
 10
30.739
 20
-42.0842
 30
0.0
 40
0
 41
0
  0
VERTEX
  8
0
 10
30.7954
 20
-42.3438
 30
0.0
 40
0
 41
0
  0
VERTEX
  8
0
 10
30.8175
 20
-42.4294
 30
0.0
 40
0
 41
0
  0
VERTEX
  8
0
 10
30.9069
 20
-42.4124
 30
0.0
 40
0
 41
0
  0
VERTEX
  8
0
 10
31.3535
 20
-42.3144
 30
0.0
 40
0
 41
0
  0
VERTEX
  8
0
 10
31.7957
 20
-42.1993
 30
0.0
 40
0
 41
0
  0
VERTEX
  8
0
 10
31.8831
 20
-42.1738
 30
0.0
 40
0
 41
0
  0
VERTEX
  8
0
 10
31.8617
 20
-42.0501
 30
0.0
 40
0
 41
0
  0
VERTEX
  8
0
 10
31.7296
 20
-41.4172
 30
0.0
 40
0
 41
0
  0
VERTEX
  8
0
 10
31.5633
 20
-40.7587
 30
0.0
 40
0
 41
0
  0
VERTEX
  8
0
 10
31.525
 20
-40.6222
 30
0.0
 40
0
 41
0
  0
VERTEX
  8
0
 10
31.525
 20
-40.6222
 30
0.0
 40
0
 41
0
  0
SEQEND
 8
0
  0
POLYLINE
  8
0
 62
     82
 66
     1
 10
0
 20
0
 30
0.0
 70
     1
 40
0
 41
0
  0
VERTEX
  8
0
 10
29.0443
 20
-37.9456
 30
0.0
 40
0
 41
0
  0
VERTEX
  8
0
 10
29.0992
 20
-37.7369
 30
0.0
 40
0
 41
0
  0
VERTEX
  8
0
 10
29.2736
 20
-37.1139
 30
0.0
 40
0
 41
0
  0
VERTEX
  8
0
 10
29.5079
 20
-36.3454
 30
0.0
 40
0
 41
0
  0
VERTEX
  8
0
 10
29.7472
 20
-35.6399
 30
0.0
 40
0
 41
0
  0
VERTEX
  8
0
 10
29.9915
 20
-34.9971
 30
0.0
 40
0
 41
0
  0
VERTEX
  8
0
 10
30.2411
 20
-34.4171
 30
0.0
 40
0
 41
0
  0
VERTEX
  8
0
 10
30.496
 20
-33.8997
 30
0.0
 40
0
 41
0
  0
VERTEX
  8
0
 10
30.7562
 20
-33.4449
 30
0.0
 40
0
 41
0
  0
VERTEX
  8
0
 10
30.9514
 20
-33.1474
 30
0.0
 40
0
 41
0
  0
VERTEX
  8
0
 10
31.0221
 20
-33.0525
 30
0.0
 40
0
 41
0
  0
VERTEX
  8
0
 10
31.0954
 20
-32.8382
 30
0.0
 40
0
 41
0
  0
VERTEX
  8
0
 10
31.3194
 20
-32.1969
 30
0.0
 40
0
 41
0
  0
VERTEX
  8
0
 10
31.6276
 20
-31.3383
 30
0.0
 40
0
 41
0
  0
VERTEX
  8
0
 10
31.9476
 20
-30.4781
 30
0.0
 40
0
 41
0
  0
VERTEX
  8
0
 10
32.2806
 20
-29.6174
 30
0.0
 40
0
 41
0
  0
VERTEX
  8
0
 10
32.6275
 20
-28.7575
 30
0.0
 40
0
 41
0
  0
VERTEX
  8
0
 10
32.9896
 20
-27.8999
 30
0.0
 40
0
 41
0
  0
VERTEX
  8
0
 10
33.3681
 20
-27.0457
 30
0.0
 40
0
 41
0
  0
VERTEX
  8
0
 10
33.7638
 20
-26.1965
 30
0.0
 40
0
 41
0
  0
VERTEX
  8
0
 10
34.1779
 20
-25.3535
 30
0.0
 40
0
 41
0
  0
VERTEX
  8
0
 10
34.6118
 20
-24.5181
 30
0.0
 40
0
 41
0
  0
VERTEX
  8
0
 10
35.0663
 20
-23.6914
 30
0.0
 40
0
 41
0
  0
VERTEX
  8
0
 10
35.5426
 20
-22.8749
 30
0.0
 40
0
 41
0
  0
VERTEX
  8
0
 10
36.0418
 20
-22.0699
 30
0.0
 40
0
 41
0
  0
VERTEX
  8
0
 10
36.5651
 20
-21.2776
 30
0.0
 40
0
 41
0
  0
VERTEX
  8
0
 10
37.1136
 20
-20.4996
 30
0.0
 40
0
 41
0
  0
VERTEX
  8
0
 10
37.5415
 20
-19.9253
 30
0.0
 40
0
 41
0
  0
VERTEX
  8
0
 10
37.6882
 20
-19.7371
 30
0.0
 40
0
 41
0
  0
VERTEX
  8
0
 10
37.6686
 20
-19.7058
 30
0.0
 40
0
 41
0
  0
VERTEX
  8
0
 10
37.6001
 20
-19.6185
 30
0.0
 40
0
 41
0
  0
VERTEX
  8
0
 10
37.489
 20
-19.5047
 30
0.0
 40
0
 41
0
  0
VERTEX
  8
0
 10
37.3537
 20
-19.3942
 30
0.0
 40
0
 41
0
  0
VERTEX
  8
0
 10
37.2347
 20
-19.311
 30
0.0
 40
0
 41
0
  0
VERTEX
  8
0
 10
37.1939
 20
-19.2853
 30
0.0
 40
0
 41
0
  0
VERTEX
  8
0
 10
37.08
 20
-19.4204
 30
0.0
 40
0
 41
0
  0
VERTEX
  8
0
 10
36.7513
 20
-19.8365
 30
0.0
 40
0
 41
0
  0
VERTEX
  8
0
 10
36.31
 20
-20.4347
 30
0.0
 40
0
 41
0
  0
VERTEX
  8
0
 10
35.8722
 20
-21.0739
 30
0.0
 40
0
 41
0
  0
VERTEX
  8
0
 10
35.4397
 20
-21.7485
 30
0.0
 40
0
 41
0
  0
VERTEX
  8
0
 10
35.0144
 20
-22.4524
 30
0.0
 40
0
 41
0
  0
VERTEX
  8
0
 10
34.5981
 20
-23.1799
 30
0.0
 40
0
 41
0
  0
VERTEX
  8
0
 10
34.1926
 20
-23.9251
 30
0.0
 40
0
 41
0
  0
VERTEX
  8
0
 10
33.8
 20
-24.6824
 30
0.0
 40
0
 41
0
  0
VERTEX
  8
0
 10
33.4219
 20
-25.4457
 30
0.0
 40
0
 41
0
  0
VERTEX
  8
0
 10
33.0607
 20
-26.2092
 30
0.0
 40
0
 41
0
  0
VERTEX
  8
0
 10
32.7178
 20
-26.9672
 30
0.0
 40
0
 41
0
  0
VERTEX
  8
0
 10
32.3951
 20
-27.7138
 30
0.0
 40
0
 41
0
  0
VERTEX
  8
0
 10
32.0947
 20
-28.4432
 30
0.0
 40
0
 41
0
  0
VERTEX
  8
0
 10
31.8185
 20
-29.1494
 30
0.0
 40
0
 41
0
  0
VERTEX
  8
0
 10
31.5683
 20
-29.8268
 30
0.0
 40
0
 41
0
  0
VERTEX
  8
0
 10
31.3997
 20
-30.3082
 30
0.0
 40
0
 41
0
  0
VERTEX
  8
0
 10
31.346
 20
-30.4694
 30
0.0
 40
0
 41
0
  0
VERTEX
  8
0
 10
31.4087
 20
-30.2796
 30
0.0
 40
0
 41
0
  0
VERTEX
  8
0
 10
31.601
 20
-29.7108
 30
0.0
 40
0
 41
0
  0
VERTEX
  8
0
 10
31.8651
 20
-28.9533
 30
0.0
 40
0
 41
0
  0
VERTEX
  8
0
 10
32.1392
 20
-28.1981
 30
0.0
 40
0
 41
0
  0
VERTEX
  8
0
 10
32.4243
 20
-27.4453
 30
0.0
 40
0
 41
0
  0
VERTEX
  8
0
 10
32.7214
 20
-26.6956
 30
0.0
 40
0
 41
0
  0
VERTEX
  8
0
 10
33.0314
 20
-25.9497
 30
0.0
 40
0
 41
0
  0
VERTEX
  8
0
 10
33.3554
 20
-25.2081
 30
0.0
 40
0
 41
0
  0
VERTEX
  8
0
 10
33.6944
 20
-24.4714
 30
0.0
 40
0
 41
0
  0
VERTEX
  8
0
 10
34.0494
 20
-23.7401
 30
0.0
 40
0
 41
0
  0
VERTEX
  8
0
 10
34.4214
 20
-23.015
 30
0.0
 40
0
 41
0
  0
VERTEX
  8
0
 10
34.8114
 20
-22.2965
 30
0.0
 40
0
 41
0
  0
VERTEX
  8
0
 10
35.2204
 20
-21.5854
 30
0.0
 40
0
 41
0
  0
VERTEX
  8
0
 10
35.6493
 20
-20.8821
 30
0.0
 40
0
 41
0
  0
VERTEX
  8
0
 10
36.0992
 20
-20.1871
 30
0.0
 40
0
 41
0
  0
VERTEX
  8
0
 10
36.5711
 20
-19.5012
 30
0.0
 40
0
 41
0
  0
VERTEX
  8
0
 10
36.9397
 20
-18.9921
 30
0.0
 40
0
 41
0
  0
VERTEX
  8
0
 10
37.066
 20
-18.8249
 30
0.0
 40
0
 41
0
  0
VERTEX
  8
0
 10
37.1738
 20
-18.8881
 30
0.0
 40
0
 41
0
  0
VERTEX
  8
0
 10
37.4849
 20
-19.0982
 30
0.0
 40
0
 41
0
  0
VERTEX
  8
0
 10
37.9075
 20
-19.429
 30
0.0
 40
0
 41
0
  0
VERTEX
  8
0
 10
38.3338
 20
-19.8174
 30
0.0
 40
0
 41
0
  0
VERTEX
  8
0
 10
38.7636
 20
-20.2632
 30
0.0
 40
0
 41
0
  0
VERTEX
  8
0
 10
39.1972
 20
-20.7664
 30
0.0
 40
0
 41
0
  0
VERTEX
  8
0
 10
39.6346
 20
-21.3271
 30
0.0
 40
0
 41
0
  0
VERTEX
  8
0
 10
40.0757
 20
-21.945
 30
0.0
 40
0
 41
0
  0
VERTEX
  8
0
 10
40.5206
 20
-22.6204
 30
0.0
 40
0
 41
0
  0
VERTEX
  8
0
 10
40.9692
 20
-23.3532
 30
0.0
 40
0
 41
0
  0
VERTEX
  8
0
 10
41.4217
 20
-24.1433
 30
0.0
 40
0
 41
0
  0
VERTEX
  8
0
 10
41.8779
 20
-24.9906
 30
0.0
 40
0
 41
0
  0
VERTEX
  8
0
 10
42.3381
 20
-25.8953
 30
0.0
 40
0
 41
0
  0
VERTEX
  8
0
 10
42.8022
 20
-26.8571
 30
0.0
 40
0
 41
0
  0
VERTEX
  8
0
 10
43.2701
 20
-27.8761
 30
0.0
 40
0
 41
0
  0
VERTEX
  8
0
 10
43.7421
 20
-28.9524
 30
0.0
 40
0
 41
0
  0
VERTEX
  8
0
 10
44.1013
 20
-29.8017
 30
0.0
 40
0
 41
0
  0
VERTEX
  8
0
 10
44.2181
 20
-30.0858
 30
0.0
 40
0
 41
0
  0
VERTEX
  8
0
 10
44.1194
 20
-29.7842
 30
0.0
 40
0
 41
0
  0
VERTEX
  8
0
 10
43.8119
 20
-28.8826
 30
0.0
 40
0
 41
0
  0
VERTEX
  8
0
 10
43.3993
 20
-27.7375
 30
0.0
 40
0
 41
0
  0
VERTEX
  8
0
 10
42.98
 20
-26.6504
 30
0.0
 40
0
 41
0
  0
VERTEX
  8
0
 10
42.554
 20
-25.6214
 30
0.0
 40
0
 41
0
  0
VERTEX
  8
0
 10
42.1214
 20
-24.6504
 30
0.0
 40
0
 41
0
  0
VERTEX
  8
0
 10
41.6822
 20
-23.7375
 30
0.0
 40
0
 41
0
  0
VERTEX
  8
0
 10
41.2363
 20
-22.8825
 30
0.0
 40
0
 41
0
  0
VERTEX
  8
0
 10
40.7837
 20
-22.0856
 30
0.0
 40
0
 41
0
  0
VERTEX
  8
0
 10
40.3244
 20
-21.3465
 30
0.0
 40
0
 41
0
  0
VERTEX
  8
0
 10
39.8585
 20
-20.6654
 30
0.0
 40
0
 41
0
  0
VERTEX
  8
0
 10
39.3857
 20
-20.0422
 30
0.0
 40
0
 41
0
  0
VERTEX
  8
0
 10
38.9063
 20
-19.4768
 30
0.0
 40
0
 41
0
  0
VERTEX
  8
0
 10
38.4201
 20
-18.9693
 30
0.0
 40
0
 41
0
  0
VERTEX
  8
0
 10
37.9272
 20
-18.5196
 30
0.0
 40
0
 41
0
  0
VERTEX
  8
0
 10
37.4275
 20
-18.1276
 30
0.0
 40
0
 41
0
  0
VERTEX
  8
0
 10
37.0511
 20
-17.8712
 30
0.0
 40
0
 41
0
  0
VERTEX
  8
0
 10
36.9211
 20
-17.7935
 30
0.0
 40
0
 41
0
  0
VERTEX
  8
0
 10
36.8161
 20
-17.8926
 30
0.0
 40
0
 41
0
  0
VERTEX
  8
0
 10
36.5131
 20
-18.2029
 30
0.0
 40
0
 41
0
  0
VERTEX
  8
0
 10
36.1154
 20
-18.6485
 30
0.0
 40
0
 41
0
  0
VERTEX
  8
0
 10
35.7283
 20
-19.1278
 30
0.0
 40
0
 41
0
  0
VERTEX
  8
0
 10
35.3515
 20
-19.6386
 30
0.0
 40
0
 41
0
  0
VERTEX
  8
0
 10
34.9851
 20
-20.179
 30
0.0
 40
0
 41
0
  0
VERTEX
  8
0
 10
34.6292
 20
-20.7468
 30
0.0
 40
0
 41
0
  0
VERTEX
  8
0
 10
34.2836
 20
-21.3394
 30
0.0
 40
0
 41
0
  0
VERTEX
  8
0
 10
33.9485
 20
-21.9551
 30
0.0
 40
0
 41
0
  0
VERTEX
  8
0
 10
33.6237
 20
-22.5915
 30
0.0
 40
0
 41
0
  0
VERTEX
  8
0
 10
33.3096
 20
-23.2465
 30
0.0
 40
0
 41
0
  0
VERTEX
  8
0
 10
33.0057
 20
-23.9179
 30
0.0
 40
0
 41
0
  0
VERTEX
  8
0
 10
32.7124
 20
-24.6035
 30
0.0
 40
0
 41
0
  0
VERTEX
  8
0
 10
32.4293
 20
-25.3011
 30
0.0
 40
0
 41
0
  0
VERTEX
  8
0
 10
32.1568
 20
-26.0086
 30
0.0
 40
0
 41
0
  0
VERTEX
  8
0
 10
31.8949
 20
-26.7237
 30
0.0
 40
0
 41
0
  0
VERTEX
  8
0
 10
31.6432
 20
-27.4443
 30
0.0
 40
0
 41
0
  0
VERTEX
  8
0
 10
31.4021
 20
-28.1683
 30
0.0
 40
0
 41
0
  0
VERTEX
  8
0
 10
31.1714
 20
-28.8933
 30
0.0
 40
0
 41
0
  0
VERTEX
  8
0
 10
30.9513
 20
-29.6175
 30
0.0
 40
0
 41
0
  0
VERTEX
  8
0
 10
30.7415
 20
-30.3383
 30
0.0
 40
0
 41
0
  0
VERTEX
  8
0
 10
30.5424
 20
-31.0538
 30
0.0
 40
0
 41
0
  0
VERTEX
  8
0
 10
30.3536
 20
-31.7617
 30
0.0
 40
0
 41
0
  0
VERTEX
  8
0
 10
30.1754
 20
-32.4599
 30
0.0
 40
0
 41
0
  0
VERTEX
  8
0
 10
30.0076
 20
-33.1461
 30
0.0
 40
0
 41
0
  0
VERTEX
  8
0
 10
29.8504
 20
-33.8182
 30
0.0
 40
0
 41
0
  0
VERTEX
  8
0
 10
29.7037
 20
-34.474
 30
0.0
 40
0
 41
0
  0
VERTEX
  8
0
 10
29.5675
 20
-35.1114
 30
0.0
 40
0
 41
0
  0
VERTEX
  8
0
 10
29.4418
 20
-35.7282
 30
0.0
 40
0
 41
0
  0
VERTEX
  8
0
 10
29.3267
 20
-36.3222
 30
0.0
 40
0
 41
0
  0
VERTEX
  8
0
 10
29.2219
 20
-36.8912
 30
0.0
 40
0
 41
0
  0
VERTEX
  8
0
 10
29.1279
 20
-37.4331
 30
0.0
 40
0
 41
0
  0
VERTEX
  8
0
 10
29.0644
 20
-37.8172
 30
0.0
 40
0
 41
0
  0
VERTEX
  8
0
 10
29.0443
 20
-37.9456
 30
0.0
 40
0
 41
0
  0
VERTEX
  8
0
 10
29.0443
 20
-37.9456
 30
0.0
 40
0
 41
0
  0
SEQEND
 8
0
  0
POLYLINE
  8
0
 62
     82
 66
     1
 10
0
 20
0
 30
0.0
 70
     1
 40
0
 41
0
  0
VERTEX
  8
0
 10
38.8732
 20
-18.0918
 30
0.0
 40
0
 41
0
  0
VERTEX
  8
0
 10
38.9747
 20
-18.1925
 30
0.0
 40
0
 41
0
  0
VERTEX
  8
0
 10
39.2699
 20
-18.5043
 30
0.0
 40
0
 41
0
  0
VERTEX
  8
0
 10
39.6543
 20
-18.9429
 30
0.0
 40
0
 41
0
  0
VERTEX
  8
0
 10
40.0267
 20
-19.4075
 30
0.0
 40
0
 41
0
  0
VERTEX
  8
0
 10
40.3869
 20
-19.8982
 30
0.0
 40
0
 41
0
  0
VERTEX
  8
0
 10
40.735
 20
-20.4149
 30
0.0
 40
0
 41
0
  0
VERTEX
  8
0
 10
41.071
 20
-20.9578
 30
0.0
 40
0
 41
0
  0
VERTEX
  8
0
 10
41.3949
 20
-21.5267
 30
0.0
 40
0
 41
0
  0
VERTEX
  8
0
 10
41.7065
 20
-22.1218
 30
0.0
 40
0
 41
0
  0
VERTEX
  8
0
 10
42.0061
 20
-22.7431
 30
0.0
 40
0
 41
0
  0
VERTEX
  8
0
 10
42.2937
 20
-23.3906
 30
0.0
 40
0
 41
0
  0
VERTEX
  8
0
 10
42.5692
 20
-24.0642
 30
0.0
 40
0
 41
0
  0
VERTEX
  8
0
 10
42.8326
 20
-24.7642
 30
0.0
 40
0
 41
0
  0
VERTEX
  8
0
 10
43.084
 20
-25.4903
 30
0.0
 40
0
 41
0
  0
VERTEX
  8
0
 10
43.3235
 20
-26.2428
 30
0.0
 40
0
 41
0
  0
VERTEX
  8
0
 10
43.5508
 20
-27.0217
 30
0.0
 40
0
 41
0
  0
VERTEX
  8
0
 10
43.7146
 20
-27.625
 30
0.0
 40
0
 41
0
  0
VERTEX
  8
0
 10
43.7662
 20
-27.8269
 30
0.0
 40
0
 41
0
  0
VERTEX
  8
0
 10
43.6935
 20
-27.62
 30
0.0
 40
0
 41
0
  0
VERTEX
  8
0
 10
43.4668
 20
-27.0026
 30
0.0
 40
0
 41
0
  0
VERTEX
  8
0
 10
43.1597
 20
-26.2081
 30
0.0
 40
0
 41
0
  0
VERTEX
  8
0
 10
42.845
 20
-25.4435
 30
0.0
 40
0
 41
0
  0
VERTEX
  8
0
 10
42.5228
 20
-24.7085
 30
0.0
 40
0
 41
0
  0
VERTEX
  8
0
 10
42.1929
 20
-24.0032
 30
0.0
 40
0
 41
0
  0
VERTEX
  8
0
 10
41.8554
 20
-23.3279
 30
0.0
 40
0
 41
0
  0
VERTEX
  8
0
 10
41.5104
 20
-22.6822
 30
0.0
 40
0
 41
0
  0
VERTEX
  8
0
 10
41.1578
 20
-22.0664
 30
0.0
 40
0
 41
0
  0
VERTEX
  8
0
 10
40.7975
 20
-21.4803
 30
0.0
 40
0
 41
0
  0
VERTEX
  8
0
 10
40.4297
 20
-20.9239
 30
0.0
 40
0
 41
0
  0
VERTEX
  8
0
 10
40.0543
 20
-20.3974
 30
0.0
 40
0
 41
0
  0
VERTEX
  8
0
 10
39.6713
 20
-19.9006
 30
0.0
 40
0
 41
0
  0
VERTEX
  8
0
 10
39.2807
 20
-19.4335
 30
0.0
 40
0
 41
0
  0
VERTEX
  8
0
 10
38.8825
 20
-18.9962
 30
0.0
 40
0
 41
0
  0
VERTEX
  8
0
 10
38.4767
 20
-18.5888
 30
0.0
 40
0
 41
0
  0
VERTEX
  8
0
 10
38.1689
 20
-18.3029
 30
0.0
 40
0
 41
0
  0
VERTEX
  8
0
 10
38.0633
 20
-18.2111
 30
0.0
 40
0
 41
0
  0
VERTEX
  8
0
 10
38.1243
 20
-18.1918
 30
0.0
 40
0
 41
0
  0
VERTEX
  8
0
 10
38.3097
 20
-18.141
 30
0.0
 40
0
 41
0
  0
VERTEX
  8
0
 10
38.5258
 20
-18.0971
 30
0.0
 40
0
 41
0
  0
VERTEX
  8
0
 10
38.7131
 20
-18.0804
 30
0.0
 40
0
 41
0
  0
VERTEX
  8
0
 10
38.8339
 20
-18.085
 30
0.0
 40
0
 41
0
  0
VERTEX
  8
0
 10
38.8732
 20
-18.0918
 30
0.0
 40
0
 41
0
  0
VERTEX
  8
0
 10
38.8732
 20
-18.0918
 30
0.0
 40
0
 41
0
  0
SEQEND
 8
0
  0
POLYLINE
  8
0
 62
     82
 66
     1
 10
0
 20
0
 30
0.0
 70
     1
 40
0
 41
0
  0
VERTEX
  8
0
 10
27.6207
 20
-35.4904
 30
0.0
 40
0
 41
0
  0
VERTEX
  8
0
 10
27.6633
 20
-35.3699
 30
0.0
 40
0
 41
0
  0
VERTEX
  8
0
 10
27.7821
 20
-35.0046
 30
0.0
 40
0
 41
0
  0
VERTEX
  8
0
 10
27.9275
 20
-34.5058
 30
0.0
 40
0
 41
0
  0
VERTEX
  8
0
 10
28.0565
 20
-33.9944
 30
0.0
 40
0
 41
0
  0
VERTEX
  8
0
 10
28.1694
 20
-33.4701
 30
0.0
 40
0
 41
0
  0
VERTEX
  8
0
 10
28.266
 20
-32.9331
 30
0.0
 40
0
 41
0
  0
VERTEX
  8
0
 10
28.346
 20
-32.3832
 30
0.0
 40
0
 41
0
  0
VERTEX
  8
0
 10
28.4093
 20
-31.8207
 30
0.0
 40
0
 41
0
  0
VERTEX
  8
0
 10
28.4467
 20
-31.3892
 30
0.0
 40
0
 41
0
  0
VERTEX
  8
0
 10
28.4561
 20
-31.2453
 30
0.0
 40
0
 41
0
  0
VERTEX
  8
0
 10
28.4515
 20
-31.1672
 30
0.0
 40
0
 41
0
  0
VERTEX
  8
0
 10
28.4361
 20
-30.9331
 30
0.0
 40
0
 41
0
  0
VERTEX
  8
0
 10
28.4119
 20
-30.6099
 30
0.0
 40
0
 41
0
  0
VERTEX
  8
0
 10
28.3836
 20
-30.2761
 30
0.0
 40
0
 41
0
  0
VERTEX
  8
0
 10
28.351
 20
-29.9324
 30
0.0
 40
0
 41
0
  0
VERTEX
  8
0
 10
28.314
 20
-29.579
 30
0.0
 40
0
 41
0
  0
VERTEX
  8
0
 10
28.2725
 20
-29.2165
 30
0.0
 40
0
 41
0
  0
VERTEX
  8
0
 10
28.2265
 20
-28.8456
 30
0.0
 40
0
 41
0
  0
VERTEX
  8
0
 10
28.1758
 20
-28.4663
 30
0.0
 40
0
 41
0
  0
VERTEX
  8
0
 10
28.1206
 20
-28.0796
 30
0.0
 40
0
 41
0
  0
VERTEX
  8
0
 10
28.0604
 20
-27.6856
 30
0.0
 40
0
 41
0
  0
VERTEX
  8
0
 10
27.9954
 20
-27.285
 30
0.0
 40
0
 41
0
  0
VERTEX
  8
0
 10
27.9254
 20
-26.8783
 30
0.0
 40
0
 41
0
  0
VERTEX
  8
0
 10
27.8503
 20
-26.4658
 30
0.0
 40
0
 41
0
  0
VERTEX
  8
0
 10
27.7701
 20
-26.0482
 30
0.0
 40
0
 41
0
  0
VERTEX
  8
0
 10
27.6847
 20
-25.6258
 30
0.0
 40
0
 41
0
  0
VERTEX
  8
0
 10
27.5939
 20
-25.1993
 30
0.0
 40
0
 41
0
  0
VERTEX
  8
0
 10
27.4978
 20
-24.7689
 30
0.0
 40
0
 41
0
  0
VERTEX
  8
0
 10
27.3961
 20
-24.3353
 30
0.0
 40
0
 41
0
  0
VERTEX
  8
0
 10
27.2889
 20
-23.899
 30
0.0
 40
0
 41
0
  0
VERTEX
  8
0
 10
27.1761
 20
-23.4604
 30
0.0
 40
0
 41
0
  0
VERTEX
  8
0
 10
27.0575
 20
-23.0199
 30
0.0
 40
0
 41
0
  0
VERTEX
  8
0
 10
26.9331
 20
-22.5782
 30
0.0
 40
0
 41
0
  0
VERTEX
  8
0
 10
26.8028
 20
-22.1356
 30
0.0
 40
0
 41
0
  0
VERTEX
  8
0
 10
26.6665
 20
-21.6926
 30
0.0
 40
0
 41
0
  0
VERTEX
  8
0
 10
26.524
 20
-21.2499
 30
0.0
 40
0
 41
0
  0
VERTEX
  8
0
 10
26.3756
 20
-20.8078
 30
0.0
 40
0
 41
0
  0
VERTEX
  8
0
 10
26.2207
 20
-20.3667
 30
0.0
 40
0
 41
0
  0
VERTEX
  8
0
 10
26.0596
 20
-19.9272
 30
0.0
 40
0
 41
0
  0
VERTEX
  8
0
 10
25.8921
 20
-19.4899
 30
0.0
 40
0
 41
0
  0
VERTEX
  8
0
 10
25.7181
 20
-19.055
 30
0.0
 40
0
 41
0
  0
VERTEX
  8
0
 10
25.5374
 20
-18.6233
 30
0.0
 40
0
 41
0
  0
VERTEX
  8
0
 10
25.35
 20
-18.1951
 30
0.0
 40
0
 41
0
  0
VERTEX
  8
0
 10
25.1558
 20
-17.771
 30
0.0
 40
0
 41
0
  0
VERTEX
  8
0
 10
24.9549
 20
-17.3513
 30
0.0
 40
0
 41
0
  0
VERTEX
  8
0
 10
24.7471
 20
-16.9367
 30
0.0
 40
0
 41
0
  0
VERTEX
  8
0
 10
24.5322
 20
-16.5275
 30
0.0
 40
0
 41
0
  0
VERTEX
  8
0
 10
24.3101
 20
-16.1243
 30
0.0
 40
0
 41
0
  0
VERTEX
  8
0
 10
24.081
 20
-15.7275
 30
0.0
 40
0
 41
0
  0
VERTEX
  8
0
 10
23.8444
 20
-15.3378
 30
0.0
 40
0
 41
0
  0
VERTEX
  8
0
 10
23.6007
 20
-14.9554
 30
0.0
 40
0
 41
0
  0
VERTEX
  8
0
 10
23.3494
 20
-14.5808
 30
0.0
 40
0
 41
0
  0
VERTEX
  8
0
 10
23.0906
 20
-14.2147
 30
0.0
 40
0
 41
0
  0
VERTEX
  8
0
 10
22.8242
 20
-13.8576
 30
0.0
 40
0
 41
0
  0
VERTEX
  8
0
 10
22.5501
 20
-13.5098
 30
0.0
 40
0
 41
0
  0
VERTEX
  8
0
 10
22.2682
 20
-13.1718
 30
0.0
 40
0
 41
0
  0
VERTEX
  8
0
 10
21.9785
 20
-12.8442
 30
0.0
 40
0
 41
0
  0
VERTEX
  8
0
 10
21.6808
 20
-12.5275
 30
0.0
 40
0
 41
0
  0
VERTEX
  8
0
 10
21.375
 20
-12.2219
 30
0.0
 40
0
 41
0
  0
VERTEX
  8
0
 10
21.0611
 20
-11.9283
 30
0.0
 40
0
 41
0
  0
VERTEX
  8
0
 10
20.739
 20
-11.6469
 30
0.0
 40
0
 41
0
  0
VERTEX
  8
0
 10
20.4086
 20
-11.3782
 30
0.0
 40
0
 41
0
  0
VERTEX
  8
0
 10
20.0699
 20
-11.1228
 30
0.0
 40
0
 41
0
  0
VERTEX
  8
0
 10
19.7226
 20
-10.8812
 30
0.0
 40
0
 41
0
  0
VERTEX
  8
0
 10
19.3668
 20
-10.6538
 30
0.0
 40
0
 41
0
  0
VERTEX
  8
0
 10
19.0024
 20
-10.4411
 30
0.0
 40
0
 41
0
  0
VERTEX
  8
0
 10
18.6292
 20
-10.2435
 30
0.0
 40
0
 41
0
  0
VERTEX
  8
0
 10
18.2472
 20
-10.0617
 30
0.0
 40
0
 41
0
  0
VERTEX
  8
0
 10
17.8564
 20
-9.89611
 30
0.0
 40
0
 41
0
  0
VERTEX
  8
0
 10
17.4567
 20
-9.74707
 30
0.0
 40
0
 41
0
  0
VERTEX
  8
0
 10
17.0476
 20
-9.61524
 30
0.0
 40
0
 41
0
  0
VERTEX
  8
0
 10
16.6296
 20
-9.50097
 30
0.0
 40
0
 41
0
  0
VERTEX
  8
0
 10
16.2024
 20
-9.40483
 30
0.0
 40
0
 41
0
  0
VERTEX
  8
0
 10
15.7657
 20
-9.32731
 30
0.0
 40
0
 41
0
  0
VERTEX
  8
0
 10
15.4315
 20
-9.28093
 30
0.0
 40
0
 41
0
  0
VERTEX
  8
0
 10
15.3197
 20
-9.26888
 30
0.0
 40
0
 41
0
  0
VERTEX
  8
0
 10
15.4631
 20
-9.31635
 30
0.0
 40
0
 41
0
  0
VERTEX
  8
0
 10
15.8871
 20
-9.47683
 30
0.0
 40
0
 41
0
  0
VERTEX
  8
0
 10
16.4461
 20
-9.72086
 30
0.0
 40
0
 41
0
  0
VERTEX
  8
0
 10
16.9961
 20
-9.99914
 30
0.0
 40
0
 41
0
  0
VERTEX
  8
0
 10
17.5368
 20
-10.3099
 30
0.0
 40
0
 41
0
  0
VERTEX
  8
0
 10
18.0676
 20
-10.6515
 30
0.0
 40
0
 41
0
  0
VERTEX
  8
0
 10
18.5882
 20
-11.0221
 30
0.0
 40
0
 41
0
  0
VERTEX
  8
0
 10
19.0979
 20
-11.42
 30
0.0
 40
0
 41
0
  0
VERTEX
  8
0
 10
19.5964
 20
-11.8434
 30
0.0
 40
0
 41
0
  0
VERTEX
  8
0
 10
20.0832
 20
-12.2906
 30
0.0
 40
0
 41
0
  0
VERTEX
  8
0
 10
20.5576
 20
-12.7599
 30
0.0
 40
0
 41
0
  0
VERTEX
  8
0
 10
21.0196
 20
-13.2494
 30
0.0
 40
0
 41
0
  0
VERTEX
  8
0
 10
21.4682
 20
-13.7575
 30
0.0
 40
0
 41
0
  0
VERTEX
  8
0
 10
21.9033
 20
-14.2824
 30
0.0
 40
0
 41
0
  0
VERTEX
  8
0
 10
22.3242
 20
-14.8224
 30
0.0
 40
0
 41
0
  0
VERTEX
  8
0
 10
22.7306
 20
-15.3756
 30
0.0
 40
0
 41
0
  0
VERTEX
  8
0
 10
23.1218
 20
-15.9404
 30
0.0
 40
0
 41
0
  0
VERTEX
  8
0
 10
23.4976
 20
-16.515
 30
0.0
 40
0
 41
0
  0
VERTEX
  8
0
 10
23.8574
 20
-17.0978
 30
0.0
 40
0
 41
0
  0
VERTEX
  8
0
 10
24.2007
 20
-17.6868
 30
0.0
 40
0
 41
0
  0
VERTEX
  8
0
 10
24.5269
 20
-18.2803
 30
0.0
 40
0
 41
0
  0
VERTEX
  8
0
 10
24.8358
 20
-18.8768
 30
0.0
 40
0
 41
0
  0
VERTEX
  8
0
 10
25.1268
 20
-19.4743
 30
0.0
 40
0
 41
0
  0
VERTEX
  8
0
 10
25.3993
 20
-20.0711
 30
0.0
 40
0
 41
0
  0
VERTEX
  8
0
 10
25.6531
 20
-20.6656
 30
0.0
 40
0
 41
0
  0
VERTEX
  8
0
 10
25.8875
 20
-21.2558
 30
0.0
 40
0
 41
0
  0
VERTEX
  8
0
 10
26.1021
 20
-21.8401
 30
0.0
 40
0
 41
0
  0
VERTEX
  8
0
 10
26.2964
 20
-22.4169
 30
0.0
 40
0
 41
0
  0
VERTEX
  8
0
 10
26.47
 20
-22.9842
 30
0.0
 40
0
 41
0
  0
VERTEX
  8
0
 10
26.6224
 20
-23.5404
 30
0.0
 40
0
 41
0
  0
VERTEX
  8
0
 10
26.7529
 20
-24.0836
 30
0.0
 40
0
 41
0
  0
VERTEX
  8
0
 10
26.8614
 20
-24.6124
 30
0.0
 40
0
 41
0
  0
VERTEX
  8
0
 10
26.9283
 20
-24.9961
 30
0.0
 40
0
 41
0
  0
VERTEX
  8
0
 10
26.9472
 20
-25.1246
 30
0.0
 40
0
 41
0
  0
VERTEX
  8
0
 10
26.9249
 20
-25.029
 30
0.0
 40
0
 41
0
  0
VERTEX
  8
0
 10
26.8526
 20
-24.7436
 30
0.0
 40
0
 41
0
  0
VERTEX
  8
0
 10
26.7451
 20
-24.3542
 30
0.0
 40
0
 41
0
  0
VERTEX
  8
0
 10
26.625
 20
-23.9571
 30
0.0
 40
0
 41
0
  0
VERTEX
  8
0
 10
26.4926
 20
-23.5529
 30
0.0
 40
0
 41
0
  0
VERTEX
  8
0
 10
26.3485
 20
-23.1426
 30
0.0
 40
0
 41
0
  0
VERTEX
  8
0
 10
26.1932
 20
-22.7271
 30
0.0
 40
0
 41
0
  0
VERTEX
  8
0
 10
26.0268
 20
-22.3069
 30
0.0
 40
0
 41
0
  0
VERTEX
  8
0
 10
25.8501
 20
-21.8829
 30
0.0
 40
0
 41
0
  0
VERTEX
  8
0
 10
25.6632
 20
-21.456
 30
0.0
 40
0
 41
0
  0
VERTEX
  8
0
 10
25.4668
 20
-21.0268
 30
0.0
 40
0
 41
0
  0
VERTEX
  8
0
 10
25.2611
 20
-20.5961
 30
0.0
 40
0
 41
0
  0
VERTEX
  8
0
 10
25.0467
 20
-20.1647
 30
0.0
 40
0
 41
0
  0
VERTEX
  8
0
 10
24.8239
 20
-19.7336
 30
0.0
 40
0
 41
0
  0
VERTEX
  8
0
 10
24.5932
 20
-19.3033
 30
0.0
 40
0
 41
0
  0
VERTEX
  8
0
 10
24.355
 20
-18.8747
 30
0.0
 40
0
 41
0
  0
VERTEX
  8
0
 10
24.1096
 20
-18.4488
 30
0.0
 40
0
 41
0
  0
VERTEX
  8
0
 10
23.8576
 20
-18.026
 30
0.0
 40
0
 41
0
  0
VERTEX
  8
0
 10
23.5993
 20
-17.6072
 30
0.0
 40
0
 41
0
  0
VERTEX
  8
0
 10
23.3353
 20
-17.1933
 30
0.0
 40
0
 41
0
  0
VERTEX
  8
0
 10
23.0658
 20
-16.785
 30
0.0
 40
0
 41
0
  0
VERTEX
  8
0
 10
22.7914
 20
-16.3832
 30
0.0
 40
0
 41
0
  0
VERTEX
  8
0
 10
22.5124
 20
-15.9885
 30
0.0
 40
0
 41
0
  0
VERTEX
  8
0
 10
22.2292
 20
-15.6018
 30
0.0
 40
0
 41
0
  0
VERTEX
  8
0
 10
21.9424
 20
-15.2239
 30
0.0
 40
0
 41
0
  0
VERTEX
  8
0
 10
21.6522
 20
-14.8556
 30
0.0
 40
0
 41
0
  0
VERTEX
  8
0
 10
21.3593
 20
-14.4975
 30
0.0
 40
0
 41
0
  0
VERTEX
  8
0
 10
21.0639
 20
-14.1507
 30
0.0
 40
0
 41
0
  0
VERTEX
  8
0
 10
20.7664
 20
-13.8157
 30
0.0
 40
0
 41
0
  0
VERTEX
  8
0
 10
20.4674
 20
-13.4934
 30
0.0
 40
0
 41
0
  0
VERTEX
  8
0
 10
20.1672
 20
-13.1846
 30
0.0
 40
0
 41
0
  0
VERTEX
  8
0
 10
19.8663
 20
-12.89
 30
0.0
 40
0
 41
0
  0
VERTEX
  8
0
 10
19.6413
 20
-12.6793
 30
0.0
 40
0
 41
0
  0
VERTEX
  8
0
 10
19.565
 20
-12.6105
 30
0.0
 40
0
 41
0
  0
VERTEX
  8
0
 10
19.3814
 20
-12.6583
 30
0.0
 40
0
 41
0
  0
VERTEX
  8
0
 10
18.8378
 20
-12.8283
 30
0.0
 40
0
 41
0
  0
VERTEX
  8
0
 10
18.1522
 20
-13.0918
 30
0.0
 40
0
 41
0
  0
VERTEX
  8
0
 10
17.5083
 20
-13.4014
 30
0.0
 40
0
 41
0
  0
VERTEX
  8
0
 10
16.9064
 20
-13.757
 30
0.0
 40
0
 41
0
  0
VERTEX
  8
0
 10
16.3464
 20
-14.159
 30
0.0
 40
0
 41
0
  0
VERTEX
  8
0
 10
15.8283
 20
-14.6076
 30
0.0
 40
0
 41
0
  0
VERTEX
  8
0
 10
15.3526
 20
-15.1029
 30
0.0
 40
0
 41
0
  0
VERTEX
  8
0
 10
15.0213
 20
-15.5051
 30
0.0
 40
0
 41
0
  0
VERTEX
  8
0
 10
14.9192
 20
-15.6453
 30
0.0
 40
0
 41
0
  0
VERTEX
  8
0
 10
15.0287
 20
-15.5324
 30
0.0
 40
0
 41
0
  0
VERTEX
  8
0
 10
15.3738
 20
-15.2096
 30
0.0
 40
0
 41
0
  0
VERTEX
  8
0
 10
15.8558
 20
-14.8108
 30
0.0
 40
0
 41
0
  0
VERTEX
  8
0
 10
16.3653
 20
-14.4489
 30
0.0
 40
0
 41
0
  0
VERTEX
  8
0
 10
16.9021
 20
-14.1236
 30
0.0
 40
0
 41
0
  0
VERTEX
  8
0
 10
17.4665
 20
-13.8351
 30
0.0
 40
0
 41
0
  0
VERTEX
  8
0
 10
18.0586
 20
-13.5833
 30
0.0
 40
0
 41
0
  0
VERTEX
  8
0
 10
18.6785
 20
-13.3684
 30
0.0
 40
0
 41
0
  0
VERTEX
  8
0
 10
19.1631
 20
-13.2295
 30
0.0
 40
0
 41
0
  0
VERTEX
  8
0
 10
19.3263
 20
-13.1902
 30
0.0
 40
0
 41
0
  0
VERTEX
  8
0
 10
19.4678
 20
-13.3605
 30
0.0
 40
0
 41
0
  0
VERTEX
  8
0
 10
19.8875
 20
-13.8753
 30
0.0
 40
0
 41
0
  0
VERTEX
  8
0
 10
20.4271
 20
-14.5536
 30
0.0
 40
0
 41
0
  0
VERTEX
  8
0
 10
20.9451
 20
-15.2257
 30
0.0
 40
0
 41
0
  0
VERTEX
  8
0
 10
21.4421
 20
-15.8924
 30
0.0
 40
0
 41
0
  0
VERTEX
  8
0
 10
21.9179
 20
-16.5544
 30
0.0
 40
0
 41
0
  0
VERTEX
  8
0
 10
22.3728
 20
-17.2126
 30
0.0
 40
0
 41
0
  0
VERTEX
  8
0
 10
22.8072
 20
-17.8678
 30
0.0
 40
0
 41
0
  0
VERTEX
  8
0
 10
23.2213
 20
-18.5207
 30
0.0
 40
0
 41
0
  0
VERTEX
  8
0
 10
23.6151
 20
-19.1719
 30
0.0
 40
0
 41
0
  0
VERTEX
  8
0
 10
23.989
 20
-19.8225
 30
0.0
 40
0
 41
0
  0
VERTEX
  8
0
 10
24.3432
 20
-20.4729
 30
0.0
 40
0
 41
0
  0
VERTEX
  8
0
 10
24.6779
 20
-21.1242
 30
0.0
 40
0
 41
0
  0
VERTEX
  8
0
 10
24.9933
 20
-21.7769
 30
0.0
 40
0
 41
0
  0
VERTEX
  8
0
 10
25.2897
 20
-22.4321
 30
0.0
 40
0
 41
0
  0
VERTEX
  8
0
 10
25.5674
 20
-23.0901
 30
0.0
 40
0
 41
0
  0
VERTEX
  8
0
 10
25.8263
 20
-23.7521
 30
0.0
 40
0
 41
0
  0
VERTEX
  8
0
 10
26.0668
 20
-24.4186
 30
0.0
 40
0
 41
0
  0
VERTEX
  8
0
 10
26.2893
 20
-25.0906
 30
0.0
 40
0
 41
0
  0
VERTEX
  8
0
 10
26.4938
 20
-25.7686
 30
0.0
 40
0
 41
0
  0
VERTEX
  8
0
 10
26.6806
 20
-26.4535
 30
0.0
 40
0
 41
0
  0
VERTEX
  8
0
 10
26.8499
 20
-27.1461
 30
0.0
 40
0
 41
0
  0
VERTEX
  8
0
 10
27.0018
 20
-27.8472
 30
0.0
 40
0
 41
0
  0
VERTEX
  8
0
 10
27.1368
 20
-28.5574
 30
0.0
 40
0
 41
0
  0
VERTEX
  8
0
 10
27.255
 20
-29.2776
 30
0.0
 40
0
 41
0
  0
VERTEX
  8
0
 10
27.3564
 20
-30.0086
 30
0.0
 40
0
 41
0
  0
VERTEX
  8
0
 10
27.4415
 20
-30.751
 30
0.0
 40
0
 41
0
  0
VERTEX
  8
0
 10
27.5106
 20
-31.5057
 30
0.0
 40
0
 41
0
  0
VERTEX
  8
0
 10
27.5636
 20
-32.2736
 30
0.0
 40
0
 41
0
  0
VERTEX
  8
0
 10
27.601
 20
-33.0551
 30
0.0
 40
0
 41
0
  0
VERTEX
  8
0
 10
27.6226
 20
-33.8513
 30
0.0
 40
0
 41
0
  0
VERTEX
  8
0
 10
27.6292
 20
-34.6628
 30
0.0
 40
0
 41
0
  0
VERTEX
  8
0
 10
27.6246
 20
-35.2836
 30
0.0
 40
0
 41
0
  0
VERTEX
  8
0
 10
27.6207
 20
-35.4904
 30
0.0
 40
0
 41
0
  0
VERTEX
  8
0
 10
27.6207
 20
-35.4904
 30
0.0
 40
0
 41
0
  0
SEQEND
 8
0
  0
POLYLINE
  8
0
 62
     82
 66
     1
 10
0
 20
0
 30
0.0
 70
     1
 40
0
 41
0
  0
VERTEX
  8
0
 10
27.365
 20
-34.4079
 30
0.0
 40
0
 41
0
  0
VERTEX
  8
0
 10
27.3665
 20
-34.1942
 30
0.0
 40
0
 41
0
  0
VERTEX
  8
0
 10
27.3658
 20
-33.5531
 30
0.0
 40
0
 41
0
  0
VERTEX
  8
0
 10
27.3556
 20
-32.7599
 30
0.0
 40
0
 41
0
  0
VERTEX
  8
0
 10
27.3343
 20
-32.0283
 30
0.0
 40
0
 41
0
  0
VERTEX
  8
0
 10
27.3021
 20
-31.3582
 30
0.0
 40
0
 41
0
  0
VERTEX
  8
0
 10
27.2592
 20
-30.7496
 30
0.0
 40
0
 41
0
  0
VERTEX
  8
0
 10
27.2056
 20
-30.2026
 30
0.0
 40
0
 41
0
  0
VERTEX
  8
0
 10
27.1413
 20
-29.7171
 30
0.0
 40
0
 41
0
  0
VERTEX
  8
0
 10
27.0881
 20
-29.3986
 30
0.0
 40
0
 41
0
  0
VERTEX
  8
0
 10
27.0667
 20
-29.2932
 30
0.0
 40
0
 41
0
  0
VERTEX
  8
0
 10
27.0121
 20
-29.1106
 30
0.0
 40
0
 41
0
  0
VERTEX
  8
0
 10
26.8411
 20
-28.5647
 30
0.0
 40
0
 41
0
  0
VERTEX
  8
0
 10
26.5987
 20
-27.8353
 30
0.0
 40
0
 41
0
  0
VERTEX
  8
0
 10
26.3386
 20
-27.1061
 30
0.0
 40
0
 41
0
  0
VERTEX
  8
0
 10
26.0599
 20
-26.3785
 30
0.0
 40
0
 41
0
  0
VERTEX
  8
0
 10
25.7617
 20
-25.654
 30
0.0
 40
0
 41
0
  0
VERTEX
  8
0
 10
25.4432
 20
-24.934
 30
0.0
 40
0
 41
0
  0
VERTEX
  8
0
 10
25.1035
 20
-24.22
 30
0.0
 40
0
 41
0
  0
VERTEX
  8
0
 10
24.7415
 20
-23.5133
 30
0.0
 40
0
 41
0
  0
VERTEX
  8
0
 10
24.3567
 20
-22.8156
 30
0.0
 40
0
 41
0
  0
VERTEX
  8
0
 10
23.9479
 20
-22.1279
 30
0.0
 40
0
 41
0
  0
VERTEX
  8
0
 10
23.5146
 20
-21.4519
 30
0.0
 40
0
 41
0
  0
VERTEX
  8
0
 10
23.0556
 20
-20.789
 30
0.0
 40
0
 41
0
  0
VERTEX
  8
0
 10
22.57
 20
-20.1406
 30
0.0
 40
0
 41
0
  0
VERTEX
  8
0
 10
22.0572
 20
-19.5081
 30
0.0
 40
0
 41
0
  0
VERTEX
  8
0
 10
21.5161
 20
-18.8928
 30
0.0
 40
0
 41
0
  0
VERTEX
  8
0
 10
21.0915
 20
-18.4424
 30
0.0
 40
0
 41
0
  0
VERTEX
  8
0
 10
20.946
 20
-18.2964
 30
0.0
 40
0
 41
0
  0
VERTEX
  8
0
 10
20.775
 20
-18.3601
 30
0.0
 40
0
 41
0
  0
VERTEX
  8
0
 10
20.2656
 20
-18.5607
 30
0.0
 40
0
 41
0
  0
VERTEX
  8
0
 10
19.6053
 20
-18.839
 30
0.0
 40
0
 41
0
  0
VERTEX
  8
0
 10
18.9653
 20
-19.1312
 30
0.0
 40
0
 41
0
  0
VERTEX
  8
0
 10
18.3456
 20
-19.4375
 30
0.0
 40
0
 41
0
  0
VERTEX
  8
0
 10
17.746
 20
-19.7576
 30
0.0
 40
0
 41
0
  0
VERTEX
  8
0
 10
17.1667
 20
-20.0917
 30
0.0
 40
0
 41
0
  0
VERTEX
  8
0
 10
16.6076
 20
-20.4396
 30
0.0
 40
0
 41
0
  0
VERTEX
  8
0
 10
16.0689
 20
-20.8015
 30
0.0
 40
0
 41
0
  0
VERTEX
  8
0
 10
15.5503
 20
-21.1774
 30
0.0
 40
0
 41
0
  0
VERTEX
  8
0
 10
15.0521
 20
-21.5669
 30
0.0
 40
0
 41
0
  0
VERTEX
  8
0
 10
14.5742
 20
-21.9704
 30
0.0
 40
0
 41
0
  0
VERTEX
  8
0
 10
14.1165
 20
-22.3878
 30
0.0
 40
0
 41
0
  0
VERTEX
  8
0
 10
13.6793
 20
-22.8189
 30
0.0
 40
0
 41
0
  0
VERTEX
  8
0
 10
13.2624
 20
-23.2639
 30
0.0
 40
0
 41
0
  0
VERTEX
  8
0
 10
12.8658
 20
-23.7228
 30
0.0
 40
0
 41
0
  0
VERTEX
  8
0
 10
12.5812
 20
-24.0754
 30
0.0
 40
0
 41
0
  0
VERTEX
  8
0
 10
12.4896
 20
-24.1954
 30
0.0
 40
0
 41
0
  0
VERTEX
  8
0
 10
12.6426
 20
-24.0715
 30
0.0
 40
0
 41
0
  0
VERTEX
  8
0
 10
13.1047
 20
-23.7033
 30
0.0
 40
0
 41
0
  0
VERTEX
  8
0
 10
13.7063
 20
-23.2344
 30
0.0
 40
0
 41
0
  0
VERTEX
  8
0
 10
14.2946
 20
-22.7883
 30
0.0
 40
0
 41
0
  0
VERTEX
  8
0
 10
14.8696
 20
-22.3654
 30
0.0
 40
0
 41
0
  0
VERTEX
  8
0
 10
15.4311
 20
-21.9654
 30
0.0
 40
0
 41
0
  0
VERTEX
  8
0
 10
15.9792
 20
-21.5885
 30
0.0
 40
0
 41
0
  0
VERTEX
  8
0
 10
16.5139
 20
-21.2346
 30
0.0
 40
0
 41
0
  0
VERTEX
  8
0
 10
17.0353
 20
-20.9037
 30
0.0
 40
0
 41
0
  0
VERTEX
  8
0
 10
17.5433
 20
-20.5961
 30
0.0
 40
0
 41
0
  0
VERTEX
  8
0
 10
18.0379
 20
-20.3114
 30
0.0
 40
0
 41
0
  0
VERTEX
  8
0
 10
18.5192
 20
-20.0499
 30
0.0
 40
0
 41
0
  0
VERTEX
  8
0
 10
18.9868
 20
-19.8115
 30
0.0
 40
0
 41
0
  0
VERTEX
  8
0
 10
19.4414
 20
-19.5963
 30
0.0
 40
0
 41
0
  0
VERTEX
  8
0
 10
19.8824
 20
-19.404
 30
0.0
 40
0
 41
0
  0
VERTEX
  8
0
 10
20.31
 20
-19.235
 30
0.0
 40
0
 41
0
  0
VERTEX
  8
0
 10
20.62
 20
-19.1235
 30
0.0
 40
0
 41
0
  0
VERTEX
  8
0
 10
20.7243
 20
-19.0892
 30
0.0
 40
0
 41
0
  0
VERTEX
  8
0
 10
20.8378
 20
-19.2364
 30
0.0
 40
0
 41
0
  0
VERTEX
  8
0
 10
21.1746
 20
-19.6807
 30
0.0
 40
0
 41
0
  0
VERTEX
  8
0
 10
21.6228
 20
-20.2847
 30
0.0
 40
0
 41
0
  0
VERTEX
  8
0
 10
22.0667
 20
-20.9
 30
0.0
 40
0
 41
0
  0
VERTEX
  8
0
 10
22.5046
 20
-21.526
 30
0.0
 40
0
 41
0
  0
VERTEX
  8
0
 10
22.9344
 20
-22.1615
 30
0.0
 40
0
 41
0
  0
VERTEX
  8
0
 10
23.3542
 20
-22.8056
 30
0.0
 40
0
 41
0
  0
VERTEX
  8
0
 10
23.7618
 20
-23.4571
 30
0.0
 40
0
 41
0
  0
VERTEX
  8
0
 10
24.1554
 20
-24.1156
 30
0.0
 40
0
 41
0
  0
VERTEX
  8
0
 10
24.5332
 20
-24.7794
 30
0.0
 40
0
 41
0
  0
VERTEX
  8
0
 10
24.8929
 20
-25.4482
 30
0.0
 40
0
 41
0
  0
VERTEX
  8
0
 10
25.2326
 20
-26.1207
 30
0.0
 40
0
 41
0
  0
VERTEX
  8
0
 10
25.5506
 20
-26.7961
 30
0.0
 40
0
 41
0
  0
VERTEX
  8
0
 10
25.8446
 20
-27.4732
 30
0.0
 40
0
 41
0
  0
VERTEX
  8
0
 10
26.1128
 20
-28.1513
 30
0.0
 40
0
 41
0
  0
VERTEX
  8
0
 10
26.3531
 20
-28.8293
 30
0.0
 40
0
 41
0
  0
VERTEX
  8
0
 10
26.5146
 20
-29.336
 30
0.0
 40
0
 41
0
  0
VERTEX
  8
0
 10
26.5637
 20
-29.5062
 30
0.0
 40
0
 41
0
  0
VERTEX
  8
0
 10
26.5033
 20
-29.3467
 30
0.0
 40
0
 41
0
  0
VERTEX
  8
0
 10
26.3111
 20
-28.8726
 30
0.0
 40
0
 41
0
  0
VERTEX
  8
0
 10
26.0314
 20
-28.2325
 30
0.0
 40
0
 41
0
  0
VERTEX
  8
0
 10
25.7264
 20
-27.5875
 30
0.0
 40
0
 41
0
  0
VERTEX
  8
0
 10
25.3982
 20
-26.9393
 30
0.0
 40
0
 41
0
  0
VERTEX
  8
0
 10
25.0489
 20
-26.2896
 30
0.0
 40
0
 41
0
  0
VERTEX
  8
0
 10
24.6807
 20
-25.64
 30
0.0
 40
0
 41
0
  0
VERTEX
  8
0
 10
24.2956
 20
-24.9922
 30
0.0
 40
0
 41
0
  0
VERTEX
  8
0
 10
23.8954
 20
-24.3478
 30
0.0
 40
0
 41
0
  0
VERTEX
  8
0
 10
23.4826
 20
-23.7085
 30
0.0
 40
0
 41
0
  0
VERTEX
  8
0
 10
23.059
 20
-23.0758
 30
0.0
 40
0
 41
0
  0
VERTEX
  8
0
 10
22.6269
 20
-22.4517
 30
0.0
 40
0
 41
0
  0
VERTEX
  8
0
 10
22.1882
 20
-21.8376
 30
0.0
 40
0
 41
0
  0
VERTEX
  8
0
 10
21.7449
 20
-21.2354
 30
0.0
 40
0
 41
0
  0
VERTEX
  8
0
 10
21.2992
 20
-20.6464
 30
0.0
 40
0
 41
0
  0
VERTEX
  8
0
 10
20.8532
 20
-20.0725
 30
0.0
 40
0
 41
0
  0
VERTEX
  8
0
 10
20.5208
 20
-19.654
 30
0.0
 40
0
 41
0
  0
VERTEX
  8
0
 10
20.4089
 20
-19.5154
 30
0.0
 40
0
 41
0
  0
VERTEX
  8
0
 10
20.3492
 20
-19.541
 30
0.0
 40
0
 41
0
  0
VERTEX
  8
0
 10
20.0392
 20
-19.6678
 30
0.0
 40
0
 41
0
  0
VERTEX
  8
0
 10
19.7162
 20
-19.7903
 30
0.0
 40
0
 41
0
  0
VERTEX
  8
0
 10
19.6503
 20
-19.8137
 30
0.0
 40
0
 41
0
  0
VERTEX
  8
0
 10
19.8219
 20
-20.0382
 30
0.0
 40
0
 41
0
  0
VERTEX
  8
0
 10
20.3317
 20
-20.7162
 30
0.0
 40
0
 41
0
  0
VERTEX
  8
0
 10
20.9828
 20
-21.6037
 30
0.0
 40
0
 41
0
  0
VERTEX
  8
0
 10
21.6043
 20
-22.4799
 30
0.0
 40
0
 41
0
  0
VERTEX
  8
0
 10
22.1971
 20
-23.3479
 30
0.0
 40
0
 41
0
  0
VERTEX
  8
0
 10
22.7619
 20
-24.2117
 30
0.0
 40
0
 41
0
  0
VERTEX
  8
0
 10
23.2997
 20
-25.0742
 30
0.0
 40
0
 41
0
  0
VERTEX
  8
0
 10
23.8113
 20
-25.9393
 30
0.0
 40
0
 41
0
  0
VERTEX
  8
0
 10
24.2972
 20
-26.8103
 30
0.0
 40
0
 41
0
  0
VERTEX
  8
0
 10
24.7585
 20
-27.6907
 30
0.0
 40
0
 41
0
  0
VERTEX
  8
0
 10
25.196
 20
-28.5839
 30
0.0
 40
0
 41
0
  0
VERTEX
  8
0
 10
25.6104
 20
-29.4935
 30
0.0
 40
0
 41
0
  0
VERTEX
  8
0
 10
26.0025
 20
-30.4229
 30
0.0
 40
0
 41
0
  0
VERTEX
  8
0
 10
26.3732
 20
-31.3756
 30
0.0
 40
0
 41
0
  0
VERTEX
  8
0
 10
26.7233
 20
-32.3549
 30
0.0
 40
0
 41
0
  0
VERTEX
  8
0
 10
27.0536
 20
-33.3646
 30
0.0
 40
0
 41
0
  0
VERTEX
  8
0
 10
27.2904
 20
-34.1461
 30
0.0
 40
0
 41
0
  0
VERTEX
  8
0
 10
27.365
 20
-34.4079
 30
0.0
 40
0
 41
0
  0
VERTEX
  8
0
 10
27.365
 20
-34.4079
 30
0.0
 40
0
 41
0
  0
SEQEND
 8
0
  0
POLYLINE
  8
0
 62
     82
 66
     1
 10
0
 20
0
 30
0.0
 70
     1
 40
0
 41
0
  0
VERTEX
  8
0
 10
10.8017
 20
-25.5082
 30
0.0
 40
0
 41
0
  0
VERTEX
  8
0
 10
10.9179
 20
-25.3519
 30
0.0
 40
0
 41
0
  0
VERTEX
  8
0
 10
11.2757
 20
-24.8903
 30
0.0
 40
0
 41
0
  0
VERTEX
  8
0
 10
11.7611
 20
-24.2962
 30
0.0
 40
0
 41
0
  0
VERTEX
  8
0
 10
12.2579
 20
-23.726
 30
0.0
 40
0
 41
0
  0
VERTEX
  8
0
 10
12.7661
 20
-23.1793
 30
0.0
 40
0
 41
0
  0
VERTEX
  8
0
 10
13.2856
 20
-22.6565
 30
0.0
 40
0
 41
0
  0
VERTEX
  8
0
 10
13.8166
 20
-22.1576
 30
0.0
 40
0
 41
0
  0
VERTEX
  8
0
 10
14.3589
 20
-21.6824
 30
0.0
 40
0
 41
0
  0
VERTEX
  8
0
 10
14.9126
 20
-21.231
 30
0.0
 40
0
 41
0
  0
VERTEX
  8
0
 10
15.4778
 20
-20.8033
 30
0.0
 40
0
 41
0
  0
VERTEX
  8
0
 10
16.0543
 20
-20.3994
 30
0.0
 40
0
 41
0
  0
VERTEX
  8
0
 10
16.6422
 20
-20.0193
 30
0.0
 40
0
 41
0
  0
VERTEX
  8
0
 10
17.2415
 20
-19.6629
 30
0.0
 40
0
 41
0
  0
VERTEX
  8
0
 10
17.8522
 20
-19.3304
 30
0.0
 40
0
 41
0
  0
VERTEX
  8
0
 10
18.4742
 20
-19.0217
 30
0.0
 40
0
 41
0
  0
VERTEX
  8
0
 10
19.1076
 20
-18.7367
 30
0.0
 40
0
 41
0
  0
VERTEX
  8
0
 10
19.5901
 20
-18.5376
 30
0.0
 40
0
 41
0
  0
VERTEX
  8
0
 10
19.7525
 20
-18.4754
 30
0.0
 40
0
 41
0
  0
VERTEX
  8
0
 10
19.7279
 20
-18.441
 30
0.0
 40
0
 41
0
  0
VERTEX
  8
0
 10
19.6468
 20
-18.3426
 30
0.0
 40
0
 41
0
  0
VERTEX
  8
0
 10
19.5203
 20
-18.2122
 30
0.0
 40
0
 41
0
  0
VERTEX
  8
0
 10
19.3712
 20
-18.0833
 30
0.0
 40
0
 41
0
  0
VERTEX
  8
0
 10
19.2426
 20
-17.9858
 30
0.0
 40
0
 41
0
  0
VERTEX
  8
0
 10
19.1985
 20
-17.9554
 30
0.0
 40
0
 41
0
  0
VERTEX
  8
0
 10
19.0067
 20
-18.0382
 30
0.0
 40
0
 41
0
  0
VERTEX
  8
0
 10
18.4374
 20
-18.2996
 30
0.0
 40
0
 41
0
  0
VERTEX
  8
0
 10
17.7079
 20
-18.6607
 30
0.0
 40
0
 41
0
  0
VERTEX
  8
0
 10
17.01
 20
-19.0388
 30
0.0
 40
0
 41
0
  0
VERTEX
  8
0
 10
16.3436
 20
-19.434
 30
0.0
 40
0
 41
0
  0
VERTEX
  8
0
 10
15.7088
 20
-19.8463
 30
0.0
 40
0
 41
0
  0
VERTEX
  8
0
 10
15.1054
 20
-20.2754
 30
0.0
 40
0
 41
0
  0
VERTEX
  8
0
 10
14.5335
 20
-20.7217
 30
0.0
 40
0
 41
0
  0
VERTEX
  8
0
 10
13.9931
 20
-21.1851
 30
0.0
 40
0
 41
0
  0
VERTEX
  8
0
 10
13.4842
 20
-21.6656
 30
0.0
 40
0
 41
0
  0
VERTEX
  8
0
 10
13.0067
 20
-22.1632
 30
0.0
 40
0
 41
0
  0
VERTEX
  8
0
 10
12.5607
 20
-22.6778
 30
0.0
 40
0
 41
0
  0
VERTEX
  8
0
 10
12.1461
 20
-23.2096
 30
0.0
 40
0
 41
0
  0
VERTEX
  8
0
 10
11.7629
 20
-23.7585
 30
0.0
 40
0
 41
0
  0
VERTEX
  8
0
 10
11.4111
 20
-24.3246
 30
0.0
 40
0
 41
0
  0
VERTEX
  8
0
 10
11.0907
 20
-24.9078
 30
0.0
 40
0
 41
0
  0
VERTEX
  8
0
 10
10.8698
 20
-25.3563
 30
0.0
 40
0
 41
0
  0
VERTEX
  8
0
 10
10.8017
 20
-25.5082
 30
0.0
 40
0
 41
0
  0
VERTEX
  8
0
 10
10.8017
 20
-25.5082
 30
0.0
 40
0
 41
0
  0
SEQEND
 8
0
  0
POLYLINE
  8
0
 62
     82
 66
     1
 10
0
 20
0
 30
0.0
 70
     1
 40
0
 41
0
  0
VERTEX
  8
0
 10
30.2122
 20
-31.3731
 30
0.0
 40
0
 41
0
  0
VERTEX
  8
0
 10
30.1982
 20
-31.406
 30
0.0
 40
0
 41
0
  0
VERTEX
  8
0
 10
30.1597
 20
-31.506
 30
0.0
 40
0
 41
0
  0
VERTEX
  8
0
 10
30.1047
 20
-31.6647
 30
0.0
 40
0
 41
0
  0
VERTEX
  8
0
 10
30.0471
 20
-31.8496
 30
0.0
 40
0
 41
0
  0
VERTEX
  8
0
 10
29.9868
 20
-32.0606
 30
0.0
 40
0
 41
0
  0
VERTEX
  8
0
 10
29.9239
 20
-32.2974
 30
0.0
 40
0
 41
0
  0
VERTEX
  8
0
 10
29.8585
 20
-32.5603
 30
0.0
 40
0
 41
0
  0
VERTEX
  8
0
 10
29.7904
 20
-32.8493
 30
0.0
 40
0
 41
0
  0
VERTEX
  8
0
 10
29.7199
 20
-33.1643
 30
0.0
 40
0
 41
0
  0
VERTEX
  8
0
 10
29.6467
 20
-33.5054
 30
0.0
 40
0
 41
0
  0
VERTEX
  8
0
 10
29.5708
 20
-33.8725
 30
0.0
 40
0
 41
0
  0
VERTEX
  8
0
 10
29.4924
 20
-34.2658
 30
0.0
 40
0
 41
0
  0
VERTEX
  8
0
 10
29.4114
 20
-34.6853
 30
0.0
 40
0
 41
0
  0
VERTEX
  8
0
 10
29.3278
 20
-35.1308
 30
0.0
 40
0
 41
0
  0
VERTEX
  8
0
 10
29.2415
 20
-35.6025
 30
0.0
 40
0
 41
0
  0
VERTEX
  8
0
 10
29.1528
 20
-36.1003
 30
0.0
 40
0
 41
0
  0
VERTEX
  8
0
 10
29.0839
 20
-36.4932
 30
0.0
 40
0
 41
0
  0
VERTEX
  8
0
 10
29.0614
 20
-36.6243
 30
0.0
 40
0
 41
0
  0
VERTEX
  8
0
 10
29.0667
 20
-36.3975
 30
0.0
 40
0
 41
0
  0
VERTEX
  8
0
 10
29.0753
 20
-35.7171
 30
0.0
 40
0
 41
0
  0
VERTEX
  8
0
 10
29.0724
 20
-34.8819
 30
0.0
 40
0
 41
0
  0
VERTEX
  8
0
 10
29.0525
 20
-34.1183
 30
0.0
 40
0
 41
0
  0
VERTEX
  8
0
 10
29.0156
 20
-33.4264
 30
0.0
 40
0
 41
0
  0
VERTEX
  8
0
 10
28.9614
 20
-32.8061
 30
0.0
 40
0
 41
0
  0
VERTEX
  8
0
 10
28.8899
 20
-32.2571
 30
0.0
 40
0
 41
0
  0
VERTEX
  8
0
 10
28.8011
 20
-31.7794
 30
0.0
 40
0
 41
0
  0
VERTEX
  8
0
 10
28.726
 20
-31.4732
 30
0.0
 40
0
 41
0
  0
VERTEX
  8
0
 10
28.6949
 20
-31.3731
 30
0.0
 40
0
 41
0
  0
VERTEX
  8
0
 10
28.7329
 20
-31.1597
 30
0.0
 40
0
 41
0
  0
VERTEX
  8
0
 10
28.851
 20
-30.5204
 30
0.0
 40
0
 41
0
  0
VERTEX
  8
0
 10
29.015
 20
-29.6728
 30
0.0
 40
0
 41
0
  0
VERTEX
  8
0
 10
29.1878
 20
-28.8306
 30
0.0
 40
0
 41
0
  0
VERTEX
  8
0
 10
29.3704
 20
-27.994
 30
0.0
 40
0
 41
0
  0
VERTEX
  8
0
 10
29.5639
 20
-27.1636
 30
0.0
 40
0
 41
0
  0
VERTEX
  8
0
 10
29.7694
 20
-26.3396
 30
0.0
 40
0
 41
0
  0
VERTEX
  8
0
 10
29.9879
 20
-25.5221
 30
0.0
 40
0
 41
0
  0
VERTEX
  8
0
 10
30.2203
 20
-24.7118
 30
0.0
 40
0
 41
0
  0
VERTEX
  8
0
 10
30.4678
 20
-23.9088
 30
0.0
 40
0
 41
0
  0
VERTEX
  8
0
 10
30.7314
 20
-23.1135
 30
0.0
 40
0
 41
0
  0
VERTEX
  8
0
 10
31.0121
 20
-22.3261
 30
0.0
 40
0
 41
0
  0
VERTEX
  8
0
 10
31.311
 20
-21.5472
 30
0.0
 40
0
 41
0
  0
VERTEX
  8
0
 10
31.629
 20
-20.7769
 30
0.0
 40
0
 41
0
  0
VERTEX
  8
0
 10
31.9674
 20
-20.0156
 30
0.0
 40
0
 41
0
  0
VERTEX
  8
0
 10
32.3269
 20
-19.2636
 30
0.0
 40
0
 41
0
  0
VERTEX
  8
0
 10
32.7089
 20
-18.5213
 30
0.0
 40
0
 41
0
  0
VERTEX
  8
0
 10
33.114
 20
-17.7888
 30
0.0
 40
0
 41
0
  0
VERTEX
  8
0
 10
33.5436
 20
-17.0667
 30
0.0
 40
0
 41
0
  0
VERTEX
  8
0
 10
33.9987
 20
-16.3551
 30
0.0
 40
0
 41
0
  0
VERTEX
  8
0
 10
34.4803
 20
-15.6546
 30
0.0
 40
0
 41
0
  0
VERTEX
  8
0
 10
34.9893
 20
-14.9653
 30
0.0
 40
0
 41
0
  0
VERTEX
  8
0
 10
35.5268
 20
-14.2876
 30
0.0
 40
0
 41
0
  0
VERTEX
  8
0
 10
36.094
 20
-13.6218
 30
0.0
 40
0
 41
0
  0
VERTEX
  8
0
 10
36.6918
 20
-12.9684
 30
0.0
 40
0
 41
0
  0
VERTEX
  8
0
 10
37.3212
 20
-12.3274
 30
0.0
 40
0
 41
0
  0
VERTEX
  8
0
 10
37.9833
 20
-11.6994
 30
0.0
 40
0
 41
0
  0
VERTEX
  8
0
 10
38.6792
 20
-11.0845
 30
0.0
 40
0
 41
0
  0
VERTEX
  8
0
 10
39.4097
 20
-10.4833
 30
0.0
 40
0
 41
0
  0
VERTEX
  8
0
 10
40.1761
 20
-9.89589
 30
0.0
 40
0
 41
0
  0
VERTEX
  8
0
 10
40.9794
 20
-9.32275
 30
0.0
 40
0
 41
0
  0
VERTEX
  8
0
 10
41.8206
 20
-8.76411
 30
0.0
 40
0
 41
0
  0
VERTEX
  8
0
 10
42.4785
 20
-8.35271
 30
0.0
 40
0
 41
0
  0
VERTEX
  8
0
 10
42.7007
 20
-8.22032
 30
0.0
 40
0
 41
0
  0
VERTEX
  8
0
 10
42.3875
 20
-8.46924
 30
0.0
 40
0
 41
0
  0
VERTEX
  8
0
 10
41.4663
 20
-9.23887
 30
0.0
 40
0
 41
0
  0
VERTEX
  8
0
 10
40.2892
 20
-10.2868
 30
0.0
 40
0
 41
0
  0
VERTEX
  8
0
 10
39.1697
 20
-11.3637
 30
0.0
 40
0
 41
0
  0
VERTEX
  8
0
 10
38.1086
 20
-12.469
 30
0.0
 40
0
 41
0
  0
VERTEX
  8
0
 10
37.1064
 20
-13.6024
 30
0.0
 40
0
 41
0
  0
VERTEX
  8
0
 10
36.1638
 20
-14.7635
 30
0.0
 40
0
 41
0
  0
VERTEX
  8
0
 10
35.2813
 20
-15.9518
 30
0.0
 40
0
 41
0
  0
VERTEX
  8
0
 10
34.4596
 20
-17.1669
 30
0.0
 40
0
 41
0
  0
VERTEX
  8
0
 10
33.6992
 20
-18.4083
 30
0.0
 40
0
 41
0
  0
VERTEX
  8
0
 10
33.0007
 20
-19.6757
 30
0.0
 40
0
 41
0
  0
VERTEX
  8
0
 10
32.3647
 20
-20.9686
 30
0.0
 40
0
 41
0
  0
VERTEX
  8
0
 10
31.7919
 20
-22.2867
 30
0.0
 40
0
 41
0
  0
VERTEX
  8
0
 10
31.2828
 20
-23.6294
 30
0.0
 40
0
 41
0
  0
VERTEX
  8
0
 10
30.8381
 20
-24.9962
 30
0.0
 40
0
 41
0
  0
VERTEX
  8
0
 10
30.4582
 20
-26.3871
 30
0.0
 40
0
 41
0
  0
VERTEX
  8
0
 10
30.214
 20
-27.4461
 30
0.0
 40
0
 41
0
  0
VERTEX
  8
0
 10
30.144
 20
-27.8014
 30
0.0
 40
0
 41
0
  0
VERTEX
  8
0
 10
30.2082
 20
-27.5749
 30
0.0
 40
0
 41
0
  0
VERTEX
  8
0
 10
30.411
 20
-26.8986
 30
0.0
 40
0
 41
0
  0
VERTEX
  8
0
 10
30.7068
 20
-25.9744
 30
0.0
 40
0
 41
0
  0
VERTEX
  8
0
 10
31.0317
 20
-25.0338
 30
0.0
 40
0
 41
0
  0
VERTEX
  8
0
 10
31.3857
 20
-24.0812
 30
0.0
 40
0
 41
0
  0
VERTEX
  8
0
 10
31.7689
 20
-23.1219
 30
0.0
 40
0
 41
0
  0
VERTEX
  8
0
 10
32.1815
 20
-22.1607
 30
0.0
 40
0
 41
0
  0
VERTEX
  8
0
 10
32.6237
 20
-21.2022
 30
0.0
 40
0
 41
0
  0
VERTEX
  8
0
 10
33.0956
 20
-20.2517
 30
0.0
 40
0
 41
0
  0
VERTEX
  8
0
 10
33.5972
 20
-19.3139
 30
0.0
 40
0
 41
0
  0
VERTEX
  8
0
 10
34.1288
 20
-18.3935
 30
0.0
 40
0
 41
0
  0
VERTEX
  8
0
 10
34.6903
 20
-17.4957
 30
0.0
 40
0
 41
0
  0
VERTEX
  8
0
 10
35.2819
 20
-16.6251
 30
0.0
 40
0
 41
0
  0
VERTEX
  8
0
 10
35.9039
 20
-15.7868
 30
0.0
 40
0
 41
0
  0
VERTEX
  8
0
 10
36.5561
 20
-14.9857
 30
0.0
 40
0
 41
0
  0
VERTEX
  8
0
 10
37.239
 20
-14.2264
 30
0.0
 40
0
 41
0
  0
VERTEX
  8
0
 10
37.7692
 20
-13.687
 30
0.0
 40
0
 41
0
  0
VERTEX
  8
0
 10
37.9525
 20
-13.5141
 30
0.0
 40
0
 41
0
  0
VERTEX
  8
0
 10
38.1432
 20
-13.5935
 30
0.0
 40
0
 41
0
  0
VERTEX
  8
0
 10
38.7006
 20
-13.8677
 30
0.0
 40
0
 41
0
  0
VERTEX
  8
0
 10
39.455
 20
-14.3085
 30
0.0
 40
0
 41
0
  0
VERTEX
  8
0
 10
40.2158
 20
-14.8362
 30
0.0
 40
0
 41
0
  0
VERTEX
  8
0
 10
40.9829
 20
-15.4512
 30
0.0
 40
0
 41
0
  0
VERTEX
  8
0
 10
41.7565
 20
-16.1533
 30
0.0
 40
0
 41
0
  0
VERTEX
  8
0
 10
42.5365
 20
-16.9425
 30
0.0
 40
0
 41
0
  0
VERTEX
  8
0
 10
43.3229
 20
-17.8189
 30
0.0
 40
0
 41
0
  0
VERTEX
  8
0
 10
43.9224
 20
-18.5376
 30
0.0
 40
0
 41
0
  0
VERTEX
  8
0
 10
44.1158
 20
-18.7822
 30
0.0
 40
0
 41
0
  0
VERTEX
  8
0
 10
43.9257
 20
-18.5907
 30
0.0
 40
0
 41
0
  0
VERTEX
  8
0
 10
43.3425
 20
-18.029
 30
0.0
 40
0
 41
0
  0
VERTEX
  8
0
 10
42.5764
 20
-17.3358
 30
0.0
 40
0
 41
0
  0
VERTEX
  8
0
 10
41.8172
 20
-16.7024
 30
0.0
 40
0
 41
0
  0
VERTEX
  8
0
 10
41.065
 20
-16.129
 30
0.0
 40
0
 41
0
  0
VERTEX
  8
0
 10
40.3196
 20
-15.6156
 30
0.0
 40
0
 41
0
  0
VERTEX
  8
0
 10
39.5808
 20
-15.1619
 30
0.0
 40
0
 41
0
  0
VERTEX
  8
0
 10
38.8486
 20
-14.7683
 30
0.0
 40
0
 41
0
  0
VERTEX
  8
0
 10
38.3069
 20
-14.5121
 30
0.0
 40
0
 41
0
  0
VERTEX
  8
0
 10
38.1231
 20
-14.4347
 30
0.0
 40
0
 41
0
  0
VERTEX
  8
0
 10
38.0275
 20
-14.5329
 30
0.0
 40
0
 41
0
  0
VERTEX
  8
0
 10
37.7475
 20
-14.8336
 30
0.0
 40
0
 41
0
  0
VERTEX
  8
0
 10
37.3772
 20
-15.2512
 30
0.0
 40
0
 41
0
  0
VERTEX
  8
0
 10
37.0124
 20
-15.6865
 30
0.0
 40
0
 41
0
  0
VERTEX
  8
0
 10
36.6533
 20
-16.1383
 30
0.0
 40
0
 41
0
  0
VERTEX
  8
0
 10
36.3006
 20
-16.606
 30
0.0
 40
0
 41
0
  0
VERTEX
  8
0
 10
35.9542
 20
-17.0881
 30
0.0
 40
0
 41
0
  0
VERTEX
  8
0
 10
35.6143
 20
-17.5838
 30
0.0
 40
0
 41
0
  0
VERTEX
  8
0
 10
35.2818
 20
-18.0919
 30
0.0
 40
0
 41
0
  0
VERTEX
  8
0
 10
34.9565
 20
-18.6117
 30
0.0
 40
0
 41
0
  0
VERTEX
  8
0
 10
34.6389
 20
-19.1418
 30
0.0
 40
0
 41
0
  0
VERTEX
  8
0
 10
34.3292
 20
-19.6814
 30
0.0
 40
0
 41
0
  0
VERTEX
  8
0
 10
34.0278
 20
-20.2294
 30
0.0
 40
0
 41
0
  0
VERTEX
  8
0
 10
33.735
 20
-20.7849
 30
0.0
 40
0
 41
0
  0
VERTEX
  8
0
 10
33.4511
 20
-21.3467
 30
0.0
 40
0
 41
0
  0
VERTEX
  8
0
 10
33.1764
 20
-21.9138
 30
0.0
 40
0
 41
0
  0
VERTEX
  8
0
 10
32.9113
 20
-22.4851
 30
0.0
 40
0
 41
0
  0
VERTEX
  8
0
 10
32.6558
 20
-23.0597
 30
0.0
 40
0
 41
0
  0
VERTEX
  8
0
 10
32.4107
 20
-23.6367
 30
0.0
 40
0
 41
0
  0
VERTEX
  8
0
 10
32.1758
 20
-24.2149
 30
0.0
 40
0
 41
0
  0
VERTEX
  8
0
 10
31.9517
 20
-24.7932
 30
0.0
 40
0
 41
0
  0
VERTEX
  8
0
 10
31.7386
 20
-25.3707
 30
0.0
 40
0
 41
0
  0
VERTEX
  8
0
 10
31.5369
 20
-25.9463
 30
0.0
 40
0
 41
0
  0
VERTEX
  8
0
 10
31.3469
 20
-26.519
 30
0.0
 40
0
 41
0
  0
VERTEX
  8
0
 10
31.1689
 20
-27.0878
 30
0.0
 40
0
 41
0
  0
VERTEX
  8
0
 10
31.0032
 20
-27.6515
 30
0.0
 40
0
 41
0
  0
VERTEX
  8
0
 10
30.85
 20
-28.2094
 30
0.0
 40
0
 41
0
  0
VERTEX
  8
0
 10
30.7096
 20
-28.7601
 30
0.0
 40
0
 41
0
  0
VERTEX
  8
0
 10
30.5825
 20
-29.3031
 30
0.0
 40
0
 41
0
  0
VERTEX
  8
0
 10
30.4689
 20
-29.8367
 30
0.0
 40
0
 41
0
  0
VERTEX
  8
0
 10
30.369
 20
-30.3603
 30
0.0
 40
0
 41
0
  0
VERTEX
  8
0
 10
30.2835
 20
-30.8728
 30
0.0
 40
0
 41
0
  0
VERTEX
  8
0
 10
30.2283
 20
-31.2478
 30
0.0
 40
0
 41
0
  0
VERTEX
  8
0
 10
30.2122
 20
-31.3731
 30
0.0
 40
0
 41
0
  0
VERTEX
  8
0
 10
30.2122
 20
-31.3731
 30
0.0
 40
0
 41
0
  0
SEQEND
 8
0
  0
POLYLINE
  8
0
 62
     82
 66
     1
 10
0
 20
0
 30
0.0
 70
     1
 40
0
 41
0
  0
VERTEX
  8
0
 10
29.7093
 20
-25.4656
 30
0.0
 40
0
 41
0
  0
VERTEX
  8
0
 10
29.6897
 20
-25.5328
 30
0.0
 40
0
 41
0
  0
VERTEX
  8
0
 10
29.6357
 20
-25.7356
 30
0.0
 40
0
 41
0
  0
VERTEX
  8
0
 10
29.5493
 20
-26.0854
 30
0.0
 40
0
 41
0
  0
VERTEX
  8
0
 10
29.4503
 20
-26.5147
 30
0.0
 40
0
 41
0
  0
VERTEX
  8
0
 10
29.3383
 20
-27.0233
 30
0.0
 40
0
 41
0
  0
VERTEX
  8
0
 10
29.2137
 20
-27.6111
 30
0.0
 40
0
 41
0
  0
VERTEX
  8
0
 10
29.0763
 20
-28.2779
 30
0.0
 40
0
 41
0
  0
VERTEX
  8
0
 10
28.926
 20
-29.0233
 30
0.0
 40
0
 41
0
  0
VERTEX
  8
0
 10
28.8035
 20
-29.6411
 30
0.0
 40
0
 41
0
  0
VERTEX
  8
0
 10
28.7631
 20
-29.8472
 30
0.0
 40
0
 41
0
  0
VERTEX
  8
0
 10
28.7678
 20
-29.6726
 30
0.0
 40
0
 41
0
  0
VERTEX
  8
0
 10
28.7764
 20
-29.1487
 30
0.0
 40
0
 41
0
  0
VERTEX
  8
0
 10
28.7778
 20
-28.4537
 30
0.0
 40
0
 41
0
  0
VERTEX
  8
0
 10
28.7668
 20
-27.7622
 30
0.0
 40
0
 41
0
  0
VERTEX
  8
0
 10
28.7429
 20
-27.0743
 30
0.0
 40
0
 41
0
  0
VERTEX
  8
0
 10
28.7058
 20
-26.3901
 30
0.0
 40
0
 41
0
  0
VERTEX
  8
0
 10
28.6549
 20
-25.7097
 30
0.0
 40
0
 41
0
  0
VERTEX
  8
0
 10
28.5897
 20
-25.0332
 30
0.0
 40
0
 41
0
  0
VERTEX
  8
0
 10
28.5099
 20
-24.3607
 30
0.0
 40
0
 41
0
  0
VERTEX
  8
0
 10
28.415
 20
-23.6922
 30
0.0
 40
0
 41
0
  0
VERTEX
  8
0
 10
28.3044
 20
-23.0281
 30
0.0
 40
0
 41
0
  0
VERTEX
  8
0
 10
28.1778
 20
-22.3682
 30
0.0
 40
0
 41
0
  0
VERTEX
  8
0
 10
28.0347
 20
-21.7128
 30
0.0
 40
0
 41
0
  0
VERTEX
  8
0
 10
27.8747
 20
-21.0618
 30
0.0
 40
0
 41
0
  0
VERTEX
  8
0
 10
27.6972
 20
-20.4156
 30
0.0
 40
0
 41
0
  0
VERTEX
  8
0
 10
27.5019
 20
-19.7739
 30
0.0
 40
0
 41
0
  0
VERTEX
  8
0
 10
27.2882
 20
-19.1371
 30
0.0
 40
0
 41
0
  0
VERTEX
  8
0
 10
27.0558
 20
-18.5053
 30
0.0
 40
0
 41
0
  0
VERTEX
  8
0
 10
26.8042
 20
-17.8783
 30
0.0
 40
0
 41
0
  0
VERTEX
  8
0
 10
26.5328
 20
-17.2567
 30
0.0
 40
0
 41
0
  0
VERTEX
  8
0
 10
26.2413
 20
-16.6401
 30
0.0
 40
0
 41
0
  0
VERTEX
  8
0
 10
25.9292
 20
-16.029
 30
0.0
 40
0
 41
0
  0
VERTEX
  8
0
 10
25.596
 20
-15.4232
 30
0.0
 40
0
 41
0
  0
VERTEX
  8
0
 10
25.2413
 20
-14.8231
 30
0.0
 40
0
 41
0
  0
VERTEX
  8
0
 10
24.8646
 20
-14.2285
 30
0.0
 40
0
 41
0
  0
VERTEX
  8
0
 10
24.4656
 20
-13.6395
 30
0.0
 40
0
 41
0
  0
VERTEX
  8
0
 10
24.0435
 20
-13.0565
 30
0.0
 40
0
 41
0
  0
VERTEX
  8
0
 10
23.5982
 20
-12.4794
 30
0.0
 40
0
 41
0
  0
VERTEX
  8
0
 10
23.1292
 20
-11.9084
 30
0.0
 40
0
 41
0
  0
VERTEX
  8
0
 10
22.6357
 20
-11.3435
 30
0.0
 40
0
 41
0
  0
VERTEX
  8
0
 10
22.1176
 20
-10.7848
 30
0.0
 40
0
 41
0
  0
VERTEX
  8
0
 10
21.5744
 20
-10.2324
 30
0.0
 40
0
 41
0
  0
VERTEX
  8
0
 10
21.1497
 20
-9.82096
 30
0.0
 40
0
 41
0
  0
VERTEX
  8
0
 10
21.0057
 20
-9.68658
 30
0.0
 40
0
 41
0
  0
VERTEX
  8
0
 10
21.1256
 20
-9.75483
 30
0.0
 40
0
 41
0
  0
VERTEX
  8
0
 10
21.48
 20
-9.96935
 30
0.0
 40
0
 41
0
  0
VERTEX
  8
0
 10
21.9396
 20
-10.2691
 30
0.0
 40
0
 41
0
  0
VERTEX
  8
0
 10
22.3844
 20
-10.5851
 30
0.0
 40
0
 41
0
  0
VERTEX
  8
0
 10
22.8143
 20
-10.9166
 30
0.0
 40
0
 41
0
  0
VERTEX
  8
0
 10
23.2296
 20
-11.2629
 30
0.0
 40
0
 41
0
  0
VERTEX
  8
0
 10
23.6303
 20
-11.6233
 30
0.0
 40
0
 41
0
  0
VERTEX
  8
0
 10
24.0163
 20
-11.997
 30
0.0
 40
0
 41
0
  0
VERTEX
  8
0
 10
24.3878
 20
-12.3835
 30
0.0
 40
0
 41
0
  0
VERTEX
  8
0
 10
24.7447
 20
-12.782
 30
0.0
 40
0
 41
0
  0
VERTEX
  8
0
 10
25.0874
 20
-13.1917
 30
0.0
 40
0
 41
0
  0
VERTEX
  8
0
 10
25.4154
 20
-13.6121
 30
0.0
 40
0
 41
0
  0
VERTEX
  8
0
 10
25.7293
 20
-14.0422
 30
0.0
 40
0
 41
0
  0
VERTEX
  8
0
 10
26.029
 20
-14.4817
 30
0.0
 40
0
 41
0
  0
VERTEX
  8
0
 10
26.3144
 20
-14.9294
 30
0.0
 40
0
 41
0
  0
VERTEX
  8
0
 10
26.5856
 20
-15.385
 30
0.0
 40
0
 41
0
  0
VERTEX
  8
0
 10
26.8428
 20
-15.8478
 30
0.0
 40
0
 41
0
  0
VERTEX
  8
0
 10
27.086
 20
-16.3167
 30
0.0
 40
0
 41
0
  0
VERTEX
  8
0
 10
27.3151
 20
-16.7912
 30
0.0
 40
0
 41
0
  0
VERTEX
  8
0
 10
27.5303
 20
-17.2708
 30
0.0
 40
0
 41
0
  0
VERTEX
  8
0
 10
27.7317
 20
-17.7546
 30
0.0
 40
0
 41
0
  0
VERTEX
  8
0
 10
27.9193
 20
-18.2418
 30
0.0
 40
0
 41
0
  0
VERTEX
  8
0
 10
28.0931
 20
-18.7319
 30
0.0
 40
0
 41
0
  0
VERTEX
  8
0
 10
28.2532
 20
-19.2242
 30
0.0
 40
0
 41
0
  0
VERTEX
  8
0
 10
28.3996
 20
-19.7178
 30
0.0
 40
0
 41
0
  0
VERTEX
  8
0
 10
28.5325
 20
-20.2122
 30
0.0
 40
0
 41
0
  0
VERTEX
  8
0
 10
28.6518
 20
-20.7065
 30
0.0
 40
0
 41
0
  0
VERTEX
  8
0
 10
28.7576
 20
-21.2001
 30
0.0
 40
0
 41
0
  0
VERTEX
  8
0
 10
28.8501
 20
-21.6922
 30
0.0
 40
0
 41
0
  0
VERTEX
  8
0
 10
28.9293
 20
-22.1824
 30
0.0
 40
0
 41
0
  0
VERTEX
  8
0
 10
28.995
 20
-22.6696
 30
0.0
 40
0
 41
0
  0
VERTEX
  8
0
 10
29.0476
 20
-23.1533
 30
0.0
 40
0
 41
0
  0
VERTEX
  8
0
 10
29.0787
 20
-23.5128
 30
0.0
 40
0
 41
0
  0
VERTEX
  8
0
 10
29.0869
 20
-23.6328
 30
0.0
 40
0
 41
0
  0
VERTEX
  8
0
 10
29.0978
 20
-23.4243
 30
0.0
 40
0
 41
0
  0
VERTEX
  8
0
 10
29.1228
 20
-22.7989
 30
0.0
 40
0
 41
0
  0
VERTEX
  8
0
 10
29.1451
 20
-21.9669
 30
0.0
 40
0
 41
0
  0
VERTEX
  8
0
 10
29.1558
 20
-21.1381
 30
0.0
 40
0
 41
0
  0
VERTEX
  8
0
 10
29.1571
 20
-20.3135
 30
0.0
 40
0
 41
0
  0
VERTEX
  8
0
 10
29.1507
 20
-19.4946
 30
0.0
 40
0
 41
0
  0
VERTEX
  8
0
 10
29.1386
 20
-18.6824
 30
0.0
 40
0
 41
0
  0
VERTEX
  8
0
 10
29.1228
 20
-17.8785
 30
0.0
 40
0
 41
0
  0
VERTEX
  8
0
 10
29.105
 20
-17.0838
 30
0.0
 40
0
 41
0
  0
VERTEX
  8
0
 10
29.0875
 20
-16.2996
 30
0.0
 40
0
 41
0
  0
VERTEX
  8
0
 10
29.0718
 20
-15.5274
 30
0.0
 40
0
 41
0
  0
VERTEX
  8
0
 10
29.0603
 20
-14.7682
 30
0.0
 40
0
 41
0
  0
VERTEX
  8
0
 10
29.0546
 20
-14.0233
 30
0.0
 40
0
 41
0
  0
VERTEX
  8
0
 10
29.0567
 20
-13.2942
 30
0.0
 40
0
 41
0
  0
VERTEX
  8
0
 10
29.0686
 20
-12.5818
 30
0.0
 40
0
 41
0
  0
VERTEX
  8
0
 10
29.0922
 20
-11.8874
 30
0.0
 40
0
 41
0
  0
VERTEX
  8
0
 10
29.1182
 20
-11.381
 30
0.0
 40
0
 41
0
  0
VERTEX
  8
0
 10
29.1296
 20
-11.2125
 30
0.0
 40
0
 41
0
  0
VERTEX
  8
0
 10
29.2124
 20
-11.2246
 30
0.0
 40
0
 41
0
  0
VERTEX
  8
0
 10
29.4606
 20
-11.2633
 30
0.0
 40
0
 41
0
  0
VERTEX
  8
0
 10
29.8178
 20
-11.3234
 30
0.0
 40
0
 41
0
  0
VERTEX
  8
0
 10
30.1961
 20
-11.3925
 30
0.0
 40
0
 41
0
  0
VERTEX
  8
0
 10
30.5911
 20
-11.4704
 30
0.0
 40
0
 41
0
  0
VERTEX
  8
0
 10
30.9979
 20
-11.5572
 30
0.0
 40
0
 41
0
  0
VERTEX
  8
0
 10
31.4118
 20
-11.6528
 30
0.0
 40
0
 41
0
  0
VERTEX
  8
0
 10
31.8282
 20
-11.7571
 30
0.0
 40
0
 41
0
  0
VERTEX
  8
0
 10
32.2421
 20
-11.8699
 30
0.0
 40
0
 41
0
  0
VERTEX
  8
0
 10
32.6489
 20
-11.9912
 30
0.0
 40
0
 41
0
  0
VERTEX
  8
0
 10
33.0439
 20
-12.1209
 30
0.0
 40
0
 41
0
  0
VERTEX
  8
0
 10
33.4224
 20
-12.259
 30
0.0
 40
0
 41
0
  0
VERTEX
  8
0
 10
33.7796
 20
-12.4052
 30
0.0
 40
0
 41
0
  0
VERTEX
  8
0
 10
34.1107
 20
-12.5596
 30
0.0
 40
0
 41
0
  0
VERTEX
  8
0
 10
34.4111
 20
-12.7221
 30
0.0
 40
0
 41
0
  0
VERTEX
  8
0
 10
34.676
 20
-12.8925
 30
0.0
 40
0
 41
0
  0
VERTEX
  8
0
 10
34.8475
 20
-13.0229
 30
0.0
 40
0
 41
0
  0
VERTEX
  8
0
 10
34.9007
 20
-13.0708
 30
0.0
 40
0
 41
0
  0
VERTEX
  8
0
 10
34.8362
 20
-13.0419
 30
0.0
 40
0
 41
0
  0
VERTEX
  8
0
 10
34.639
 20
-12.9632
 30
0.0
 40
0
 41
0
  0
VERTEX
  8
0
 10
34.3496
 20
-12.8611
 30
0.0
 40
0
 41
0
  0
VERTEX
  8
0
 10
34.0371
 20
-12.7643
 30
0.0
 40
0
 41
0
  0
VERTEX
  8
0
 10
33.7061
 20
-12.6731
 30
0.0
 40
0
 41
0
  0
VERTEX
  8
0
 10
33.3617
 20
-12.5873
 30
0.0
 40
0
 41
0
  0
VERTEX
  8
0
 10
33.0085
 20
-12.5071
 30
0.0
 40
0
 41
0
  0
VERTEX
  8
0
 10
32.6511
 20
-12.4324
 30
0.0
 40
0
 41
0
  0
VERTEX
  8
0
 10
32.2943
 20
-12.3633
 30
0.0
 40
0
 41
0
  0
VERTEX
  8
0
 10
31.9429
 20
-12.2997
 30
0.0
 40
0
 41
0
  0
VERTEX
  8
0
 10
31.6017
 20
-12.2418
 30
0.0
 40
0
 41
0
  0
VERTEX
  8
0
 10
31.2754
 20
-12.1896
 30
0.0
 40
0
 41
0
  0
VERTEX
  8
0
 10
30.9688
 20
-12.143
 30
0.0
 40
0
 41
0
  0
VERTEX
  8
0
 10
30.6864
 20
-12.1021
 30
0.0
 40
0
 41
0
  0
VERTEX
  8
0
 10
30.4332
 20
-12.0669
 30
0.0
 40
0
 41
0
  0
VERTEX
  8
0
 10
30.2139
 20
-12.0374
 30
0.0
 40
0
 41
0
  0
VERTEX
  8
0
 10
30.0783
 20
-12.0196
 30
0.0
 40
0
 41
0
  0
VERTEX
  8
0
 10
30.0332
 20
-12.0138
 30
0.0
 40
0
 41
0
  0
VERTEX
  8
0
 10
30.0486
 20
-12.4018
 30
0.0
 40
0
 41
0
  0
VERTEX
  8
0
 10
30.0814
 20
-13.5662
 30
0.0
 40
0
 41
0
  0
VERTEX
  8
0
 10
30.1049
 20
-15.1693
 30
0.0
 40
0
 41
0
  0
VERTEX
  8
0
 10
30.1029
 20
-16.8163
 30
0.0
 40
0
 41
0
  0
VERTEX
  8
0
 10
30.0758
 20
-18.4999
 30
0.0
 40
0
 41
0
  0
VERTEX
  8
0
 10
30.0231
 20
-20.2136
 30
0.0
 40
0
 41
0
  0
VERTEX
  8
0
 10
29.9444
 20
-21.9504
 30
0.0
 40
0
 41
0
  0
VERTEX
  8
0
 10
29.8399
 20
-23.7033
 30
0.0
 40
0
 41
0
  0
VERTEX
  8
0
 10
29.7451
 20
-25.0253
 30
0.0
 40
0
 41
0
  0
VERTEX
  8
0
 10
29.7093
 20
-25.4656
 30
0.0
 40
0
 41
0
  0
VERTEX
  8
0
 10
29.7093
 20
-25.4656
 30
0.0
 40
0
 41
0
  0
SEQEND
 8
0
  0
POLYLINE
  8
0
 62
     82
 66
     1
 10
0
 20
0
 30
0.0
 70
     1
 40
0
 41
0
  0
VERTEX
  8
0
 10
24.9185
 20
-14.7928
 30
0.0
 40
0
 41
0
  0
VERTEX
  8
0
 10
25.0381
 20
-15.0636
 30
0.0
 40
0
 41
0
  0
VERTEX
  8
0
 10
25.3807
 20
-15.8833
 30
0.0
 40
0
 41
0
  0
VERTEX
  8
0
 10
25.7961
 20
-16.9556
 30
0.0
 40
0
 41
0
  0
VERTEX
  8
0
 10
26.1649
 20
-18.01
 30
0.0
 40
0
 41
0
  0
VERTEX
  8
0
 10
26.4869
 20
-19.0465
 30
0.0
 40
0
 41
0
  0
VERTEX
  8
0
 10
26.7626
 20
-20.0656
 30
0.0
 40
0
 41
0
  0
VERTEX
  8
0
 10
26.9924
 20
-21.0672
 30
0.0
 40
0
 41
0
  0
VERTEX
  8
0
 10
27.176
 20
-22.0515
 30
0.0
 40
0
 41
0
  0
VERTEX
  8
0
 10
27.2847
 20
-22.7765
 30
0.0
 40
0
 41
0
  0
VERTEX
  8
0
 10
27.3139
 20
-23.019
 30
0.0
 40
0
 41
0
  0
VERTEX
  8
0
 10
27.3664
 20
-23.1953
 30
0.0
 40
0
 41
0
  0
VERTEX
  8
0
 10
27.514
 20
-23.7271
 30
0.0
 40
0
 41
0
  0
VERTEX
  8
0
 10
27.6993
 20
-24.4575
 30
0.0
 40
0
 41
0
  0
VERTEX
  8
0
 10
27.8697
 20
-25.2103
 30
0.0
 40
0
 41
0
  0
VERTEX
  8
0
 10
28.0256
 20
-25.9856
 30
0.0
 40
0
 41
0
  0
VERTEX
  8
0
 10
28.1671
 20
-26.7832
 30
0.0
 40
0
 41
0
  0
VERTEX
  8
0
 10
28.2944
 20
-27.6031
 30
0.0
 40
0
 41
0
  0
VERTEX
  8
0
 10
28.4078
 20
-28.4454
 30
0.0
 40
0
 41
0
  0
VERTEX
  8
0
 10
28.4844
 20
-29.0938
 30
0.0
 40
0
 41
0
  0
VERTEX
  8
0
 10
28.5072
 20
-29.3101
 30
0.0
 40
0
 41
0
  0
VERTEX
  8
0
 10
28.5188
 20
-29.129
 30
0.0
 40
0
 41
0
  0
VERTEX
  8
0
 10
28.5381
 20
-28.5849
 30
0.0
 40
0
 41
0
  0
VERTEX
  8
0
 10
28.541
 20
-27.8218
 30
0.0
 40
0
 41
0
  0
VERTEX
  8
0
 10
28.5161
 20
-27.0208
 30
0.0
 40
0
 41
0
  0
VERTEX
  8
0
 10
28.4636
 20
-26.1817
 30
0.0
 40
0
 41
0
  0
VERTEX
  8
0
 10
28.3835
 20
-25.304
 30
0.0
 40
0
 41
0
  0
VERTEX
  8
0
 10
28.2758
 20
-24.3879
 30
0.0
 40
0
 41
0
  0
VERTEX
  8
0
 10
28.141
 20
-23.4332
 30
0.0
 40
0
 41
0
  0
VERTEX
  8
0
 10
28.0218
 20
-22.6874
 30
0.0
 40
0
 41
0
  0
VERTEX
  8
0
 10
27.9787
 20
-22.4393
 30
0.0
 40
0
 41
0
  0
VERTEX
  8
0
 10
27.9129
 20
-22.1489
 30
0.0
 40
0
 41
0
  0
VERTEX
  8
0
 10
27.6963
 20
-21.2821
 30
0.0
 40
0
 41
0
  0
VERTEX
  8
0
 10
27.3854
 20
-20.1825
 30
0.0
 40
0
 41
0
  0
VERTEX
  8
0
 10
27.0464
 20
-19.1403
 30
0.0
 40
0
 41
0
  0
VERTEX
  8
0
 10
26.6788
 20
-18.1557
 30
0.0
 40
0
 41
0
  0
VERTEX
  8
0
 10
26.2822
 20
-17.2286
 30
0.0
 40
0
 41
0
  0
VERTEX
  8
0
 10
25.8569
 20
-16.3592
 30
0.0
 40
0
 41
0
  0
VERTEX
  8
0
 10
25.4024
 20
-15.5472
 30
0.0
 40
0
 41
0
  0
VERTEX
  8
0
 10
25.0453
 20
-14.9774
 30
0.0
 40
0
 41
0
  0
VERTEX
  8
0
 10
24.9185
 20
-14.7928
 30
0.0
 40
0
 41
0
  0
VERTEX
  8
0
 10
24.9185
 20
-14.7928
 30
0.0
 40
0
 41
0
  0
SEQEND
 8
0
  0
POLYLINE
  8
0
 62
     82
 66
     1
 10
0
 20
0
 30
0.0
 70
     1
 40
0
 41
0
  0
VERTEX
  8
0
 10
30.3486
 20
-20.1633
 30
0.0
 40
0
 41
0
  0
VERTEX
  8
0
 10
30.4256
 20
-20.0076
 30
0.0
 40
0
 41
0
  0
VERTEX
  8
0
 10
30.6635
 20
-19.5442
 30
0.0
 40
0
 41
0
  0
VERTEX
  8
0
 10
30.985
 20
-18.9461
 30
0.0
 40
0
 41
0
  0
VERTEX
  8
0
 10
31.3131
 20
-18.3694
 30
0.0
 40
0
 41
0
  0
VERTEX
  8
0
 10
31.6476
 20
-17.8139
 30
0.0
 40
0
 41
0
  0
VERTEX
  8
0
 10
31.9886
 20
-17.2797
 30
0.0
 40
0
 41
0
  0
VERTEX
  8
0
 10
32.336
 20
-16.7668
 30
0.0
 40
0
 41
0
  0
VERTEX
  8
0
 10
32.6897
 20
-16.2753
 30
0.0
 40
0
 41
0
  0
VERTEX
  8
0
 10
33.0497
 20
-15.805
 30
0.0
 40
0
 41
0
  0
VERTEX
  8
0
 10
33.4161
 20
-15.3563
 30
0.0
 40
0
 41
0
  0
VERTEX
  8
0
 10
33.7888
 20
-14.9288
 30
0.0
 40
0
 41
0
  0
VERTEX
  8
0
 10
34.1676
 20
-14.5228
 30
0.0
 40
0
 41
0
  0
VERTEX
  8
0
 10
34.5526
 20
-14.1382
 30
0.0
 40
0
 41
0
  0
VERTEX
  8
0
 10
34.9437
 20
-13.7752
 30
0.0
 40
0
 41
0
  0
VERTEX
  8
0
 10
35.3411
 20
-13.4336
 30
0.0
 40
0
 41
0
  0
VERTEX
  8
0
 10
35.7444
 20
-13.1136
 30
0.0
 40
0
 41
0
  0
VERTEX
  8
0
 10
36.05
 20
-12.8875
 30
0.0
 40
0
 41
0
  0
VERTEX
  8
0
 10
36.1538
 20
-12.8151
 30
0.0
 40
0
 41
0
  0
VERTEX
  8
0
 10
36.0218
 20
-12.9486
 30
0.0
 40
0
 41
0
  0
VERTEX
  8
0
 10
35.6358
 20
-13.3587
 30
0.0
 40
0
 41
0
  0
VERTEX
  8
0
 10
35.1368
 20
-13.9219
 30
0.0
 40
0
 41
0
  0
VERTEX
  8
0
 10
34.6569
 20
-14.5047
 30
0.0
 40
0
 41
0
  0
VERTEX
  8
0
 10
34.196
 20
-15.1071
 30
0.0
 40
0
 41
0
  0
VERTEX
  8
0
 10
33.754
 20
-15.7292
 30
0.0
 40
0
 41
0
  0
VERTEX
  8
0
 10
33.3311
 20
-16.3707
 30
0.0
 40
0
 41
0
  0
VERTEX
  8
0
 10
32.9274
 20
-17.0318
 30
0.0
 40
0
 41
0
  0
VERTEX
  8
0
 10
32.5426
 20
-17.7125
 30
0.0
 40
0
 41
0
  0
VERTEX
  8
0
 10
32.1769
 20
-18.4128
 30
0.0
 40
0
 41
0
  0
VERTEX
  8
0
 10
31.8304
 20
-19.1326
 30
0.0
 40
0
 41
0
  0
VERTEX
  8
0
 10
31.5029
 20
-19.8721
 30
0.0
 40
0
 41
0
  0
VERTEX
  8
0
 10
31.1944
 20
-20.6311
 30
0.0
 40
0
 41
0
  0
VERTEX
  8
0
 10
30.9053
 20
-21.4097
 30
0.0
 40
0
 41
0
  0
VERTEX
  8
0
 10
30.6351
 20
-22.2078
 30
0.0
 40
0
 41
0
  0
VERTEX
  8
0
 10
30.3842
 20
-23.0256
 30
0.0
 40
0
 41
0
  0
VERTEX
  8
0
 10
30.2076
 20
-23.6529
 30
0.0
 40
0
 41
0
  0
VERTEX
  8
0
 10
30.1525
 20
-23.8629
 30
0.0
 40
0
 41
0
  0
VERTEX
  8
0
 10
30.1662
 20
-23.7017
 30
0.0
 40
0
 41
0
  0
VERTEX
  8
0
 10
30.206
 20
-23.2176
 30
0.0
 40
0
 41
0
  0
VERTEX
  8
0
 10
30.2514
 20
-22.6243
 30
0.0
 40
0
 41
0
  0
VERTEX
  8
0
 10
30.2888
 20
-22.0832
 30
0.0
 40
0
 41
0
  0
VERTEX
  8
0
 10
30.3176
 20
-21.5943
 30
0.0
 40
0
 41
0
  0
VERTEX
  8
0
 10
30.3382
 20
-21.1578
 30
0.0
 40
0
 41
0
  0
VERTEX
  8
0
 10
30.3503
 20
-20.7737
 30
0.0
 40
0
 41
0
  0
VERTEX
  8
0
 10
30.3537
 20
-20.4422
 30
0.0
 40
0
 41
0
  0
VERTEX
  8
0
 10
30.3513
 20
-20.2329
 30
0.0
 40
0
 41
0
  0
VERTEX
  8
0
 10
30.3486
 20
-20.1633
 30
0.0
 40
0
 41
0
  0
VERTEX
  8
0
 10
30.3486
 20
-20.1633
 30
0.0
 40
0
 41
0
  0
SEQEND
 8
0
  0
POLYLINE
  8
0
 62
     82
 66
     1
 10
0
 20
0
 30
0.0
 70
     1
 40
0
 41
0
  0
VERTEX
  8
0
 10
26.8279
 20
-36.9653
 30
0.0
 40
0
 41
0
  0
VERTEX
  8
0
 10
26.8511
 20
-36.9165
 30
0.0
 40
0
 41
0
  0
VERTEX
  8
0
 10
26.9207
 20
-36.7703
 30
0.0
 40
0
 41
0
  0
VERTEX
  8
0
 10
27.0007
 20
-36.601
 30
0.0
 40
0
 41
0
  0
VERTEX
  8
0
 10
27.0681
 20
-36.4574
 30
0.0
 40
0
 41
0
  0
VERTEX
  8
0
 10
27.1231
 20
-36.3397
 30
0.0
 40
0
 41
0
  0
VERTEX
  8
0
 10
27.1657
 20
-36.2481
 30
0.0
 40
0
 41
0
  0
VERTEX
  8
0
 10
27.196
 20
-36.1824
 30
0.0
 40
0
 41
0
  0
VERTEX
  8
0
 10
27.214
 20
-36.1429
 30
0.0
 40
0
 41
0
  0
VERTEX
  8
0
 10
27.22
 20
-36.1299
 30
0.0
 40
0
 41
0
  0
VERTEX
  8
0
 10
27.22
 20
-36.1299
 30
0.0
 40
0
 41
0
  0
VERTEX
  8
0
 10
27.1644
 20
-35.8854
 30
0.0
 40
0
 41
0
  0
VERTEX
  8
0
 10
26.9868
 20
-35.1546
 30
0.0
 40
0
 41
0
  0
VERTEX
  8
0
 10
26.7382
 20
-34.2078
 30
0.0
 40
0
 41
0
  0
VERTEX
  8
0
 10
26.4739
 20
-33.2894
 30
0.0
 40
0
 41
0
  0
VERTEX
  8
0
 10
26.194
 20
-32.3994
 30
0.0
 40
0
 41
0
  0
VERTEX
  8
0
 10
25.8986
 20
-31.5381
 30
0.0
 40
0
 41
0
  0
VERTEX
  8
0
 10
25.5878
 20
-30.7051
 30
0.0
 40
0
 41
0
  0
VERTEX
  8
0
 10
25.2614
 20
-29.9006
 30
0.0
 40
0
 41
0
  0
VERTEX
  8
0
 10
24.9194
 20
-29.1247
 30
0.0
 40
0
 41
0
  0
VERTEX
  8
0
 10
24.5621
 20
-28.3774
 30
0.0
 40
0
 41
0
  0
VERTEX
  8
0
 10
24.1893
 20
-27.6586
 30
0.0
 40
0
 41
0
  0
VERTEX
  8
0
 10
23.8008
 20
-26.9685
 30
0.0
 40
0
 41
0
  0
VERTEX
  8
0
 10
23.3971
 20
-26.3071
 30
0.0
 40
0
 41
0
  0
VERTEX
  8
0
 10
22.9779
 20
-25.6743
 30
0.0
 40
0
 41
0
  0
VERTEX
  8
0
 10
22.5433
 20
-25.0701
 30
0.0
 40
0
 41
0
  0
VERTEX
  8
0
 10
22.0933
 20
-24.4949
 30
0.0
 40
0
 41
0
  0
VERTEX
  8
0
 10
21.7471
 20
-24.0822
 30
0.0
 40
0
 41
0
  0
VERTEX
  8
0
 10
21.6279
 20
-23.9482
 30
0.0
 40
0
 41
0
  0
VERTEX
  8
0
 10
21.7403
 20
-24.1312
 30
0.0
 40
0
 41
0
  0
VERTEX
  8
0
 10
22.0656
 20
-24.6881
 30
0.0
 40
0
 41
0
  0
VERTEX
  8
0
 10
22.4833
 20
-25.4501
 30
0.0
 40
0
 41
0
  0
VERTEX
  8
0
 10
22.8815
 20
-26.2344
 30
0.0
 40
0
 41
0
  0
VERTEX
  8
0
 10
23.2599
 20
-27.0407
 30
0.0
 40
0
 41
0
  0
VERTEX
  8
0
 10
23.6183
 20
-27.8692
 30
0.0
 40
0
 41
0
  0
VERTEX
  8
0
 10
23.9571
 20
-28.7196
 30
0.0
 40
0
 41
0
  0
VERTEX
  8
0
 10
24.2761
 20
-29.5921
 30
0.0
 40
0
 41
0
  0
VERTEX
  8
0
 10
24.5753
 20
-30.4865
 30
0.0
 40
0
 41
0
  0
VERTEX
  8
0
 10
24.8547
 20
-31.4031
 30
0.0
 40
0
 41
0
  0
VERTEX
  8
0
 10
25.1143
 20
-32.3414
 30
0.0
 40
0
 41
0
  0
VERTEX
  8
0
 10
25.3542
 20
-33.3017
 30
0.0
 40
0
 41
0
  0
VERTEX
  8
0
 10
25.5743
 20
-34.284
 30
0.0
 40
0
 41
0
  0
VERTEX
  8
0
 10
25.7746
 20
-35.2881
 30
0.0
 40
0
 41
0
  0
VERTEX
  8
0
 10
25.9551
 20
-36.314
 30
0.0
 40
0
 41
0
  0
VERTEX
  8
0
 10
26.1158
 20
-37.3618
 30
0.0
 40
0
 41
0
  0
VERTEX
  8
0
 10
26.2243
 20
-38.1638
 30
0.0
 40
0
 41
0
  0
VERTEX
  8
0
 10
26.2568
 20
-38.4315
 30
0.0
 40
0
 41
0
  0
VERTEX
  8
0
 10
26.2785
 20
-38.3693
 30
0.0
 40
0
 41
0
  0
VERTEX
  8
0
 10
26.3435
 20
-38.1825
 30
0.0
 40
0
 41
0
  0
VERTEX
  8
0
 10
26.4183
 20
-37.9665
 30
0.0
 40
0
 41
0
  0
VERTEX
  8
0
 10
26.4814
 20
-37.7833
 30
0.0
 40
0
 41
0
  0
VERTEX
  8
0
 10
26.5328
 20
-37.6333
 30
0.0
 40
0
 41
0
  0
VERTEX
  8
0
 10
26.5725
 20
-37.5164
 30
0.0
 40
0
 41
0
  0
VERTEX
  8
0
 10
26.6008
 20
-37.4328
 30
0.0
 40
0
 41
0
  0
VERTEX
  8
0
 10
26.6176
 20
-37.3826
 30
0.0
 40
0
 41
0
  0
VERTEX
  8
0
 10
26.6233
 20
-37.3658
 30
0.0
 40
0
 41
0
  0
VERTEX
  8
0
 10
26.6233
 20
-37.3658
 30
0.0
 40
0
 41
0
  0
VERTEX
  8
0
 10
26.5636
 20
-37.0335
 30
0.0
 40
0
 41
0
  0
VERTEX
  8
0
 10
26.3747
 20
-36.0379
 30
0.0
 40
0
 41
0
  0
VERTEX
  8
0
 10
26.1212
 20
-34.7971
 30
0.0
 40
0
 41
0
  0
VERTEX
  8
0
 10
25.8629
 20
-33.6432
 30
0.0
 40
0
 41
0
  0
VERTEX
  8
0
 10
25.5993
 20
-32.5761
 30
0.0
 40
0
 41
0
  0
VERTEX
  8
0
 10
25.3306
 20
-31.5957
 30
0.0
 40
0
 41
0
  0
VERTEX
  8
0
 10
25.0565
 20
-30.7019
 30
0.0
 40
0
 41
0
  0
VERTEX
  8
0
 10
24.7771
 20
-29.8946
 30
0.0
 40
0
 41
0
  0
VERTEX
  8
0
 10
24.5679
 20
-29.3521
 30
0.0
 40
0
 41
0
  0
VERTEX
  8
0
 10
24.4922
 20
-29.1738
 30
0.0
 40
0
 41
0
  0
VERTEX
  8
0
 10
24.5919
 20
-29.3933
 30
0.0
 40
0
 41
0
  0
VERTEX
  8
0
 10
24.8754
 20
-30.0593
 30
0.0
 40
0
 41
0
  0
VERTEX
  8
0
 10
25.2324
 20
-30.9701
 30
0.0
 40
0
 41
0
  0
VERTEX
  8
0
 10
25.5631
 20
-31.9065
 30
0.0
 40
0
 41
0
  0
VERTEX
  8
0
 10
25.8678
 20
-32.8681
 30
0.0
 40
0
 41
0
  0
VERTEX
  8
0
 10
26.1465
 20
-33.8549
 30
0.0
 40
0
 41
0
  0
VERTEX
  8
0
 10
26.3994
 20
-34.8667
 30
0.0
 40
0
 41
0
  0
VERTEX
  8
0
 10
26.6265
 20
-35.9035
 30
0.0
 40
0
 41
0
  0
VERTEX
  8
0
 10
26.7813
 20
-36.6992
 30
0.0
 40
0
 41
0
  0
VERTEX
  8
0
 10
26.8279
 20
-36.9653
 30
0.0
 40
0
 41
0
  0
VERTEX
  8
0
 10
26.8279
 20
-36.9653
 30
0.0
 40
0
 41
0
  0
SEQEND
 8
0
  0
POLYLINE
  8
0
 62
     82
 66
     1
 10
0
 20
0
 30
0.0
 70
     1
 40
0
 41
0
  0
VERTEX
  8
0
 10
31.1585
 20
-33.8111
 30
0.0
 40
0
 41
0
  0
VERTEX
  8
0
 10
31.2137
 20
-33.6178
 30
0.0
 40
0
 41
0
  0
VERTEX
  8
0
 10
31.3876
 20
-33.04
 30
0.0
 40
0
 41
0
  0
VERTEX
  8
0
 10
31.6279
 20
-32.2894
 30
0.0
 40
0
 41
0
  0
VERTEX
  8
0
 10
31.8792
 20
-31.5597
 30
0.0
 40
0
 41
0
  0
VERTEX
  8
0
 10
32.1415
 20
-30.8507
 30
0.0
 40
0
 41
0
  0
VERTEX
  8
0
 10
32.4149
 20
-30.1624
 30
0.0
 40
0
 41
0
  0
VERTEX
  8
0
 10
32.6993
 20
-29.4946
 30
0.0
 40
0
 41
0
  0
VERTEX
  8
0
 10
32.9947
 20
-28.8476
 30
0.0
 40
0
 41
0
  0
VERTEX
  8
0
 10
33.3012
 20
-28.2211
 30
0.0
 40
0
 41
0
  0
VERTEX
  8
0
 10
33.6189
 20
-27.6153
 30
0.0
 40
0
 41
0
  0
VERTEX
  8
0
 10
33.9476
 20
-27.0299
 30
0.0
 40
0
 41
0
  0
VERTEX
  8
0
 10
34.2875
 20
-26.4651
 30
0.0
 40
0
 41
0
  0
VERTEX
  8
0
 10
34.6383
 20
-25.9208
 30
0.0
 40
0
 41
0
  0
VERTEX
  8
0
 10
35.0006
 20
-25.3971
 30
0.0
 40
0
 41
0
  0
VERTEX
  8
0
 10
35.3737
 20
-24.8936
 30
0.0
 40
0
 41
0
  0
VERTEX
  8
0
 10
35.7582
 20
-24.4107
 30
0.0
 40
0
 41
0
  0
VERTEX
  8
0
 10
36.0528
 20
-24.0619
 30
0.0
 40
0
 41
0
  0
VERTEX
  8
0
 10
36.1538
 20
-23.9482
 30
0.0
 40
0
 41
0
  0
VERTEX
  8
0
 10
36.0442
 20
-24.1272
 30
0.0
 40
0
 41
0
  0
VERTEX
  8
0
 10
35.7268
 20
-24.6715
 30
0.0
 40
0
 41
0
  0
VERTEX
  8
0
 10
35.3186
 20
-25.4158
 30
0.0
 40
0
 41
0
  0
VERTEX
  8
0
 10
34.9293
 20
-26.1811
 30
0.0
 40
0
 41
0
  0
VERTEX
  8
0
 10
34.5586
 20
-26.9674
 30
0.0
 40
0
 41
0
  0
VERTEX
  8
0
 10
34.2068
 20
-27.7744
 30
0.0
 40
0
 41
0
  0
VERTEX
  8
0
 10
33.8737
 20
-28.6025
 30
0.0
 40
0
 41
0
  0
VERTEX
  8
0
 10
33.5594
 20
-29.4515
 30
0.0
 40
0
 41
0
  0
VERTEX
  8
0
 10
33.2639
 20
-30.3214
 30
0.0
 40
0
 41
0
  0
VERTEX
  8
0
 10
32.9872
 20
-31.2121
 30
0.0
 40
0
 41
0
  0
VERTEX
  8
0
 10
32.7293
 20
-32.1237
 30
0.0
 40
0
 41
0
  0
VERTEX
  8
0
 10
32.4901
 20
-33.0561
 30
0.0
 40
0
 41
0
  0
VERTEX
  8
0
 10
32.2699
 20
-34.0094
 30
0.0
 40
0
 41
0
  0
VERTEX
  8
0
 10
32.0682
 20
-34.9836
 30
0.0
 40
0
 41
0
  0
VERTEX
  8
0
 10
31.8854
 20
-35.9785
 30
0.0
 40
0
 41
0
  0
VERTEX
  8
0
 10
31.7214
 20
-36.9943
 30
0.0
 40
0
 41
0
  0
VERTEX
  8
0
 10
31.6097
 20
-37.7714
 30
0.0
 40
0
 41
0
  0
VERTEX
  8
0
 10
31.5761
 20
-38.0308
 30
0.0
 40
0
 41
0
  0
VERTEX
  8
0
 10
31.5483
 20
-37.9008
 30
0.0
 40
0
 41
0
  0
VERTEX
  8
0
 10
31.429
 20
-37.2582
 30
0.0
 40
0
 41
0
  0
VERTEX
  8
0
 10
31.3353
 20
-36.6285
 30
0.0
 40
0
 41
0
  0
VERTEX
  8
0
 10
31.3204
 20
-36.5049
 30
0.0
 40
0
 41
0
  0
VERTEX
  8
0
 10
31.3763
 20
-36.2108
 30
0.0
 40
0
 41
0
  0
VERTEX
  8
0
 10
31.5525
 20
-35.3304
 30
0.0
 40
0
 41
0
  0
VERTEX
  8
0
 10
31.7888
 20
-34.2301
 30
0.0
 40
0
 41
0
  0
VERTEX
  8
0
 10
32.0288
 20
-33.2037
 30
0.0
 40
0
 41
0
  0
VERTEX
  8
0
 10
32.2729
 20
-32.2511
 30
0.0
 40
0
 41
0
  0
VERTEX
  8
0
 10
32.5211
 20
-31.3719
 30
0.0
 40
0
 41
0
  0
VERTEX
  8
0
 10
32.7733
 20
-30.5663
 30
0.0
 40
0
 41
0
  0
VERTEX
  8
0
 10
33.0294
 20
-29.8335
 30
0.0
 40
0
 41
0
  0
VERTEX
  8
0
 10
33.2208
 20
-29.3371
 30
0.0
 40
0
 41
0
  0
VERTEX
  8
0
 10
33.2896
 20
-29.1738
 30
0.0
 40
0
 41
0
  0
VERTEX
  8
0
 10
33.206
 20
-29.3585
 30
0.0
 40
0
 41
0
  0
VERTEX
  8
0
 10
32.9663
 20
-29.9174
 30
0.0
 40
0
 41
0
  0
VERTEX
  8
0
 10
32.6614
 20
-30.6782
 30
0.0
 40
0
 41
0
  0
VERTEX
  8
0
 10
32.3749
 20
-31.4564
 30
0.0
 40
0
 41
0
  0
VERTEX
  8
0
 10
32.1068
 20
-32.2522
 30
0.0
 40
0
 41
0
  0
VERTEX
  8
0
 10
31.8569
 20
-33.066
 30
0.0
 40
0
 41
0
  0
VERTEX
  8
0
 10
31.6257
 20
-33.8981
 30
0.0
 40
0
 41
0
  0
VERTEX
  8
0
 10
31.4126
 20
-34.7487
 30
0.0
 40
0
 41
0
  0
VERTEX
  8
0
 10
31.264
 20
-35.4003
 30
0.0
 40
0
 41
0
  0
VERTEX
  8
0
 10
31.2181
 20
-35.6183
 30
0.0
 40
0
 41
0
  0
VERTEX
  8
0
 10
31.2086
 20
-35.5014
 30
0.0
 40
0
 41
0
  0
VERTEX
  8
0
 10
31.1847
 20
-35.1501
 30
0.0
 40
0
 41
0
  0
VERTEX
  8
0
 10
31.1626
 20
-34.6924
 30
0.0
 40
0
 41
0
  0
VERTEX
  8
0
 10
31.1533
 20
-34.2457
 30
0.0
 40
0
 41
0
  0
VERTEX
  8
0
 10
31.1551
 20
-33.9197
 30
0.0
 40
0
 41
0
  0
VERTEX
  8
0
 10
31.1585
 20
-33.8111
 30
0.0
 40
0
 41
0
  0
VERTEX
  8
0
 10
31.1585
 20
-33.8111
 30
0.0
 40
0
 41
0
  0
SEQEND
 8
0
  0
ENDSEC
  0
EOF
