solid OpenSCAD_Model
  facet normal 0 0 -1
    outer loop
      vertex 0 1370.89 -2.5
      vertex 1370.81 1370.89 -2.5
      vertex 1370.81 0.0839844 -2.5
    endloop
  endfacet
  facet normal 0 0 -1
    outer loop
      vertex 0 1370.89 -2.5
      vertex 1370.81 0.0839844 -2.5
      vertex 0 0.0839844 -2.5
    endloop
  endfacet
  facet normal 0 -0 1
    outer loop
      vertex 1370.81 0.0839844 2.5
      vertex 1370.81 1370.89 2.5
      vertex 0 1370.89 2.5
    endloop
  endfacet
  facet normal 0 0 1
    outer loop
      vertex 0 0.0839844 2.5
      vertex 1370.81 0.0839844 2.5
      vertex 0 1370.89 2.5
    endloop
  endfacet
  facet normal 0 1 0
    outer loop
      vertex 0 1370.89 -2.5
      vertex 1370.81 1370.89 2.5
      vertex 1370.81 1370.89 -2.5
    endloop
  endfacet
  facet normal 0 1 0
    outer loop
      vertex 0 1370.89 -2.5
      vertex 0 1370.89 2.5
      vertex 1370.81 1370.89 2.5
    endloop
  endfacet
  facet normal -1 0 0
    outer loop
      vertex 0 0.0839844 -2.5
      vertex 0 1370.89 2.5
      vertex 0 1370.89 -2.5
    endloop
  endfacet
  facet normal -1 0 0
    outer loop
      vertex 0 0.0839844 -2.5
      vertex 0 0.0839844 2.5
      vertex 0 1370.89 2.5
    endloop
  endfacet
  facet normal 0 -1 0
    outer loop
      vertex 1370.81 0.0839844 -2.5
      vertex 0 0.0839844 2.5
      vertex 0 0.0839844 -2.5
    endloop
  endfacet
  facet normal 0 -1 0
    outer loop
      vertex 1370.81 0.0839844 -2.5
      vertex 1370.81 0.0839844 2.5
      vertex 0 0.0839844 2.5
    endloop
  endfacet
  facet normal 1 0 0
    outer loop
      vertex 1370.81 1370.89 -2.5
      vertex 1370.81 0.0839844 2.5
      vertex 1370.81 0.0839844 -2.5
    endloop
  endfacet
  facet normal 1 0 -0
    outer loop
      vertex 1370.81 1370.89 -2.5
      vertex 1370.81 1370.89 2.5
      vertex 1370.81 0.0839844 2.5
    endloop
  endfacet
endsolid OpenSCAD_Model
